Upgrade-Light_MA.ufo
<glyph name="exclam" format="2">
  <advance width="184"/>
  <unicode hex="0021"/>
  <outline>
    <contour>
      <point x="77" y="164" type="line"/>
      <point x="107" y="164" type="line"/>
      <point x="107" y="724" type="line"/>
      <point x="77" y="724" type="line"/>
    </contour>
    <contour>
      <point x="72" y="0" type="line"/>
      <point x="112" y="0" type="line"/>
      <point x="112" y="40" type="line"/>
      <point x="72" y="40" type="line"/>
    </contour>
  </outline>
</glyph>
<glyph name="quotedbl" format="2">
  <advance width="255"/>
  <unicode hex="0022"/>
  <outline>
    <contour>
      <point x="60" y="552" type="line"/>
      <point x="91" y="552" type="line"/>
      <point x="91" y="724" type="line"/>
      <point x="60" y="724" type="line"/>
    </contour>
    <contour>
      <point x="164" y="552" type="line"/>
      <point x="195" y="552" type="line"/>
      <point x="195" y="724" type="line"/>
      <point x="164" y="724" type="line"/>
    </contour>
  </outline>
</glyph>
<glyph name="numbersign" format="2">
  <advance width="520"/>
  <unicode hex="0023"/>
  <outline>
    <contour>
      <point x="141" y="-31" type="line"/>
      <point x="169" y="-31" type="line"/>
      <point x="233" y="504" type="line"/>
      <point x="205" y="504" type="line"/>
    </contour>
    <contour>
      <point x="293" y="-31" type="line"/>
      <point x="321" y="-31" type="line"/>
      <point x="385" y="504" type="line"/>
      <point x="357" y="504" type="line"/>
    </contour>
    <contour>
      <point x="60" y="308" type="line"/>
      <point x="476" y="308" type="line"/>
      <point x="476" y="340" type="line"/>
      <point x="60" y="340" type="line"/>
    </contour>
    <contour>
      <point x="44" y="135" type="line"/>
      <point x="461" y="135" type="line"/>
      <point x="461" y="167" type="line"/>
      <point x="44" y="167" type="line"/>
    </contour>
  </outline>
</glyph>
<glyph name="ampersand" format="2">
  <advance width="555"/>
  <unicode hex="0026"/>
  <outline>
    <contour>
      <point x="218" y="-13" type="curve" smooth="yes"/>
      <point x="300" y="-13"/>
      <point x="363" y="32"/>
      <point x="407" y="89" type="curve"/>
      <point x="414" y="98" type="line"/>
      <point x="456" y="161"/>
      <point x="480" y="251"/>
      <point x="480" y="362" type="curve"/>
      <point x="452" y="362" type="line"/>
      <point x="452" y="256"/>
      <point x="432" y="179"/>
      <point x="396" y="122" type="curve"/>
      <point x="389" y="112" type="line"/>
      <point x="353" y="62"/>
      <point x="299" y="16"/>
      <point x="219" y="16" type="curve" smooth="yes"/>
      <point x="114" y="16"/>
      <point x="49" y="82"/>
      <point x="49" y="179" type="curve" smooth="yes"/>
      <point x="49" y="257"/>
      <point x="90" y="322"/>
      <point x="171" y="356" type="curve"/>
      <point x="160" y="378" type="line"/>
      <point x="74" y="344"/>
      <point x="16" y="277"/>
      <point x="16" y="180" type="curve" smooth="yes"/>
      <point x="16" y="65"/>
      <point x="93" y="-13"/>
    </contour>
    <contour>
      <point x="462" y="0" type="line"/>
      <point x="503" y="0" type="line"/>
      <point x="171" y="393" type="line" smooth="yes"/>
      <point x="136" y="434"/>
      <point x="117" y="479"/>
      <point x="117" y="522" type="curve" smooth="yes"/>
      <point x="117" y="595"/>
      <point x="171" y="643"/>
      <point x="252" y="643" type="curve" smooth="yes"/>
      <point x="308" y="643"/>
      <point x="364" y="614"/>
      <point x="417" y="560" type="curve"/>
      <point x="417" y="600" type="line"/>
      <point x="369" y="648"/>
      <point x="310" y="672"/>
      <point x="252" y="672" type="curve" smooth="yes"/>
      <point x="153" y="672"/>
      <point x="86" y="612"/>
      <point x="86" y="521" type="curve" smooth="yes"/>
      <point x="86" y="472"/>
      <point x="107" y="421"/>
      <point x="148" y="372" type="curve" smooth="yes"/>
    </contour>
  </outline>
</glyph>
<glyph name="hyphen" format="2">
  <advance width="336"/>
  <unicode hex="002D"/>
  <unicode hex="00AD"/>
  <unicode hex="2010"/>
  <outline>
    <contour>
      <point x="36" y="211" type="line"/>
      <point x="300" y="211" type="line"/>
      <point x="300" y="240" type="line"/>
      <point x="36" y="240" type="line"/>
    </contour>
  </outline>
</glyph>
<glyph name="slash" format="2">
  <advance width="350"/>
  <unicode hex="002F"/>
  <outline>
    <contour>
      <point x="16" y="0" type="line"/>
      <point x="47" y="0" type="line"/>
      <point x="334" y="724" type="line"/>
      <point x="303" y="724" type="line"/>
    </contour>
  </outline>
</glyph>
<glyph name="one" format="2">
  <advance width="329"/>
  <unicode hex="0031"/>
  <outline>
    <contour>
      <point x="173" y="0" type="line"/>
      <point x="205" y="0" type="line"/>
      <point x="205" y="676" type="line"/>
      <point x="44" y="644" type="line"/>
      <point x="44" y="616" type="line"/>
      <point x="173" y="641" type="line"/>
    </contour>
  </outline>
</glyph>
<glyph name="two" format="2">
  <advance width="471"/>
  <unicode hex="0032"/>
  <outline>
    <contour>
      <point x="55" y="0" type="line"/>
      <point x="419" y="0" type="line"/>
      <point x="419" y="32" type="line"/>
      <point x="64" y="33" type="line"/>
      <point x="68" y="20" type="line"/>
      <point x="199" y="140" type="line" smooth="yes"/>
      <point x="339" y="269"/>
      <point x="416" y="348"/>
      <point x="416" y="481" type="curve" smooth="yes"/>
      <point x="416" y="592"/>
      <point x="341" y="670"/>
      <point x="224" y="670" type="curve" smooth="yes"/>
      <point x="160" y="670"/>
      <point x="104" y="652"/>
      <point x="52" y="614" type="curve"/>
      <point x="52" y="575" type="line"/>
      <point x="102" y="620"/>
      <point x="157" y="640"/>
      <point x="224" y="640" type="curve" smooth="yes"/>
      <point x="320" y="640"/>
      <point x="383" y="573"/>
      <point x="383" y="480" type="curve" smooth="yes"/>
      <point x="383" y="356"/>
      <point x="306" y="280"/>
      <point x="179" y="162" type="curve" smooth="yes"/>
      <point x="55" y="46" type="line"/>
    </contour>
  </outline>
</glyph>
<glyph name="four" format="2">
  <advance width="526"/>
  <unicode hex="0034"/>
  <outline>
    <contour>
      <point x="351" y="0" type="line"/>
      <point x="383" y="0" type="line"/>
      <point x="383" y="194" type="line"/>
      <point x="486" y="194" type="line"/>
      <point x="486" y="223" type="line"/>
      <point x="383" y="223" type="line"/>
      <point x="383" y="674" type="line"/>
      <point x="359" y="674" type="line"/>
      <point x="44" y="221" type="line"/>
      <point x="44" y="194" type="line"/>
      <point x="351" y="194" type="line"/>
    </contour>
    <contour>
      <point x="351" y="223" type="line"/>
      <point x="80" y="223" type="line"/>
      <point x="351" y="615" type="line"/>
    </contour>
  </outline>
</glyph>
<glyph name="six" format="2">
  <advance width="520"/>
  <unicode hex="0036"/>
  <outline>
    <contour>
      <point x="257" y="-12" type="curve" smooth="yes"/>
      <point x="369" y="-12"/>
      <point x="464" y="69"/>
      <point x="464" y="208" type="curve" smooth="yes"/>
      <point x="464" y="330"/>
      <point x="374" y="414"/>
      <point x="264" y="414" type="curve" smooth="yes"/>
      <point x="180" y="414"/>
      <point x="97" y="365"/>
      <point x="75" y="275" type="curve"/>
      <point x="88" y="243" type="line"/>
      <point x="88" y="496"/>
      <point x="163" y="641"/>
      <point x="314" y="641" type="curve" smooth="yes"/>
      <point x="360" y="641"/>
      <point x="411" y="625"/>
      <point x="443" y="607" type="curve"/>
      <point x="443" y="642" type="line"/>
      <point x="409" y="657"/>
      <point x="358" y="670"/>
      <point x="314" y="670" type="curve" smooth="yes"/>
      <point x="146" y="670"/>
      <point x="56" y="532"/>
      <point x="56" y="247" type="curve" smooth="yes"/>
      <point x="56" y="65"/>
      <point x="144" y="-12"/>
    </contour>
    <contour>
      <point x="257" y="17" type="curve" smooth="yes"/>
      <point x="152" y="17"/>
      <point x="88" y="106"/>
      <point x="88" y="236" type="curve" smooth="yes"/>
      <point x="88" y="318"/>
      <point x="172" y="385"/>
      <point x="264" y="385" type="curve" smooth="yes"/>
      <point x="365" y="385"/>
      <point x="431" y="301"/>
      <point x="431" y="207" type="curve" smooth="yes"/>
      <point x="431" y="98"/>
      <point x="361" y="17"/>
    </contour>
  </outline>
</glyph>
<glyph name="seven" format="2">
  <advance width="463"/>
  <unicode hex="0037"/>
  <outline>
    <contour>
      <point x="145" y="0" type="line"/>
      <point x="177" y="0" type="line"/>
      <point x="419" y="640" type="line"/>
      <point x="419" y="658" type="line"/>
      <point x="44" y="658" type="line"/>
      <point x="44" y="626" type="line"/>
      <point x="402" y="626" type="line"/>
      <point x="388" y="641" type="line"/>
    </contour>
  </outline>
</glyph>
<glyph name="nine" format="2">
  <advance width="521"/>
  <unicode hex="0039"/>
  <outline>
    <contour>
      <point x="206" y="-12" type="curve" smooth="yes"/>
      <point x="374" y="-12"/>
      <point x="465" y="115"/>
      <point x="465" y="412" type="curve" smooth="yes"/>
      <point x="465" y="588"/>
      <point x="376" y="670"/>
      <point x="263" y="670" type="curve" smooth="yes"/>
      <point x="151" y="670"/>
      <point x="56" y="589"/>
      <point x="56" y="450" type="curve" smooth="yes"/>
      <point x="56" y="328"/>
      <point x="146" y="244"/>
      <point x="256" y="244" type="curve" smooth="yes"/>
      <point x="340" y="244"/>
      <point x="422" y="293"/>
      <point x="444" y="383" type="curve"/>
      <point x="431" y="415" type="line"/>
      <point x="431" y="151"/>
      <point x="363" y="16"/>
      <point x="206" y="16" type="curve" smooth="yes"/>
      <point x="160" y="16"/>
      <point x="109" y="33"/>
      <point x="77" y="51" type="curve"/>
      <point x="77" y="15" type="line"/>
      <point x="111" y="0"/>
      <point x="162" y="-12"/>
    </contour>
    <contour>
      <point x="256" y="272" type="curve" smooth="yes"/>
      <point x="155" y="272"/>
      <point x="89" y="356"/>
      <point x="89" y="451" type="curve" smooth="yes"/>
      <point x="89" y="560"/>
      <point x="159" y="642"/>
      <point x="263" y="642" type="curve" smooth="yes"/>
      <point x="368" y="642"/>
      <point x="431" y="552"/>
      <point x="431" y="422" type="curve" smooth="yes"/>
      <point x="431" y="340"/>
      <point x="348" y="272"/>
    </contour>
  </outline>
</glyph>
<glyph name="less" format="2">
  <advance width="412"/>
  <unicode hex="003C"/>
  <outline>
    <contour>
      <point x="304" y="79" type="line"/>
      <point x="352" y="79" type="line"/>
      <point x="108" y="277" type="line"/>
      <point x="352" y="475" type="line"/>
      <point x="304" y="475" type="line"/>
      <point x="60" y="277" type="line"/>
    </contour>
  </outline>
</glyph>
<glyph name="question" format="2">
  <advance width="436"/>
  <unicode hex="003F"/>
  <outline>
    <contour>
      <point x="179" y="164" type="curve"/>
      <point x="211" y="164" type="line"/>
      <point x="211" y="242"/>
      <point x="240" y="296"/>
      <point x="301" y="348" type="curve" smooth="yes"/>
      <point x="371" y="409"/>
      <point x="396" y="464"/>
      <point x="396" y="544" type="curve" smooth="yes"/>
      <point x="396" y="648"/>
      <point x="318" y="724"/>
      <point x="195" y="724" type="curve" smooth="yes"/>
      <point x="138" y="724"/>
      <point x="78" y="701"/>
      <point x="40" y="666" type="curve"/>
      <point x="40" y="628" type="line"/>
      <point x="74" y="670"/>
      <point x="135" y="696"/>
      <point x="195" y="696" type="curve" smooth="yes"/>
      <point x="299" y="696"/>
      <point x="364" y="632"/>
      <point x="364" y="543" type="curve" smooth="yes"/>
      <point x="364" y="469"/>
      <point x="338" y="420"/>
      <point x="281" y="369" type="curve" smooth="yes"/>
      <point x="205" y="301"/>
      <point x="179" y="239"/>
    </contour>
    <contour>
      <point x="175" y="0" type="line"/>
      <point x="215" y="0" type="line"/>
      <point x="215" y="40" type="line"/>
      <point x="175" y="40" type="line"/>
    </contour>
  </outline>
</glyph>
<glyph name="B" format="2">
  <advance width="500"/>
  <unicode hex="0042"/>
  <outline>
    <contour>
      <point x="80" y="0" type="line"/>
      <point x="245" y="0" type="line" smooth="yes"/>
      <point x="387" y="0"/>
      <point x="448" y="67"/>
      <point x="448" y="174" type="curve" smooth="yes"/>
      <point x="448" y="265"/>
      <point x="400" y="344"/>
      <point x="231" y="343" type="curve"/>
      <point x="239" y="333" type="line"/>
      <point x="380" y="332"/>
      <point x="424" y="412"/>
      <point x="424" y="495" type="curve" smooth="yes"/>
      <point x="424" y="597"/>
      <point x="360" y="658"/>
      <point x="227" y="658" type="curve" smooth="yes"/>
      <point x="80" y="658" type="line"/>
    </contour>
    <contour>
      <point x="112" y="350" type="line"/>
      <point x="112" y="629" type="line"/>
      <point x="227" y="629" type="line" smooth="yes"/>
      <point x="327" y="629"/>
      <point x="391" y="589"/>
      <point x="391" y="495" type="curve" smooth="yes"/>
      <point x="391" y="398"/>
      <point x="325" y="350"/>
      <point x="223" y="350" type="curve" smooth="yes"/>
    </contour>
    <contour>
      <point x="112" y="29" type="line"/>
      <point x="112" y="321" type="line"/>
      <point x="230" y="321" type="line" smooth="yes"/>
      <point x="351" y="321"/>
      <point x="415" y="273"/>
      <point x="415" y="174" type="curve" smooth="yes"/>
      <point x="415" y="75"/>
      <point x="354" y="29"/>
      <point x="245" y="29" type="curve" smooth="yes"/>
    </contour>
  </outline>
</glyph>
<glyph name="C" format="2">
  <advance width="664"/>
  <unicode hex="0043"/>
  <anchor x="398" y="650" name="top"/>
  <anchor x="394" y="16" name="bottom"/>
  <outline>
    <contour>
      <point x="400" y="-12" type="curve" smooth="yes"/>
      <point x="478" y="-12"/>
      <point x="546" y="6"/>
      <point x="612" y="47" type="curve"/>
      <point x="612" y="84" type="line"/>
      <point x="547" y="38"/>
      <point x="480" y="17"/>
      <point x="400" y="17" type="curve" smooth="yes"/>
      <point x="215" y="17"/>
      <point x="89" y="136"/>
      <point x="89" y="328" type="curve" smooth="yes"/>
      <point x="89" y="518"/>
      <point x="209" y="641"/>
      <point x="400" y="641" type="curve" smooth="yes"/>
      <point x="480" y="641"/>
      <point x="543" y="625"/>
      <point x="605" y="586" type="curve"/>
      <point x="605" y="621" type="line"/>
      <point x="542" y="655"/>
      <point x="480" y="670"/>
      <point x="400" y="670" type="curve" smooth="yes"/>
      <point x="189" y="670"/>
      <point x="56" y="535"/>
      <point x="56" y="328" type="curve" smooth="yes"/>
      <point x="56" y="119"/>
      <point x="195" y="-12"/>
    </contour>
  </outline>
</glyph>
<glyph name="D" format="2">
  <advance width="681"/>
  <unicode hex="0044"/>
  <anchor x="255" y="642" name="top"/>
  <outline>
    <contour>
      <point x="80" y="0" type="line"/>
      <point x="251" y="0" type="line" smooth="yes"/>
      <point x="480" y="0"/>
      <point x="625" y="133"/>
      <point x="625" y="337" type="curve" smooth="yes"/>
      <point x="625" y="531"/>
      <point x="482" y="658"/>
      <point x="259" y="658" type="curve" smooth="yes"/>
      <point x="80" y="658" type="line"/>
    </contour>
    <contour>
      <point x="112" y="29" type="line"/>
      <point x="112" y="629" type="line"/>
      <point x="259" y="629" type="line" smooth="yes"/>
      <point x="464" y="629"/>
      <point x="592" y="514"/>
      <point x="592" y="337" type="curve" smooth="yes"/>
      <point x="592" y="149"/>
      <point x="461" y="29"/>
      <point x="251" y="29" type="curve" smooth="yes"/>
    </contour>
  </outline>
</glyph>
<glyph name="E" format="2">
  <advance width="471"/>
  <unicode hex="0045"/>
  <anchor x="249" y="642" name="top"/>
  <anchor x="412" y="16" name="ogonek"/>
  <outline>
    <contour>
      <point x="80" y="0" type="line"/>
      <point x="415" y="0" type="line"/>
      <point x="415" y="29" type="line"/>
      <point x="112" y="29" type="line"/>
      <point x="112" y="319" type="line"/>
      <point x="387" y="319" type="line"/>
      <point x="387" y="348" type="line"/>
      <point x="112" y="348" type="line"/>
      <point x="112" y="629" type="line"/>
      <point x="403" y="629" type="line"/>
      <point x="403" y="658" type="line"/>
      <point x="80" y="658" type="line"/>
    </contour>
  </outline>
</glyph>
<glyph name="G" format="2">
  <advance width="688"/>
  <unicode hex="0047"/>
  <anchor x="391" y="650" name="top"/>
  <anchor x="386" y="8" name="bottom"/>
  <outline>
    <contour>
      <point x="388" y="-12" type="curve" smooth="yes"/>
      <point x="468" y="-12"/>
      <point x="554" y="8"/>
      <point x="624" y="40" type="curve"/>
      <point x="624" y="306" type="line"/>
      <point x="447" y="306" type="line"/>
      <point x="447" y="277" type="line"/>
      <point x="592" y="277" type="line"/>
      <point x="592" y="59" type="line"/>
      <point x="531" y="32"/>
      <point x="458" y="17"/>
      <point x="389" y="17" type="curve" smooth="yes"/>
      <point x="206" y="17"/>
      <point x="89" y="139"/>
      <point x="89" y="330" type="curve" smooth="yes"/>
      <point x="89" y="521"/>
      <point x="207" y="641"/>
      <point x="392" y="641" type="curve" smooth="yes"/>
      <point x="469" y="641"/>
      <point x="533" y="625"/>
      <point x="597" y="591" type="curve"/>
      <point x="597" y="626" type="line"/>
      <point x="531" y="656"/>
      <point x="464" y="670"/>
      <point x="392" y="670" type="curve" smooth="yes"/>
      <point x="188" y="670"/>
      <point x="56" y="536"/>
      <point x="56" y="330" type="curve" smooth="yes"/>
      <point x="56" y="124"/>
      <point x="189" y="-12"/>
    </contour>
  </outline>
</glyph>
<glyph name="H" format="2">
  <advance width="673"/>
  <unicode hex="0048"/>
  <anchor x="336" y="642" name="top"/>
  <outline>
    <contour>
      <point x="80" y="0" type="line"/>
      <point x="112" y="0" type="line"/>
      <point x="112" y="325" type="line"/>
      <point x="561" y="325" type="line"/>
      <point x="561" y="0" type="line"/>
      <point x="593" y="0" type="line"/>
      <point x="593" y="658" type="line"/>
      <point x="561" y="658" type="line"/>
      <point x="561" y="354" type="line"/>
      <point x="112" y="354" type="line"/>
      <point x="112" y="658" type="line"/>
      <point x="80" y="658" type="line"/>
    </contour>
  </outline>
</glyph>
<glyph name="J" format="2">
  <advance width="193"/>
  <unicode hex="004A"/>
  <anchor x="97" y="642" name="top"/>
  <outline>
    <contour>
      <point x="-16" y="-220" type="line" smooth="yes"/>
      <point x="64" y="-220"/>
      <point x="113.0" y="-168.0"/>
      <point x="113" y="-86" type="curve" smooth="yes"/>
      <point x="113" y="658" type="line"/>
      <point x="81" y="658" type="line"/>
      <point x="81" y="-86" type="line" smooth="yes"/>
      <point x="81.0" y="-152.0"/>
      <point x="44" y="-191"/>
      <point x="-16" y="-191" type="curve" smooth="yes"/>
      <point x="-24" y="-191" type="line"/>
      <point x="-24" y="-220" type="line"/>
    </contour>
  </outline>
</glyph>
<glyph name="K" format="2">
  <advance width="525"/>
  <unicode hex="004B"/>
  <anchor x="276" y="16" name="bottom"/>
  <outline>
    <contour>
      <point x="80" y="0" type="line"/>
      <point x="112" y="0" type="line"/>
      <point x="112" y="332" type="line"/>
      <point x="102" y="332" type="line"/>
      <point x="444" y="0" type="line"/>
      <point x="489" y="1" type="line"/>
      <point x="130" y="349" type="line"/>
      <point x="131" y="327" type="line"/>
      <point x="478" y="658" type="line"/>
      <point x="435" y="658" type="line"/>
      <point x="102" y="338" type="line"/>
      <point x="112" y="338" type="line"/>
      <point x="112" y="658" type="line"/>
      <point x="80" y="658" type="line"/>
    </contour>
  </outline>
</glyph>
<glyph name="L" format="2">
  <advance width="441"/>
  <unicode hex="004C"/>
  <anchor x="112" y="642" name="top"/>
  <anchor x="260" y="16" name="bottom"/>
  <anchor x="301" y="642" name="caron.vert"/>
  <outline>
    <contour>
      <point x="80" y="0" type="line"/>
      <point x="421" y="0" type="line"/>
      <point x="421" y="29" type="line"/>
      <point x="112" y="29" type="line"/>
      <point x="112" y="658" type="line"/>
      <point x="80" y="658" type="line"/>
    </contour>
  </outline>
</glyph>
<glyph name="Q" format="2">
  <advance width="778"/>
  <unicode hex="0051"/>
  <guideline x="723" y="272" angle="90" identifier="QrzvM0FwK7"/>
  <outline>
    <contour>
      <point x="690" y="-129" type="curve"/>
      <point x="690" y="-96" type="line"/>
      <point x="589" y="-86"/>
      <point x="516" y="-49"/>
      <point x="460" y="16" type="curve"/>
      <point x="424" y="4" type="line"/>
      <point x="476" y="-63"/>
      <point x="582" y="-120"/>
    </contour>
    <component base="O"/>
  </outline>
</glyph>
<glyph name="R" format="2">
  <advance width="503"/>
  <unicode hex="0052"/>
  <anchor x="225" y="642" name="top"/>
  <anchor x="267" y="16" name="bottom"/>
  <outline>
    <contour>
      <point x="433" y="0" type="line"/>
      <point x="467" y="0" type="line"/>
      <point x="375" y="238" type="line" smooth="yes"/>
      <point x="352" y="297"/>
      <point x="318" y="329"/>
      <point x="261" y="335" type="curve"/>
      <point x="259" y="322" type="line"/>
      <point x="358" y="332"/>
      <point x="413" y="402"/>
      <point x="413" y="491" type="curve" smooth="yes"/>
      <point x="413" y="594"/>
      <point x="340" y="658"/>
      <point x="225" y="658" type="curve" smooth="yes"/>
      <point x="80" y="658" type="line"/>
      <point x="80" y="0" type="line"/>
      <point x="112" y="0" type="line"/>
      <point x="112" y="318" type="line"/>
      <point x="216" y="318" type="line" smooth="yes"/>
      <point x="279" y="318"/>
      <point x="320" y="293"/>
      <point x="345" y="228" type="curve" smooth="yes"/>
    </contour>
    <contour>
      <point x="112" y="347" type="line"/>
      <point x="112" y="629" type="line"/>
      <point x="225" y="629" type="line" smooth="yes"/>
      <point x="319" y="629"/>
      <point x="380" y="576"/>
      <point x="380" y="490" type="curve" smooth="yes"/>
      <point x="380" y="401"/>
      <point x="325" y="347"/>
      <point x="231" y="347" type="curve" smooth="yes"/>
    </contour>
  </outline>
</glyph>
<glyph name="S" format="2">
  <advance width="492"/>
  <unicode hex="0053"/>
  <anchor x="254" y="650" name="top"/>
  <anchor x="246" y="16" name="bottom"/>
  <outline>
    <contour>
      <point x="242" y="-16" type="curve" smooth="yes"/>
      <point x="356" y="-16"/>
      <point x="432" y="53"/>
      <point x="432" y="156" type="curve" smooth="yes"/>
      <point x="432" y="252"/>
      <point x="383" y="301"/>
      <point x="262" y="351" type="curve" smooth="yes"/>
      <point x="245" y="358" type="line" smooth="yes"/>
      <point x="147" y="398"/>
      <point x="105" y="434"/>
      <point x="105" y="509" type="curve" smooth="yes"/>
      <point x="105" y="591"/>
      <point x="163" y="645"/>
      <point x="257" y="645" type="curve" smooth="yes"/>
      <point x="321" y="645"/>
      <point x="375" y="622"/>
      <point x="417" y="580" type="curve"/>
      <point x="417" y="623" type="line"/>
      <point x="372" y="656"/>
      <point x="318" y="674"/>
      <point x="257" y="674" type="curve" smooth="yes"/>
      <point x="145" y="674"/>
      <point x="74" y="608"/>
      <point x="74" y="509" type="curve" smooth="yes"/>
      <point x="74" y="418"/>
      <point x="123" y="374"/>
      <point x="237" y="327" type="curve" smooth="yes"/>
      <point x="254" y="320" type="line" smooth="yes"/>
      <point x="358" y="277"/>
      <point x="401" y="236"/>
      <point x="401" y="155" type="curve" smooth="yes"/>
      <point x="401" y="70"/>
      <point x="337" y="13"/>
      <point x="242" y="13" type="curve" smooth="yes"/>
      <point x="176" y="13"/>
      <point x="114" y="37"/>
      <point x="60" y="83" type="curve"/>
      <point x="60" y="42" type="line"/>
      <point x="112" y="4"/>
      <point x="174" y="-16"/>
    </contour>
  </outline>
</glyph>
<glyph name="T" format="2">
  <advance width="536"/>
  <unicode hex="0054"/>
  <anchor x="268" y="642" name="top"/>
  <anchor x="268" y="16" name="bottom"/>
  <outline>
    <contour>
      <point x="252" y="0" type="line"/>
      <point x="284" y="0" type="line"/>
      <point x="284" y="629" type="line"/>
      <point x="516" y="629" type="line"/>
      <point x="516" y="658" type="line"/>
      <point x="20" y="658" type="line"/>
      <point x="20" y="629" type="line"/>
      <point x="252" y="629" type="line"/>
    </contour>
  </outline>
</glyph>
<glyph name="bracketright" format="2">
  <advance width="317"/>
  <unicode hex="005D"/>
  <outline>
    <contour>
      <point x="40" y="-220" type="line"/>
      <point x="217" y="-220" type="line"/>
      <point x="217" y="724" type="line"/>
      <point x="40" y="724" type="line"/>
      <point x="40" y="696" type="line"/>
      <point x="185" y="696" type="line"/>
      <point x="185" y="-192" type="line"/>
      <point x="40" y="-192" type="line"/>
    </contour>
  </outline>
</glyph>
<glyph name="a" format="2">
  <advance width="433"/>
  <unicode hex="0061"/>
  <anchor x="208" y="446" name="top"/>
  <anchor x="429" y="0" name="ogonek"/>
  <outline>
    <contour>
      <point x="188" y="-10" type="curve" smooth="yes"/>
      <point x="249" y="-10"/>
      <point x="298" y="16"/>
      <point x="329" y="64" type="curve"/>
      <point x="333" y="0" type="line"/>
      <point x="361" y="0" type="line"/>
      <point x="361" y="327" type="line" smooth="yes"/>
      <point x="361" y="424"/>
      <point x="303" y="472"/>
      <point x="209" y="472" type="curve" smooth="yes"/>
      <point x="156" y="472"/>
      <point x="113" y="458"/>
      <point x="65" y="431" type="curve"/>
      <point x="65" y="394" type="line"/>
      <point x="112" y="428"/>
      <point x="154" y="442"/>
      <point x="209" y="442" type="curve" smooth="yes"/>
      <point x="284" y="442"/>
      <point x="329" y="407"/>
      <point x="329" y="327" type="curve" smooth="yes"/>
      <point x="329" y="284" type="line"/>
      <point x="217" y="272" type="line" smooth="yes"/>
      <point x="108" y="260"/>
      <point x="44" y="200"/>
      <point x="44" y="121" type="curve" smooth="yes"/>
      <point x="44" y="42"/>
      <point x="98" y="-10"/>
    </contour>
    <contour>
      <point x="188" y="18" type="curve" smooth="yes"/>
      <point x="118" y="18"/>
      <point x="76" y="59"/>
      <point x="76" y="121" type="curve" smooth="yes"/>
      <point x="76" y="187"/>
      <point x="127" y="233"/>
      <point x="221" y="243" type="curve" smooth="yes"/>
      <point x="329" y="255" type="line"/>
      <point x="329" y="109" type="line"/>
      <point x="305" y="56"/>
      <point x="254" y="18"/>
    </contour>
  </outline>
</glyph>
<glyph name="e" format="2">
  <advance width="508"/>
  <unicode hex="0065"/>
  <anchor x="258" y="446" name="top"/>
  <outline>
    <contour>
      <point x="276" y="-10" type="curve" smooth="yes"/>
      <point x="335" y="-10"/>
      <point x="390" y="10"/>
      <point x="446" y="51" type="curve"/>
      <point x="446" y="85" type="line"/>
      <point x="392" y="41"/>
      <point x="337" y="20"/>
      <point x="276" y="20" type="curve" smooth="yes"/>
      <point x="151" y="20"/>
      <point x="84" y="100"/>
      <point x="84" y="232" type="curve" smooth="yes"/>
      <point x="84" y="243" type="line" smooth="yes"/>
      <point x="84" y="363"/>
      <point x="156" y="444"/>
      <point x="258" y="444" type="curve" smooth="yes"/>
      <point x="362" y="444"/>
      <point x="424" y="375"/>
      <point x="424" y="261" type="curve"/>
      <point x="77" y="261" type="line"/>
      <point x="77" y="233" type="line"/>
      <point x="456" y="233" type="line"/>
      <point x="456" y="261" type="line" smooth="yes"/>
      <point x="456" y="392"/>
      <point x="381" y="472"/>
      <point x="258" y="472" type="curve" smooth="yes"/>
      <point x="134" y="472"/>
      <point x="52" y="375"/>
      <point x="52" y="232" type="curve" smooth="yes"/>
      <point x="52" y="82"/>
      <point x="130" y="-10"/>
    </contour>
  </outline>
</glyph>
<glyph name="f" format="2">
  <advance width="247"/>
  <unicode hex="0066"/>
  <outline>
    <contour>
      <point x="100" y="0" type="line"/>
      <point x="131" y="0" type="line"/>
      <point x="131" y="433" type="line"/>
      <point x="227" y="433" type="line"/>
      <point x="227" y="462" type="line"/>
      <point x="131" y="462" type="line"/>
      <point x="131" y="578" type="line" smooth="yes"/>
      <point x="131" y="661"/>
      <point x="171" y="704"/>
      <point x="234" y="704" type="curve" smooth="yes"/>
      <point x="268" y="704"/>
      <point x="299" y="695"/>
      <point x="327" y="678" type="curve"/>
      <point x="327" y="712" type="line"/>
      <point x="298" y="727"/>
      <point x="266" y="734"/>
      <point x="234" y="734" type="curve" smooth="yes"/>
      <point x="146" y="734"/>
      <point x="100" y="672"/>
      <point x="100" y="578" type="curve" smooth="yes"/>
      <point x="100" y="462" type="line"/>
      <point x="20" y="462" type="line"/>
      <point x="20" y="433" type="line"/>
      <point x="100" y="433" type="line"/>
    </contour>
  </outline>
</glyph>
<glyph name="g" format="2">
  <advance width="514"/>
  <unicode hex="0067"/>
  <anchor x="262" y="446" name="top"/>
  <outline>
    <contour>
      <point x="265" y="18" type="curve" smooth="yes"/>
      <point x="150" y="18"/>
      <point x="84" y="102"/>
      <point x="84" y="232" type="curve" smooth="yes"/>
      <point x="84" y="360"/>
      <point x="155" y="444"/>
      <point x="265" y="444" type="curve" smooth="yes"/>
      <point x="319" y="444"/>
      <point x="381" y="419"/>
      <point x="411" y="378" type="curve"/>
      <point x="411" y="112" type="line"/>
      <point x="385" y="56"/>
      <point x="332" y="18"/>
    </contour>
    <contour>
      <point x="248" y="-228" type="curve" smooth="yes"/>
      <point x="365" y="-228"/>
      <point x="442" y="-145"/>
      <point x="442" y="-21" type="curve" smooth="yes"/>
      <point x="442" y="462" type="line"/>
      <point x="420" y="462" type="line"/>
      <point x="411" y="416" type="line"/>
      <point x="377" y="450"/>
      <point x="318" y="472"/>
      <point x="265" y="472" type="curve" smooth="yes"/>
      <point x="146" y="472"/>
      <point x="52" y="391"/>
      <point x="52" y="231" type="curve" smooth="yes"/>
      <point x="52" y="71"/>
      <point x="141" y="-10"/>
      <point x="265" y="-10" type="curve" smooth="yes"/>
      <point x="323" y="-10"/>
      <point x="377" y="15"/>
      <point x="411" y="64" type="curve"/>
      <point x="411" y="-21" type="line" smooth="yes"/>
      <point x="411" y="-128"/>
      <point x="347" y="-198"/>
      <point x="248" y="-198" type="curve" smooth="yes"/>
      <point x="184" y="-198"/>
      <point x="118" y="-175"/>
      <point x="68" y="-143" type="curve"/>
      <point x="68" y="-180" type="line"/>
      <point x="122" y="-212"/>
      <point x="190" y="-228"/>
    </contour>
  </outline>
</glyph>
<glyph name="i" format="2">
  <advance width="190"/>
  <unicode hex="0069"/>
  <anchor x="95" y="446" name="top"/>
  <anchor x="110" y="16" name="ogonek"/>
  <outline>
    <contour>
      <point x="80" y="0" type="line"/>
      <point x="111" y="0" type="line"/>
      <point x="111" y="462" type="line"/>
      <point x="80" y="462" type="line"/>
    </contour>
    <contour>
      <point x="76" y="636" type="line"/>
      <point x="114" y="636" type="line"/>
      <point x="114" y="674" type="line"/>
      <point x="76" y="674" type="line"/>
    </contour>
  </outline>
</glyph>
<glyph name="j" format="2">
  <advance width="183"/>
  <unicode hex="006A"/>
  <anchor x="98" y="446" name="top"/>
  <outline>
    <contour>
      <point x="-24" y="-220" type="line" smooth="yes"/>
      <point x="56" y="-220"/>
      <point x="108.0" y="-162.0"/>
      <point x="108" y="-70" type="curve" smooth="yes"/>
      <point x="108" y="462" type="line"/>
      <point x="77" y="462" type="line"/>
      <point x="77" y="-70" type="line" smooth="yes"/>
      <point x="77.0" y="-143.0"/>
      <point x="38" y="-191"/>
      <point x="-24" y="-191" type="curve" smooth="yes"/>
      <point x="-32" y="-191" type="line"/>
      <point x="-32" y="-220" type="line"/>
    </contour>
    <contour>
      <point x="73" y="636" type="line"/>
      <point x="111" y="636" type="line"/>
      <point x="111" y="674" type="line"/>
      <point x="73" y="674" type="line"/>
    </contour>
  </outline>
</glyph>
<glyph name="k" format="2">
  <advance width="433"/>
  <unicode hex="006B"/>
  <anchor x="230" y="16" name="bottom"/>
  <outline>
    <contour>
      <point x="76" y="0" type="line"/>
      <point x="107" y="0" type="line"/>
      <point x="107" y="237" type="line"/>
      <point x="97" y="237" type="line"/>
      <point x="361" y="0" type="line"/>
      <point x="407" y="0" type="line"/>
      <point x="126" y="253" type="line"/>
      <point x="126" y="231" type="line"/>
      <point x="378" y="462" type="line"/>
      <point x="337" y="462" type="line"/>
      <point x="97" y="243" type="line"/>
      <point x="107" y="243" type="line"/>
      <point x="107" y="724" type="line"/>
      <point x="76" y="724" type="line"/>
    </contour>
  </outline>
</glyph>
<glyph name="p" format="2">
  <advance width="503"/>
  <unicode hex="0070"/>
  <outline>
    <contour>
      <point x="76" y="-220" type="line"/>
      <point x="107" y="-220" type="line"/>
      <point x="107" y="32" type="line"/>
      <point x="144" y="5"/>
      <point x="188" y="-10"/>
      <point x="239" y="-10" type="curve" smooth="yes"/>
      <point x="361" y="-10"/>
      <point x="451" y="84"/>
      <point x="451" y="236" type="curve" smooth="yes"/>
      <point x="451" y="382"/>
      <point x="369" y="472"/>
      <point x="246" y="472" type="curve"/>
      <point x="192" y="472"/>
      <point x="135" y="445"/>
      <point x="107" y="404" type="curve"/>
      <point x="107" y="462" type="line"/>
      <point x="76" y="462" type="line"/>
    </contour>
    <contour>
      <point x="239" y="18" type="curve" smooth="yes"/>
      <point x="187" y="18"/>
      <point x="145" y="33"/>
      <point x="107" y="63" type="curve"/>
      <point x="107" y="368" type="line"/>
      <point x="134" y="415"/>
      <point x="192" y="444"/>
      <point x="246" y="444" type="curve"/>
      <point x="350" y="444"/>
      <point x="419" y="365"/>
      <point x="419" y="235" type="curve" smooth="yes"/>
      <point x="419" y="101"/>
      <point x="342" y="18"/>
    </contour>
  </outline>
</glyph>
<glyph name="s" format="2">
  <advance width="369"/>
  <unicode hex="0073"/>
  <anchor x="185" y="446" name="top"/>
  <anchor x="185" y="16" name="bottom"/>
  <outline>
    <contour>
      <point x="183" y="-10" type="curve" smooth="yes"/>
      <point x="270" y="-10"/>
      <point x="325" y="41"/>
      <point x="325" y="118" type="curve" smooth="yes"/>
      <point x="325" y="188"/>
      <point x="283" y="227"/>
      <point x="191" y="256" type="curve" smooth="yes"/>
      <point x="175" y="261" type="line" smooth="yes"/>
      <point x="110" y="281"/>
      <point x="81" y="312"/>
      <point x="81" y="356" type="curve" smooth="yes"/>
      <point x="81" y="411"/>
      <point x="120" y="444"/>
      <point x="185" y="444" type="curve" smooth="yes"/>
      <point x="233" y="444"/>
      <point x="276" y="432"/>
      <point x="315" y="404" type="curve"/>
      <point x="315" y="440" type="line"/>
      <point x="274" y="463"/>
      <point x="232" y="473"/>
      <point x="185" y="473" type="curve" smooth="yes"/>
      <point x="101" y="473"/>
      <point x="49" y="428"/>
      <point x="49" y="355" type="curve" smooth="yes"/>
      <point x="49" y="292"/>
      <point x="87" y="256"/>
      <point x="165" y="231" type="curve" smooth="yes"/>
      <point x="181" y="226" type="line" smooth="yes"/>
      <point x="255" y="203"/>
      <point x="293" y="169"/>
      <point x="293" y="117" type="curve" smooth="yes"/>
      <point x="293" y="56"/>
      <point x="251" y="19"/>
      <point x="183" y="19" type="curve" smooth="yes"/>
      <point x="130" y="19"/>
      <point x="85" y="35"/>
      <point x="44" y="67" type="curve"/>
      <point x="44" y="31" type="line"/>
      <point x="86" y="4"/>
      <point x="131" y="-10"/>
    </contour>
  </outline>
</glyph>
<glyph name="t" format="2">
  <advance width="286"/>
  <unicode hex="0074"/>
  <anchor x="177" y="16" name="bottom"/>
  <anchor x="246" y="708" name="caron.vert"/>
  <outline>
    <contour>
      <point x="180" y="-9" type="curve" smooth="yes"/>
      <point x="208" y="-9"/>
      <point x="232" y="-3"/>
      <point x="254" y="13" type="curve"/>
      <point x="254" y="47" type="line"/>
      <point x="232" y="29"/>
      <point x="208" y="21"/>
      <point x="180" y="21" type="curve" smooth="yes"/>
      <point x="145" y="21"/>
      <point x="123" y="44"/>
      <point x="123" y="81" type="curve" smooth="yes"/>
      <point x="123" y="433" type="line"/>
      <point x="254" y="433" type="line"/>
      <point x="254" y="462" type="line"/>
      <point x="123" y="462" type="line"/>
      <point x="123" y="624" type="line"/>
      <point x="92" y="624" type="line"/>
      <point x="92" y="462" type="line"/>
      <point x="16" y="462" type="line"/>
      <point x="16" y="433" type="line"/>
      <point x="92" y="433" type="line"/>
      <point x="92" y="81" type="line" smooth="yes"/>
      <point x="92" y="27"/>
      <point x="127" y="-9"/>
    </contour>
  </outline>
</glyph>
<glyph name="v" format="2">
  <advance width="447"/>
  <unicode hex="0076"/>
  <outline>
    <contour>
      <point x="211" y="0" type="line"/>
      <point x="236" y="0" type="line"/>
      <point x="425" y="462" type="line"/>
      <point x="394" y="462" type="line"/>
      <point x="235" y="71" type="line"/>
      <point x="215" y="21" type="line"/>
      <point x="235" y="21" type="line"/>
      <point x="215" y="71" type="line"/>
      <point x="56" y="462" type="line"/>
      <point x="22" y="462" type="line"/>
    </contour>
  </outline>
</glyph>
<glyph name="x" format="2">
  <advance width="426"/>
  <unicode hex="0078"/>
  <outline>
    <contour>
      <point x="26" y="0" type="line"/>
      <point x="60" y="0" type="line"/>
      <point x="188" y="184" type="line"/>
      <point x="217" y="224" type="line"/>
      <point x="225" y="234" type="line"/>
      <point x="384" y="462" type="line"/>
      <point x="346" y="462" type="line"/>
      <point x="237" y="301" type="line"/>
      <point x="207" y="259" type="line"/>
      <point x="199" y="247" type="line"/>
    </contour>
    <contour>
      <point x="362" y="0" type="line"/>
      <point x="400" y="0" type="line"/>
      <point x="225" y="247" type="line"/>
      <point x="216" y="259" type="line"/>
      <point x="186" y="301" type="line"/>
      <point x="77" y="462" type="line"/>
      <point x="38" y="462" type="line"/>
      <point x="197" y="234" type="line"/>
      <point x="205" y="224" type="line"/>
      <point x="234" y="184" type="line"/>
    </contour>
  </outline>
</glyph>
<glyph name="y" format="2">
  <advance width="443"/>
  <unicode hex="0079"/>
  <anchor x="221" y="446" name="top"/>
  <outline>
    <contour>
      <point x="-2" y="-220" type="line" smooth="yes"/>
      <point x="90" y="-220"/>
      <point x="164" y="-166"/>
      <point x="232" y="-1" type="curve" smooth="yes"/>
      <point x="421" y="462" type="line"/>
      <point x="390" y="462" type="line"/>
      <point x="231" y="71" type="line"/>
      <point x="211" y="20" type="line"/>
      <point x="230" y="20" type="line"/>
      <point x="210" y="71" type="line"/>
      <point x="51" y="462" type="line"/>
      <point x="18" y="462" type="line"/>
      <point x="198" y="20" type="line"/>
      <point x="214" y="-18" type="line"/>
      <point x="209" y="13" type="line"/>
      <point x="140" y="-144"/>
      <point x="79" y="-191"/>
      <point x="-2" y="-191" type="curve" smooth="yes"/>
      <point x="-10" y="-191" type="line"/>
      <point x="-10" y="-220" type="line"/>
    </contour>
  </outline>
</glyph>
<glyph name="braceleft" format="2">
  <advance width="431"/>
  <unicode hex="007B"/>
  <outline>
    <contour>
      <point x="360" y="-220" type="curve" smooth="yes"/>
      <point x="391" y="-220" type="line"/>
      <point x="391" y="-192" type="line"/>
      <point x="359" y="-192" type="line" smooth="yes"/>
      <point x="260" y="-192"/>
      <point x="205" y="-141"/>
      <point x="212" y="-34" type="curve" smooth="yes"/>
      <point x="220" y="89" type="line" smooth="yes"/>
      <point x="226" y="175"/>
      <point x="183" y="228"/>
      <point x="107" y="253" type="curve"/>
      <point x="107" y="254" type="line"/>
      <point x="183" y="274"/>
      <point x="226" y="326"/>
      <point x="220" y="416" type="curve" smooth="yes"/>
      <point x="212" y="539" type="line" smooth="yes"/>
      <point x="205" y="646"/>
      <point x="260" y="697"/>
      <point x="359" y="697" type="curve" smooth="yes"/>
      <point x="391" y="697" type="line"/>
      <point x="391" y="725" type="line"/>
      <point x="360" y="725" type="line" smooth="yes"/>
      <point x="238" y="725"/>
      <point x="172" y="665"/>
      <point x="180" y="539" type="curve" smooth="yes"/>
      <point x="188" y="416" type="line" smooth="yes"/>
      <point x="193" y="332"/>
      <point x="147" y="285"/>
      <point x="60" y="272" type="curve"/>
      <point x="60" y="233" type="line"/>
      <point x="147" y="220"/>
      <point x="193" y="173"/>
      <point x="188" y="89" type="curve" smooth="yes"/>
      <point x="180" y="-34" type="line" smooth="yes"/>
      <point x="172" y="-160"/>
      <point x="238" y="-220"/>
    </contour>
  </outline>
</glyph>
<glyph name="braceright" format="2">
  <advance width="431"/>
  <unicode hex="007D"/>
  <outline>
    <contour>
      <point x="40" y="-220" type="line"/>
      <point x="71" y="-220" type="line" smooth="yes"/>
      <point x="193" y="-220"/>
      <point x="259" y="-160"/>
      <point x="251" y="-34" type="curve" smooth="yes"/>
      <point x="243" y="88" type="line" smooth="yes"/>
      <point x="238" y="173"/>
      <point x="284" y="220"/>
      <point x="371" y="233" type="curve"/>
      <point x="371" y="271" type="line"/>
      <point x="284" y="284"/>
      <point x="238" y="331"/>
      <point x="243" y="416" type="curve" smooth="yes"/>
      <point x="251" y="538" type="line" smooth="yes"/>
      <point x="259" y="664"/>
      <point x="193" y="724"/>
      <point x="71" y="724" type="curve" smooth="yes"/>
      <point x="40" y="724" type="line"/>
      <point x="40" y="696" type="line"/>
      <point x="72" y="696" type="line" smooth="yes"/>
      <point x="171" y="696"/>
      <point x="226" y="645"/>
      <point x="219" y="538" type="curve" smooth="yes"/>
      <point x="211" y="416" type="line" smooth="yes"/>
      <point x="205" y="325"/>
      <point x="248" y="273"/>
      <point x="324" y="253" type="curve"/>
      <point x="324" y="252" type="line"/>
      <point x="248" y="228"/>
      <point x="205" y="175"/>
      <point x="211" y="88" type="curve" smooth="yes"/>
      <point x="219" y="-34" type="line" smooth="yes"/>
      <point x="226" y="-141"/>
      <point x="171" y="-192"/>
      <point x="72" y="-192" type="curve" smooth="yes"/>
      <point x="40" y="-192" type="line"/>
    </contour>
  </outline>
</glyph>
<glyph name="exclamdown" format="2">
  <advance width="184"/>
  <unicode hex="00A1"/>
  <guideline x="349" y="347" angle="0" identifier="zBNlTRNX3u"/>
  <outline>
    <contour>
      <point x="77" y="-236" type="line" smooth="yes"/>
      <point x="107" y="-236" type="line" smooth="yes"/>
      <point x="107" y="298" type="line" smooth="yes"/>
      <point x="77" y="298" type="line" smooth="yes"/>
    </contour>
    <contour>
      <point x="72" y="422" type="line" smooth="yes"/>
      <point x="112" y="422" type="line" smooth="yes"/>
      <point x="112" y="462" type="line" smooth="yes"/>
      <point x="72" y="462" type="line" smooth="yes"/>
    </contour>
  </outline>
</glyph>
<glyph name="cent" format="2">
  <advance width="470"/>
  <unicode hex="00A2"/>
  <outline>
    <contour>
      <point x="251" y="-98" type="line"/>
      <point x="279" y="-98" type="line"/>
      <point x="279" y="562" type="line"/>
      <point x="251" y="562" type="line"/>
    </contour>
    <component base="c"/>
  </outline>
</glyph>
<glyph name="sterling" format="2">
  <advance width="512"/>
  <unicode hex="00A3"/>
  <outline>
    <contour>
      <point x="60" y="0" type="line"/>
      <point x="444" y="0" type="line"/>
      <point x="444" y="32" type="line"/>
      <point x="83" y="32" type="line"/>
      <point x="91" y="20" type="line"/>
      <point x="183" y="80"/>
      <point x="216" y="182"/>
      <point x="188" y="309" type="curve" smooth="yes"/>
      <point x="165" y="413" type="line" smooth="yes"/>
      <point x="135" y="551"/>
      <point x="189" y="642"/>
      <point x="300" y="642" type="curve" smooth="yes"/>
      <point x="356" y="642"/>
      <point x="410" y="630"/>
      <point x="460" y="602" type="curve"/>
      <point x="460" y="638" type="line"/>
      <point x="410" y="660"/>
      <point x="355" y="672"/>
      <point x="300" y="672" type="curve" smooth="yes"/>
      <point x="165" y="672"/>
      <point x="98" y="567"/>
      <point x="133" y="410" type="curve" smooth="yes"/>
      <point x="156" y="306" type="line" smooth="yes"/>
      <point x="186" y="169"/>
      <point x="144" y="82"/>
      <point x="60" y="29" type="curve"/>
    </contour>
    <contour>
      <point x="52" y="323" type="line"/>
      <point x="371" y="323" type="line"/>
      <point x="371" y="352" type="line"/>
      <point x="52" y="352" type="line"/>
    </contour>
  </outline>
</glyph>
<glyph name="currency" format="2">
  <advance width="614"/>
  <unicode hex="00A4"/>
  <outline>
    <contour>
      <point x="71" y="49" type="line"/>
      <point x="190" y="154" type="line"/>
      <point x="221" y="125"/>
      <point x="262" y="107"/>
      <point x="307" y="107" type="curve" smooth="yes"/>
      <point x="343" y="107"/>
      <point x="377" y="119"/>
      <point x="405" y="139" type="curve"/>
      <point x="488" y="42" type="line"/>
      <point x="511" y="62" type="line"/>
      <point x="428" y="159" type="line"/>
      <point x="459" y="190"/>
      <point x="478" y="233"/>
      <point x="478" y="281" type="curve" smooth="yes"/>
      <point x="478" y="320"/>
      <point x="465" y="356"/>
      <point x="443" y="385" type="curve"/>
      <point x="562" y="490" type="line"/>
      <point x="543" y="512" type="line"/>
      <point x="424" y="407" type="line"/>
      <point x="393" y="436"/>
      <point x="352" y="454"/>
      <point x="307" y="454" type="curve" smooth="yes"/>
      <point x="271" y="454"/>
      <point x="237" y="442"/>
      <point x="209" y="422" type="curve"/>
      <point x="126" y="519" type="line"/>
      <point x="103" y="499" type="line"/>
      <point x="186" y="402" type="line"/>
      <point x="155" y="371"/>
      <point x="136" y="328"/>
      <point x="136" y="281" type="curve" smooth="yes"/>
      <point x="136" y="242"/>
      <point x="149" y="205"/>
      <point x="171" y="176" type="curve"/>
      <point x="52" y="71" type="line"/>
    </contour>
    <contour>
      <point x="307" y="135" type="curve" smooth="yes"/>
      <point x="228" y="135"/>
      <point x="165" y="201"/>
      <point x="165" y="281" type="curve" smooth="yes"/>
      <point x="165" y="361"/>
      <point x="228" y="426"/>
      <point x="307" y="426" type="curve" smooth="yes"/>
      <point x="386" y="426"/>
      <point x="449" y="361"/>
      <point x="449" y="281" type="curve" smooth="yes"/>
      <point x="449" y="201"/>
      <point x="386" y="135"/>
    </contour>
  </outline>
</glyph>
<glyph name="yen" format="2">
  <advance width="542"/>
  <unicode hex="00A5"/>
  <outline>
    <contour>
      <point x="140" y="147" type="line"/>
      <point x="396" y="147" type="line"/>
      <point x="396" y="176" type="line"/>
      <point x="140" y="176" type="line"/>
    </contour>
    <contour>
      <point x="140" y="239" type="line"/>
      <point x="396" y="239" type="line"/>
      <point x="396" y="268" type="line"/>
      <point x="140" y="268" type="line"/>
    </contour>
    <component base="Y"/>
  </outline>
</glyph>
<glyph name="brokenbar" format="2">
  <advance width="190"/>
  <unicode hex="00A6"/>
  <outline>
    <contour>
      <point x="80" y="316" type="line"/>
      <point x="110" y="316" type="line"/>
      <point x="110" y="724" type="line"/>
      <point x="80" y="724" type="line"/>
    </contour>
    <contour>
      <point x="80" y="-220" type="line"/>
      <point x="108" y="-220" type="line"/>
      <point x="108" y="188" type="line"/>
      <point x="80" y="188" type="line"/>
    </contour>
  </outline>
</glyph>
<glyph name="section" format="2">
  <advance width="402"/>
  <unicode hex="00A7"/>
  <outline>
    <contour>
      <point x="192" y="-10" type="curve" smooth="yes"/>
      <point x="274" y="-10"/>
      <point x="326" y="47"/>
      <point x="326" y="116" type="curve" smooth="yes"/>
      <point x="326" y="183"/>
      <point x="293" y="231"/>
      <point x="206" y="260" type="curve" smooth="yes"/>
      <point x="191" y="265" type="line" smooth="yes"/>
      <point x="130" y="286"/>
      <point x="101" y="318"/>
      <point x="101" y="365" type="curve" smooth="yes"/>
      <point x="101" y="406"/>
      <point x="130" y="435"/>
      <point x="165" y="448" type="curve"/>
      <point x="143" y="467" type="line"/>
      <point x="103" y="448"/>
      <point x="72" y="412"/>
      <point x="72" y="364" type="curve" smooth="yes"/>
      <point x="72" y="302"/>
      <point x="108" y="260"/>
      <point x="183" y="235" type="curve" smooth="yes"/>
      <point x="198" y="230" type="line" smooth="yes"/>
      <point x="270" y="206"/>
      <point x="297" y="168"/>
      <point x="297" y="115" type="curve" smooth="yes"/>
      <point x="297" y="56"/>
      <point x="250" y="19"/>
      <point x="192" y="19" type="curve" smooth="yes"/>
      <point x="141" y="19"/>
      <point x="99" y="36"/>
      <point x="60" y="70" type="curve"/>
      <point x="60" y="32" type="line"/>
      <point x="100" y="4"/>
      <point x="142" y="-10"/>
    </contour>
    <contour>
      <point x="342" y="309" type="curve" smooth="yes"/>
      <point x="342" y="373"/>
      <point x="301" y="418"/>
      <point x="214" y="447" type="curve" smooth="yes"/>
      <point x="199" y="452" type="line" smooth="yes"/>
      <point x="138" y="473"/>
      <point x="116" y="505"/>
      <point x="116" y="545" type="curve" smooth="yes"/>
      <point x="116" y="603"/>
      <point x="161" y="639"/>
      <point x="217" y="639" type="curve" smooth="yes"/>
      <point x="262" y="639"/>
      <point x="302" y="626"/>
      <point x="339" y="598" type="curve"/>
      <point x="339" y="634" type="line"/>
      <point x="300" y="658"/>
      <point x="261" y="668"/>
      <point x="217" y="668" type="curve" smooth="yes"/>
      <point x="137" y="668"/>
      <point x="87" y="612"/>
      <point x="87" y="544" type="curve" smooth="yes"/>
      <point x="87" y="489"/>
      <point x="116" y="447"/>
      <point x="191" y="422" type="curve" smooth="yes"/>
      <point x="206" y="417" type="line" smooth="yes"/>
      <point x="278" y="393"/>
      <point x="313" y="358"/>
      <point x="313" y="309" type="curve" smooth="yes"/>
      <point x="313" y="261"/>
      <point x="295" y="243"/>
      <point x="255" y="223" type="curve"/>
      <point x="281" y="203" type="line"/>
      <point x="321" y="228"/>
      <point x="342" y="255"/>
    </contour>
  </outline>
</glyph>
<glyph name="copyright" format="2">
  <advance width="648"/>
  <unicode hex="00A9"/>
  <outline>
    <contour>
      <point x="324" y="132" type="curve" smooth="yes"/>
      <point x="472" y="132"/>
      <point x="596" y="254"/>
      <point x="596" y="403" type="curve" smooth="yes"/>
      <point x="596" y="553"/>
      <point x="472" y="676"/>
      <point x="324" y="676" type="curve" smooth="yes"/>
      <point x="173" y="676"/>
      <point x="52" y="553"/>
      <point x="52" y="402" type="curve" smooth="yes"/>
      <point x="52" y="253"/>
      <point x="173" y="132"/>
    </contour>
    <contour>
      <point x="324" y="160" type="curve" smooth="yes"/>
      <point x="188" y="160"/>
      <point x="81" y="268"/>
      <point x="81" y="403" type="curve" smooth="yes"/>
      <point x="81" y="539"/>
      <point x="188" y="648"/>
      <point x="324" y="648" type="curve" smooth="yes"/>
      <point x="457" y="648"/>
      <point x="567" y="539"/>
      <point x="567" y="402" type="curve" smooth="yes"/>
      <point x="567" y="268"/>
      <point x="457" y="160"/>
    </contour>
    <contour>
      <point x="326" y="231" type="curve" smooth="yes"/>
      <point x="357" y="231"/>
      <point x="403" y="243"/>
      <point x="435" y="262" type="curve"/>
      <point x="435" y="293" type="line"/>
      <point x="406" y="275"/>
      <point x="361" y="260"/>
      <point x="326" y="260" type="curve" smooth="yes"/>
      <point x="246" y="260"/>
      <point x="195" y="326"/>
      <point x="195" y="405" type="curve" smooth="yes"/>
      <point x="195" y="485"/>
      <point x="245" y="552"/>
      <point x="325" y="552" type="curve" smooth="yes"/>
      <point x="361" y="552"/>
      <point x="404" y="536"/>
      <point x="430" y="516" type="curve"/>
      <point x="430" y="550" type="line"/>
      <point x="399" y="569"/>
      <point x="355" y="581"/>
      <point x="325" y="581" type="curve" smooth="yes"/>
      <point x="237" y="581"/>
      <point x="164" y="511"/>
      <point x="164" y="404" type="curve" smooth="yes"/>
      <point x="164" y="299"/>
      <point x="237" y="231"/>
    </contour>
  </outline>
</glyph>
<glyph name="ordfeminine" format="2">
  <advance width="370"/>
  <unicode hex="00AA"/>
  <outline>
    <contour>
      <point x="60" y="256" type="line"/>
      <point x="302" y="256" type="line"/>
      <point x="302" y="284" type="line"/>
      <point x="60" y="284" type="line"/>
    </contour>
    <component base="a.sinf" xOffset="21" yOffset="530"/>
  </outline>
</glyph>
<glyph name="guillemotleft" format="2">
  <advance width="411"/>
  <unicode hex="00AB"/>
  <outline>
    <contour>
      <point x="195" y="71" type="line"/>
      <point x="235" y="71" type="line"/>
      <point x="81" y="226" type="line" smooth="yes"/>
      <point x="235" y="382" type="line"/>
      <point x="195" y="382" type="line"/>
      <point x="40" y="226" type="line"/>
    </contour>
    <contour>
      <point x="331" y="71" type="line"/>
      <point x="371" y="71" type="line"/>
      <point x="217" y="226" type="line" smooth="yes"/>
      <point x="371" y="382" type="line"/>
      <point x="331" y="382" type="line"/>
      <point x="176" y="226" type="line"/>
    </contour>
  </outline>
</glyph>
<glyph name="logicalnot" format="2">
  <advance width="392"/>
  <unicode hex="00AC"/>
  <outline>
    <contour>
      <point x="306" y="191" type="line"/>
      <point x="336" y="191" type="line"/>
      <point x="336" y="306" type="line"/>
      <point x="40" y="306" type="line"/>
      <point x="40" y="278" type="line"/>
      <point x="306" y="278" type="line"/>
    </contour>
  </outline>
</glyph>
<glyph name="registered" format="2">
  <advance width="648"/>
  <unicode hex="00AE"/>
  <outline>
    <contour>
      <point x="324" y="132" type="curve" smooth="yes"/>
      <point x="472" y="132"/>
      <point x="596" y="254"/>
      <point x="596" y="403" type="curve" smooth="yes"/>
      <point x="596" y="553"/>
      <point x="472" y="676"/>
      <point x="324" y="676" type="curve" smooth="yes"/>
      <point x="173" y="676"/>
      <point x="52" y="553"/>
      <point x="52" y="402" type="curve" smooth="yes"/>
      <point x="52" y="253"/>
      <point x="173" y="132"/>
    </contour>
    <contour>
      <point x="324" y="160" type="curve" smooth="yes"/>
      <point x="188" y="160"/>
      <point x="81" y="268"/>
      <point x="81" y="403" type="curve" smooth="yes"/>
      <point x="81" y="539"/>
      <point x="188" y="648"/>
      <point x="324" y="648" type="curve" smooth="yes"/>
      <point x="457" y="648"/>
      <point x="567" y="539"/>
      <point x="567" y="402" type="curve" smooth="yes"/>
      <point x="567" y="268"/>
      <point x="457" y="160"/>
    </contour>
    <contour>
      <point x="239" y="231" type="line"/>
      <point x="269" y="231" type="line"/>
      <point x="269" y="392" type="line"/>
      <point x="287" y="392" type="line" smooth="yes"/>
      <point x="318" y="392"/>
      <point x="338" y="378"/>
      <point x="355" y="347" type="curve"/>
      <point x="427" y="231" type="line"/>
      <point x="462" y="231" type="line"/>
      <point x="386" y="353" type="line" smooth="yes"/>
      <point x="369" y="380"/>
      <point x="353" y="395"/>
      <point x="333" y="401" type="curve"/>
      <point x="333" y="398" type="line"/>
      <point x="389" y="402"/>
      <point x="420" y="442"/>
      <point x="420" y="489" type="curve" smooth="yes"/>
      <point x="420" y="545"/>
      <point x="377" y="581"/>
      <point x="316" y="581" type="curve" smooth="yes"/>
      <point x="239" y="581" type="line"/>
    </contour>
    <contour>
      <point x="269" y="419" type="line"/>
      <point x="269" y="554" type="line"/>
      <point x="316" y="554" type="line" smooth="yes"/>
      <point x="361" y="554"/>
      <point x="390" y="528"/>
      <point x="390" y="488" type="curve" smooth="yes"/>
      <point x="390" y="446"/>
      <point x="361" y="419"/>
      <point x="316" y="419" type="curve" smooth="yes"/>
    </contour>
  </outline>
</glyph>
<glyph name="degree" format="2">
  <advance width="328"/>
  <unicode hex="00B0"/>
  <outline>
    <contour>
      <point x="164" y="496" type="curve" smooth="yes"/>
      <point x="231" y="496"/>
      <point x="276" y="549"/>
      <point x="276" y="612" type="curve" smooth="yes"/>
      <point x="276" y="675"/>
      <point x="231" y="728"/>
      <point x="164" y="728" type="curve" smooth="yes"/>
      <point x="97" y="728"/>
      <point x="52" y="675"/>
      <point x="52" y="612" type="curve" smooth="yes"/>
      <point x="52" y="549"/>
      <point x="97" y="496"/>
    </contour>
    <contour>
      <point x="164" y="523" type="curve" smooth="yes"/>
      <point x="119" y="523"/>
      <point x="80" y="559"/>
      <point x="80" y="612" type="curve" smooth="yes"/>
      <point x="80" y="665"/>
      <point x="119" y="701"/>
      <point x="164" y="701" type="curve" smooth="yes"/>
      <point x="209" y="701"/>
      <point x="248" y="665"/>
      <point x="248" y="612" type="curve" smooth="yes"/>
      <point x="248" y="559"/>
      <point x="209" y="523"/>
    </contour>
  </outline>
</glyph>
<glyph name="plusminus" format="2">
  <advance width="568"/>
  <unicode hex="00B1"/>
  <outline>
    <contour>
      <point x="60" y="-27" type="line"/>
      <point x="488" y="-27" type="line"/>
      <point x="488" y="1" type="line"/>
      <point x="60" y="1" type="line"/>
    </contour>
    <component base="plus" xOffset="20"/>
  </outline>
</glyph>
<glyph name="paragraph" format="2">
  <advance width="368"/>
  <unicode hex="00B6"/>
  <outline>
    <contour>
      <point x="127" y="0" type="line"/>
      <point x="159" y="0" type="line"/>
      <point x="159" y="629" type="line"/>
      <point x="256" y="629" type="line"/>
      <point x="256" y="0" type="line"/>
      <point x="288" y="0" type="line"/>
      <point x="288" y="658" type="line"/>
      <point x="136" y="658" type="line" smooth="yes"/>
      <point x="75" y="658"/>
      <point x="36" y="624"/>
      <point x="36" y="571" type="curve" smooth="yes"/>
      <point x="36" y="519"/>
      <point x="71" y="486"/>
      <point x="127" y="486" type="curve"/>
    </contour>
  </outline>
</glyph>
<glyph name="ordmasculine" format="2">
  <advance width="479"/>
  <unicode hex="00BA"/>
  <outline>
    <contour>
      <point x="68" y="256" type="line"/>
      <point x="412" y="256" type="line"/>
      <point x="412" y="284" type="line"/>
      <point x="68" y="284" type="line"/>
    </contour>
    <component base="o.sinf" xOffset="24" yOffset="532"/>
  </outline>
</glyph>
<glyph name="guillemotright" format="2">
  <advance width="411"/>
  <unicode hex="00BB"/>
  <outline>
    <contour>
      <point x="40" y="71" type="line"/>
      <point x="80" y="71" type="line"/>
      <point x="235" y="226" type="line"/>
      <point x="80" y="382" type="line"/>
      <point x="40" y="382" type="line"/>
      <point x="194" y="226" type="line" smooth="yes"/>
    </contour>
    <contour>
      <point x="176" y="71" type="line"/>
      <point x="216" y="71" type="line"/>
      <point x="371" y="226" type="line"/>
      <point x="216" y="382" type="line"/>
      <point x="176" y="382" type="line"/>
      <point x="330" y="226" type="line" smooth="yes"/>
    </contour>
  </outline>
</glyph>
<glyph name="questiondown" format="2">
  <advance width="436"/>
  <unicode hex="00BF"/>
  <outline>
    <contour>
      <point x="221" y="422" type="line"/>
      <point x="261" y="422" type="line"/>
      <point x="261" y="462" type="line"/>
      <point x="221" y="462" type="line"/>
    </contour>
    <contour>
      <point x="241" y="-234" type="curve" smooth="yes"/>
      <point x="298" y="-234"/>
      <point x="358" y="-212"/>
      <point x="396" y="-179" type="curve"/>
      <point x="396" y="-141" type="line"/>
      <point x="362" y="-181"/>
      <point x="301" y="-206"/>
      <point x="241" y="-206" type="curve" smooth="yes"/>
      <point x="137" y="-206"/>
      <point x="72" y="-147"/>
      <point x="72" y="-49" type="curve" smooth="yes"/>
      <point x="72" y="8"/>
      <point x="98" y="55"/>
      <point x="155" y="103" type="curve" smooth="yes"/>
      <point x="231" y="168"/>
      <point x="257" y="227"/>
      <point x="257" y="298" type="curve"/>
      <point x="225" y="298" type="line"/>
      <point x="225" y="224"/>
      <point x="196" y="174"/>
      <point x="135" y="124" type="curve" smooth="yes"/>
      <point x="65" y="66"/>
      <point x="40" y="13"/>
      <point x="40" y="-50" type="curve" smooth="yes"/>
      <point x="40" y="-162"/>
      <point x="118" y="-234"/>
    </contour>
  </outline>
</glyph>
<glyph name="AE" format="2">
  <advance width="801"/>
  <unicode hex="00C6"/>
  <anchor x="516" y="642" name="top"/>
  <outline>
    <contour>
      <point x="12.0" y="0.0" type="line"/>
      <point x="46.0" y="0.0" type="line"/>
      <point x="186.0" y="241.0" type="line"/>
      <point x="172.0" y="241.0" type="line"/>
      <point x="410.0" y="241.0" type="line"/>
      <point x="410.0" y="0.0" type="line"/>
      <point x="745.0" y="0.0" type="line"/>
      <point x="745.0" y="29.0" type="line"/>
      <point x="442.0" y="29.0" type="line"/>
      <point x="442.0" y="319.0" type="line"/>
      <point x="717.0" y="319.0" type="line"/>
      <point x="717.0" y="348.0" type="line"/>
      <point x="442.0" y="348.0" type="line"/>
      <point x="442.0" y="629.0" type="line"/>
      <point x="733.0" y="629.0" type="line"/>
      <point x="733.0" y="658.0" type="line"/>
      <point x="394.0" y="658.0" type="line"/>
    </contour>
    <contour>
      <point x="203.0" y="270.0" type="line"/>
      <point x="393.0" y="598.0" type="line"/>
      <point x="417.0" y="642.0" type="line"/>
      <point x="410.0" y="642.0" type="line"/>
      <point x="410.0" y="270.0" type="line"/>
      <point x="188.0" y="270.0" type="line"/>
    </contour>
  </outline>
</glyph>
<glyph name="Eth" format="2">
  <advance width="681"/>
  <unicode hex="00D0"/>
  <anchor x="274" y="642" name="top"/>
  <outline>
    <contour>
      <point x="20" y="319" type="line"/>
      <point x="260" y="319" type="line"/>
      <point x="260" y="348" type="line"/>
      <point x="20" y="348" type="line"/>
    </contour>
    <component base="D"/>
  </outline>
</glyph>
<glyph name="multiply" format="2">
  <advance width="482"/>
  <unicode hex="00D7"/>
  <outline>
    <contour>
      <point x="88" y="114" type="line"/>
      <point x="241" y="267" type="line"/>
      <point x="399" y="110" type="line"/>
      <point x="418" y="129" type="line"/>
      <point x="261" y="287" type="line"/>
      <point x="414" y="440" type="line"/>
      <point x="394" y="460" type="line"/>
      <point x="241" y="307" type="line"/>
      <point x="83" y="464" type="line"/>
      <point x="64" y="445" type="line"/>
      <point x="221" y="287" type="line"/>
      <point x="68" y="134" type="line"/>
    </contour>
  </outline>
</glyph>
<glyph name="Oslash" format="2">
  <advance width="778"/>
  <unicode hex="00D8"/>
  <anchor x="392" y="650" name="top"/>
  <outline>
    <contour>
      <point x="141" y="-48" type="line"/>
      <point x="175" y="-48" type="line"/>
      <point x="638" y="706" type="line"/>
      <point x="604" y="706" type="line"/>
    </contour>
    <component base="O"/>
  </outline>
</glyph>
<glyph name="Thorn" format="2">
  <advance width="460"/>
  <unicode hex="00DE"/>
  <outline>
    <contour>
      <point x="80" y="0" type="line"/>
      <point x="112" y="0" type="line"/>
      <point x="112" y="140" type="line"/>
      <point x="191" y="140" type="line" smooth="yes"/>
      <point x="319" y="140"/>
      <point x="408" y="215"/>
      <point x="408" y="335" type="curve" smooth="yes"/>
      <point x="408" y="455"/>
      <point x="319" y="530"/>
      <point x="191" y="530" type="curve" smooth="yes"/>
      <point x="112" y="530" type="line"/>
      <point x="112" y="658" type="line"/>
      <point x="80" y="658" type="line"/>
    </contour>
    <contour>
      <point x="112" y="169" type="line"/>
      <point x="112" y="501" type="line"/>
      <point x="190" y="501" type="line" smooth="yes"/>
      <point x="299" y="501"/>
      <point x="375" y="437"/>
      <point x="375" y="335" type="curve" smooth="yes"/>
      <point x="375" y="233"/>
      <point x="300" y="169"/>
      <point x="191" y="169" type="curve" smooth="yes"/>
    </contour>
  </outline>
</glyph>
<glyph name="germandbls" format="2">
  <advance width="509"/>
  <unicode hex="00DF"/>
  <outline>
    <contour>
      <point x="72" y="0" type="line"/>
      <point x="103" y="0" type="line"/>
      <point x="103" y="527" type="line" smooth="yes"/>
      <point x="103" y="638"/>
      <point x="166" y="708"/>
      <point x="261" y="708" type="curve" smooth="yes"/>
      <point x="388" y="708"/>
      <point x="445" y="600"/>
      <point x="424" y="455" type="curve"/>
      <point x="391" y="466"/>
      <point x="362" y="471"/>
      <point x="331" y="471" type="curve" smooth="yes"/>
      <point x="249" y="471"/>
      <point x="199" y="429"/>
      <point x="199" y="356" type="curve" smooth="yes"/>
      <point x="199" y="296"/>
      <point x="236" y="255"/>
      <point x="312" y="230" type="curve" smooth="yes"/>
      <point x="327" y="225" type="line" smooth="yes"/>
      <point x="400" y="201"/>
      <point x="435" y="165"/>
      <point x="435" y="111" type="curve" smooth="yes"/>
      <point x="435" y="56"/>
      <point x="394" y="19"/>
      <point x="332" y="19" type="curve" smooth="yes"/>
      <point x="280" y="19"/>
      <point x="238" y="34"/>
      <point x="198" y="68" type="curve"/>
      <point x="198" y="31" type="line"/>
      <point x="239" y="4"/>
      <point x="281" y="-10"/>
      <point x="332" y="-10" type="curve" smooth="yes"/>
      <point x="412" y="-10"/>
      <point x="465" y="39"/>
      <point x="465" y="112" type="curve" smooth="yes"/>
      <point x="465" y="180"/>
      <point x="423" y="226"/>
      <point x="335" y="255" type="curve" smooth="yes"/>
      <point x="320" y="260" type="line" smooth="yes"/>
      <point x="258" y="281"/>
      <point x="229" y="311"/>
      <point x="229" y="356" type="curve" smooth="yes"/>
      <point x="229" y="411"/>
      <point x="267" y="442"/>
      <point x="335" y="442" type="curve" smooth="yes"/>
      <point x="380" y="442"/>
      <point x="433" y="421"/>
      <point x="448" y="416" type="curve"/>
      <point x="452" y="445"/>
      <point x="457" y="487"/>
      <point x="457" y="519" type="curve" smooth="yes"/>
      <point x="457" y="658"/>
      <point x="377" y="736"/>
      <point x="261" y="736" type="curve" smooth="yes"/>
      <point x="147" y="736"/>
      <point x="72" y="655"/>
      <point x="72" y="527" type="curve" smooth="yes"/>
    </contour>
  </outline>
</glyph>
<glyph name="ae" format="2">
  <advance width="772"/>
  <unicode hex="00E6"/>
  <anchor x="382" y="446" name="top"/>
  <outline>
    <contour>
      <point x="186" y="-10" type="curve" smooth="yes"/>
      <point x="269" y="-10"/>
      <point x="332" y="38"/>
      <point x="352" y="137" type="curve"/>
      <point x="340" y="141" type="line"/>
      <point x="367" y="47"/>
      <point x="430" y="-10"/>
      <point x="540" y="-10" type="curve" smooth="yes"/>
      <point x="599" y="-10"/>
      <point x="654" y="10"/>
      <point x="710" y="51" type="curve"/>
      <point x="710" y="86" type="line"/>
      <point x="656" y="42"/>
      <point x="601" y="20"/>
      <point x="540" y="20" type="curve" smooth="yes"/>
      <point x="418" y="20"/>
      <point x="358" y="101"/>
      <point x="358" y="233" type="curve" smooth="yes"/>
      <point x="358" y="244" type="line" smooth="yes"/>
      <point x="358" y="367"/>
      <point x="423" y="443"/>
      <point x="524" y="443" type="curve"/>
      <point x="626" y="443"/>
      <point x="688" y="377"/>
      <point x="688" y="263" type="curve"/>
      <point x="351" y="263" type="line"/>
      <point x="351" y="235" type="line"/>
      <point x="720" y="235" type="line"/>
      <point x="720" y="263" type="line" smooth="yes"/>
      <point x="720" y="394"/>
      <point x="645" y="472"/>
      <point x="524" y="472" type="curve"/>
      <point x="434" y="472"/>
      <point x="374" y="421"/>
      <point x="343" y="335" type="curve"/>
      <point x="355" y="330" type="line"/>
      <point x="361" y="416"/>
      <point x="300" y="472"/>
      <point x="207" y="472" type="curve" smooth="yes"/>
      <point x="153" y="472"/>
      <point x="105" y="458"/>
      <point x="58" y="431" type="curve"/>
      <point x="58" y="394" type="line"/>
      <point x="104" y="428"/>
      <point x="151" y="442"/>
      <point x="207" y="442" type="curve" smooth="yes"/>
      <point x="273" y="442"/>
      <point x="326" y="406"/>
      <point x="326" y="323" type="curve" smooth="yes"/>
      <point x="326" y="284" type="line"/>
      <point x="215" y="270" type="line" smooth="yes"/>
      <point x="107" y="256"/>
      <point x="44" y="200"/>
      <point x="44" y="121" type="curve" smooth="yes"/>
      <point x="44" y="42"/>
      <point x="97" y="-10"/>
    </contour>
    <contour>
      <point x="186" y="18" type="curve" smooth="yes"/>
      <point x="117" y="18"/>
      <point x="76" y="59"/>
      <point x="76" y="121" type="curve" smooth="yes"/>
      <point x="76" y="187"/>
      <point x="126" y="229"/>
      <point x="219" y="241" type="curve" smooth="yes"/>
      <point x="326" y="255" type="line"/>
      <point x="326" y="149" type="line"/>
      <point x="317" y="80"/>
      <point x="266" y="18"/>
    </contour>
  </outline>
</glyph>
<glyph name="eth" format="2">
  <advance width="558"/>
  <unicode hex="00F0"/>
  <outline>
    <contour>
      <point x="278" y="-10" type="curve" smooth="yes"/>
      <point x="407" y="-10"/>
      <point x="506" y="99"/>
      <point x="506" y="274" type="curve" smooth="yes"/>
      <point x="506" y="464"/>
      <point x="410" y="644"/>
      <point x="256" y="746" type="curve"/>
      <point x="223" y="736" type="line"/>
      <point x="400" y="621"/>
      <point x="479" y="443"/>
      <point x="477" y="268" type="curve"/>
      <point x="487" y="275" type="line"/>
      <point x="478" y="388"/>
      <point x="401" y="472"/>
      <point x="278" y="472" type="curve" smooth="yes"/>
      <point x="153" y="472"/>
      <point x="52" y="381"/>
      <point x="52" y="235" type="curve" smooth="yes"/>
      <point x="52" y="84"/>
      <point x="153" y="-10"/>
    </contour>
    <contour>
      <point x="278" y="19" type="curve" smooth="yes"/>
      <point x="158" y="19"/>
      <point x="84" y="114"/>
      <point x="84" y="235" type="curve" smooth="yes"/>
      <point x="84" y="351"/>
      <point x="158" y="443"/>
      <point x="278" y="443" type="curve" smooth="yes"/>
      <point x="381" y="443"/>
      <point x="455" y="372"/>
      <point x="474" y="248" type="curve"/>
      <point x="474" y="120"/>
      <point x="401" y="19"/>
    </contour>
    <contour>
      <point x="252" y="605" type="line"/>
      <point x="441" y="666" type="line"/>
      <point x="441" y="695" type="line"/>
      <point x="252" y="634" type="line"/>
    </contour>
  </outline>
</glyph>
<glyph name="divide" format="2">
  <advance width="548"/>
  <unicode hex="00F7"/>
  <outline>
    <contour>
      <point x="60" y="273" type="line"/>
      <point x="488" y="273" type="line"/>
      <point x="488" y="301" type="line"/>
      <point x="60" y="301" type="line"/>
    </contour>
    <contour>
      <point x="255" y="429" type="line"/>
      <point x="295" y="429" type="line"/>
      <point x="295" y="469" type="line"/>
      <point x="255" y="469" type="line"/>
    </contour>
    <contour>
      <point x="255" y="105" type="line"/>
      <point x="295" y="105" type="line"/>
      <point x="295" y="145" type="line"/>
      <point x="255" y="145" type="line"/>
    </contour>
  </outline>
</glyph>
<glyph name="oslash" format="2">
  <advance width="563"/>
  <unicode hex="00F8"/>
  <anchor x="275" y="444" name="top"/>
  <outline>
    <contour>
      <point x="94" y="-48" type="line"/>
      <point x="126" y="-48" type="line"/>
      <point x="465" y="510" type="line"/>
      <point x="433" y="510" type="line"/>
    </contour>
    <component base="o"/>
  </outline>
</glyph>
<glyph name="thorn" format="2">
  <advance width="503"/>
  <unicode hex="00FE"/>
  <outline>
    <contour>
      <point x="76" y="-220" type="line"/>
      <point x="107" y="-220" type="line"/>
      <point x="107" y="32" type="line"/>
      <point x="144" y="5"/>
      <point x="188" y="-10"/>
      <point x="235" y="-10" type="curve" smooth="yes"/>
      <point x="361" y="-10"/>
      <point x="451" y="82"/>
      <point x="451" y="234" type="curve" smooth="yes"/>
      <point x="451" y="380"/>
      <point x="369" y="472"/>
      <point x="246" y="472" type="curve" smooth="yes"/>
      <point x="194" y="472"/>
      <point x="141" y="451"/>
      <point x="107" y="414" type="curve"/>
      <point x="107" y="724" type="line"/>
      <point x="76" y="724" type="line"/>
    </contour>
    <contour>
      <point x="235" y="18" type="curve" smooth="yes"/>
      <point x="187" y="18"/>
      <point x="145" y="33"/>
      <point x="107" y="63" type="curve"/>
      <point x="107" y="382" type="line"/>
      <point x="147" y="425"/>
      <point x="190" y="444"/>
      <point x="246" y="444" type="curve" smooth="yes"/>
      <point x="350" y="444"/>
      <point x="419" y="363"/>
      <point x="419" y="233" type="curve" smooth="yes"/>
      <point x="419" y="99"/>
      <point x="342" y="18"/>
    </contour>
  </outline>
</glyph>
<glyph name="dcroat" format="2">
  <advance width="511"/>
  <unicode hex="0111"/>
  <outline>
    <contour>
      <point x="312" y="594" type="line"/>
      <point x="485" y="594" type="line"/>
      <point x="485" y="622" type="line"/>
      <point x="312" y="622" type="line"/>
    </contour>
    <component base="d"/>
  </outline>
</glyph>
<glyph name="eogonek" format="2">
  <advance width="508"/>
  <unicode hex="0119"/>
  <outline>
    <contour>
      <point x="440" y="-220" type="curve"/>
      <point x="440" y="-192" type="line"/>
      <point x="359" y="-192"/>
      <point x="307" y="-146"/>
      <point x="307" y="-85" type="curve" smooth="yes"/>
      <point x="307" y="-41"/>
      <point x="328" y="-9"/>
      <point x="369" y="8" type="curve" smooth="yes"/>
      <point x="395" y="19"/>
      <point x="420" y="32"/>
      <point x="446" y="51" type="curve"/>
      <point x="446" y="85" type="line"/>
      <point x="392" y="41"/>
      <point x="337" y="20"/>
      <point x="276" y="20" type="curve" smooth="yes"/>
      <point x="151" y="20"/>
      <point x="84" y="100"/>
      <point x="84" y="232" type="curve" smooth="yes"/>
      <point x="84" y="243" type="line" smooth="yes"/>
      <point x="84" y="363"/>
      <point x="156" y="444"/>
      <point x="258" y="444" type="curve" smooth="yes"/>
      <point x="362" y="444"/>
      <point x="424" y="375"/>
      <point x="424" y="261" type="curve"/>
      <point x="77" y="261" type="line"/>
      <point x="77" y="233" type="line"/>
      <point x="456" y="233" type="line"/>
      <point x="456" y="261" type="line" smooth="yes"/>
      <point x="456" y="392"/>
      <point x="381" y="472"/>
      <point x="258" y="472" type="curve" smooth="yes"/>
      <point x="134" y="472"/>
      <point x="52" y="375"/>
      <point x="52" y="232" type="curve" smooth="yes"/>
      <point x="52" y="82"/>
      <point x="130" y="-10"/>
      <point x="276" y="-10" type="curve" smooth="yes"/>
      <point x="308" y="-10"/>
      <point x="332" y="-6"/>
      <point x="361" y="5" type="curve"/>
      <point x="362" y="31" type="line"/>
      <point x="316" y="15"/>
      <point x="278" y="-25"/>
      <point x="278" y="-85" type="curve" smooth="yes"/>
      <point x="278" y="-163"/>
      <point x="340" y="-220"/>
    </contour>
  </outline>
</glyph>
<glyph name="Hbar" format="2">
  <advance width="671"/>
  <unicode hex="0126"/>
  <outline>
    <contour>
      <point x="79" y="0" type="line"/>
      <point x="111" y="0" type="line"/>
      <point x="111" y="325" type="line"/>
      <point x="560" y="325" type="line"/>
      <point x="560" y="0" type="line"/>
      <point x="592" y="0" type="line"/>
      <point x="592" y="658" type="line"/>
      <point x="560" y="658" type="line"/>
      <point x="560" y="354" type="line"/>
      <point x="111" y="354" type="line"/>
      <point x="111" y="658" type="line"/>
      <point x="79" y="658" type="line"/>
    </contour>
    <contour>
      <point x="24" y="486" type="line"/>
      <point x="647" y="486" type="line"/>
      <point x="647" y="515" type="line"/>
      <point x="24" y="515" type="line"/>
    </contour>
  </outline>
</glyph>
<glyph name="hbar" format="2">
  <advance width="485"/>
  <unicode hex="0127"/>
  <outline>
    <contour>
      <point x="14" y="594" type="line"/>
      <point x="199" y="594" type="line"/>
      <point x="199" y="622" type="line"/>
      <point x="14" y="622" type="line"/>
    </contour>
    <component base="h"/>
  </outline>
</glyph>
<glyph name="dotlessi" format="2">
  <advance width="183"/>
  <unicode hex="0131"/>
  <anchor x="92" y="446" name="top"/>
  <outline>
    <contour>
      <point x="76" y="0" type="line"/>
      <point x="107" y="0" type="line"/>
      <point x="107" y="462" type="line"/>
      <point x="76" y="462" type="line"/>
    </contour>
  </outline>
</glyph>
<glyph name="Lslash" format="2">
  <advance width="440"/>
  <unicode hex="0141"/>
  <outline>
    <contour>
      <point x="4" y="279" type="line"/>
      <point x="217" y="370" type="line"/>
      <point x="217" y="401" type="line"/>
      <point x="4" y="310" type="line"/>
    </contour>
    <component base="L" xOffset="-1"/>
  </outline>
</glyph>
<glyph name="lslash" format="2">
  <advance width="183"/>
  <unicode hex="0142"/>
  <outline>
    <contour>
      <point x="0" y="329" type="line"/>
      <point x="161" y="377" type="line"/>
      <point x="161" y="406" type="line"/>
      <point x="0" y="358" type="line"/>
    </contour>
    <component base="l"/>
  </outline>
</glyph>
<glyph name="Eng" format="2">
  <advance width="702"/>
  <unicode hex="014A"/>
  <outline>
    <contour>
      <point x="495" y="-220" type="line" smooth="yes"/>
      <point x="574" y="-220"/>
      <point x="622" y="-169"/>
      <point x="622" y="-87" type="curve" smooth="yes"/>
      <point x="622" y="6" type="line"/>
      <point x="594" y="6" type="line"/>
      <point x="594" y="-87" type="line" smooth="yes"/>
      <point x="594" y="-153"/>
      <point x="554" y="-192"/>
      <point x="495" y="-192" type="curve" smooth="yes"/>
      <point x="487" y="-192" type="line"/>
      <point x="487" y="-220" type="line"/>
    </contour>
    <contour>
      <point x="80" y="0" type="line"/>
      <point x="109" y="0" type="line"/>
      <point x="109" y="586" type="line"/>
      <point x="109" y="647" type="line"/>
      <point x="92" y="647" type="line"/>
      <point x="134" y="586" type="line"/>
      <point x="594" y="0" type="line"/>
      <point x="622" y="0" type="line"/>
      <point x="622" y="658" type="line"/>
      <point x="593" y="658" type="line"/>
      <point x="593" y="77" type="line"/>
      <point x="593" y="11" type="line"/>
      <point x="620" y="11" type="line"/>
      <point x="574" y="77" type="line"/>
      <point x="118" y="658" type="line"/>
      <point x="80" y="658" type="line"/>
    </contour>
  </outline>
</glyph>
<glyph name="eng" format="2">
  <advance width="485"/>
  <unicode hex="014B"/>
  <outline>
    <contour>
      <point x="290" y="-220" type="line" smooth="yes"/>
      <point x="365" y="-220"/>
      <point x="413" y="-165"/>
      <point x="413" y="-78" type="curve" smooth="yes"/>
      <point x="413" y="307" type="line" smooth="yes"/>
      <point x="413" y="406"/>
      <point x="359" y="472"/>
      <point x="251" y="472" type="curve" smooth="yes"/>
      <point x="195" y="472"/>
      <point x="140" y="443"/>
      <point x="107" y="398" type="curve"/>
      <point x="107" y="462" type="line"/>
      <point x="76" y="462" type="line"/>
      <point x="76" y="0" type="line"/>
      <point x="107" y="0" type="line"/>
      <point x="107" y="360" type="line"/>
      <point x="137" y="410"/>
      <point x="191" y="444"/>
      <point x="251" y="444" type="curve" smooth="yes"/>
      <point x="331" y="444"/>
      <point x="382" y="397"/>
      <point x="382" y="303" type="curve" smooth="yes"/>
      <point x="382" y="-78" type="line" smooth="yes"/>
      <point x="382" y="-148"/>
      <point x="346" y="-192"/>
      <point x="290" y="-192" type="curve" smooth="yes"/>
      <point x="282" y="-192" type="line"/>
      <point x="282" y="-220" type="line"/>
    </contour>
  </outline>
</glyph>
<glyph name="OE" format="2">
  <advance width="882"/>
  <unicode hex="0152"/>
  <outline>
    <contour>
      <point x="396" y="0" type="curve" smooth="yes"/>
      <point x="826" y="0" type="line"/>
      <point x="826" y="29" type="line"/>
      <point x="523" y="29" type="line"/>
      <point x="523" y="319" type="line"/>
      <point x="798" y="319" type="line"/>
      <point x="798" y="348" type="line"/>
      <point x="523" y="348" type="line"/>
      <point x="523" y="629" type="line"/>
      <point x="814" y="629" type="line"/>
      <point x="814" y="658" type="line"/>
      <point x="399" y="658" type="line" smooth="yes"/>
      <point x="188" y="658"/>
      <point x="56" y="532"/>
      <point x="56" y="333" type="curve" smooth="yes"/>
      <point x="56" y="129"/>
      <point x="187" y="0"/>
    </contour>
    <contour>
      <point x="396" y="29" type="line" smooth="yes"/>
      <point x="207" y="29"/>
      <point x="89" y="145"/>
      <point x="89" y="333" type="curve" smooth="yes"/>
      <point x="89" y="515"/>
      <point x="209" y="629"/>
      <point x="399" y="629" type="curve" smooth="yes"/>
      <point x="491" y="629" type="line"/>
      <point x="491" y="29" type="line"/>
    </contour>
  </outline>
</glyph>
<glyph name="oe" format="2">
  <advance width="921"/>
  <unicode hex="0153"/>
  <outline>
    <contour>
      <point x="689" y="-10" type="curve" smooth="yes"/>
      <point x="748" y="-10"/>
      <point x="803" y="10"/>
      <point x="859" y="51" type="curve"/>
      <point x="859" y="85" type="line"/>
      <point x="805" y="41"/>
      <point x="750" y="20"/>
      <point x="689" y="20" type="curve" smooth="yes"/>
      <point x="564" y="20"/>
      <point x="497" y="99"/>
      <point x="497" y="231" type="curve" smooth="yes"/>
      <point x="497" y="243" type="line" smooth="yes"/>
      <point x="497" y="363"/>
      <point x="569" y="444"/>
      <point x="671" y="444" type="curve" smooth="yes"/>
      <point x="775" y="444"/>
      <point x="837" y="375"/>
      <point x="837" y="261" type="curve"/>
      <point x="490" y="261" type="line"/>
      <point x="490" y="233" type="line"/>
      <point x="869" y="233" type="line"/>
      <point x="869" y="261" type="line" smooth="yes"/>
      <point x="869" y="392"/>
      <point x="794" y="472"/>
      <point x="671" y="472" type="curve" smooth="yes"/>
      <point x="547" y="472"/>
      <point x="467" y="374"/>
      <point x="467" y="231" type="curve" smooth="yes"/>
      <point x="467" y="81"/>
      <point x="543" y="-10"/>
    </contour>
    <contour>
      <point x="276" y="-10" type="curve" smooth="yes"/>
      <point x="413" y="-10"/>
      <point x="496" y="86"/>
      <point x="496" y="231" type="curve" smooth="yes"/>
      <point x="496" y="376"/>
      <point x="413" y="472"/>
      <point x="276" y="472" type="curve" smooth="yes"/>
      <point x="138" y="472"/>
      <point x="52" y="375"/>
      <point x="52" y="230" type="curve" smooth="yes"/>
      <point x="52" y="86"/>
      <point x="138" y="-10"/>
    </contour>
    <contour>
      <point x="276" y="18" type="curve" smooth="yes"/>
      <point x="157" y="18"/>
      <point x="84" y="103"/>
      <point x="84" y="231" type="curve" smooth="yes"/>
      <point x="84" y="359"/>
      <point x="157" y="444"/>
      <point x="276" y="444" type="curve" smooth="yes"/>
      <point x="394" y="444"/>
      <point x="467" y="359"/>
      <point x="467" y="231" type="curve" smooth="yes"/>
      <point x="467" y="104"/>
      <point x="394" y="18"/>
    </contour>
  </outline>
</glyph>
<glyph name="Tbar" format="2">
  <advance width="536"/>
  <unicode hex="0166"/>
  <outline>
    <contour>
      <point x="116" y="353" type="line"/>
      <point x="422" y="353" type="line"/>
      <point x="422" y="382" type="line"/>
      <point x="116" y="382" type="line"/>
    </contour>
    <component base="T"/>
  </outline>
</glyph>
<glyph name="tbar" format="2">
  <advance width="286"/>
  <unicode hex="0167"/>
  <outline>
    <contour>
      <point x="32" y="286" type="line"/>
      <point x="218" y="286" type="line"/>
      <point x="218" y="314" type="line"/>
      <point x="32" y="314" type="line"/>
    </contour>
    <component base="t"/>
  </outline>
</glyph>
<glyph name="Uogonek" format="2">
  <advance width="661"/>
  <unicode hex="0172"/>
  <outline>
    <contour>
      <point x="519" y="-220" type="curve"/>
      <point x="519" y="-192" type="line"/>
      <point x="440" y="-192"/>
      <point x="389" y="-145"/>
      <point x="389" y="-81" type="curve" smooth="yes"/>
      <point x="389" y="-36"/>
      <point x="411" y="-3"/>
      <point x="453" y="17" type="curve" smooth="yes"/>
      <point x="534" y="55"/>
      <point x="585" y="147"/>
      <point x="585" y="260" type="curve" smooth="yes"/>
      <point x="585" y="658" type="line"/>
      <point x="554" y="658" type="line"/>
      <point x="554" y="260" type="line" smooth="yes"/>
      <point x="554" y="115"/>
      <point x="466" y="19"/>
      <point x="330" y="19" type="curve" smooth="yes"/>
      <point x="197" y="19"/>
      <point x="108" y="115"/>
      <point x="108" y="260" type="curve" smooth="yes"/>
      <point x="108" y="658" type="line"/>
      <point x="76" y="658" type="line"/>
      <point x="76" y="260" type="line" smooth="yes"/>
      <point x="76" y="97"/>
      <point x="178" y="-12"/>
      <point x="330" y="-12" type="curve" smooth="yes"/>
      <point x="367" y="-12"/>
      <point x="399" y="-6"/>
      <point x="429" y="6" type="curve"/>
      <point x="436" y="34" type="line"/>
      <point x="394" y="15"/>
      <point x="360" y="-23"/>
      <point x="360" y="-81" type="curve" smooth="yes"/>
      <point x="360" y="-161"/>
      <point x="421" y="-220"/>
    </contour>
  </outline>
</glyph>
<glyph name="florin" format="2">
  <advance width="502"/>
  <unicode hex="0192"/>
  <outline>
    <contour>
      <point x="103" y="433" type="line"/>
      <point x="422" y="433" type="line"/>
      <point x="422" y="462" type="line"/>
      <point x="103" y="462" type="line"/>
    </contour>
    <contour>
      <point x="44" y="-220" type="curve" smooth="yes"/>
      <point x="119" y="-220"/>
      <point x="177" y="-166"/>
      <point x="192" y="-54" type="curve" smooth="yes"/>
      <point x="278" y="568" type="line" smooth="yes"/>
      <point x="290" y="655"/>
      <point x="330" y="707"/>
      <point x="398" y="707" type="curve" smooth="yes"/>
      <point x="433" y="707"/>
      <point x="466" y="698"/>
      <point x="498" y="678" type="curve"/>
      <point x="498" y="712" type="line"/>
      <point x="466" y="729"/>
      <point x="434" y="737"/>
      <point x="400" y="737" type="curve" smooth="yes"/>
      <point x="320" y="737"/>
      <point x="262" y="682"/>
      <point x="246" y="568" type="curve" smooth="yes"/>
      <point x="160" y="-54" type="line" smooth="yes"/>
      <point x="149" y="-137"/>
      <point x="111" y="-190"/>
      <point x="46" y="-190" type="curve" smooth="yes"/>
      <point x="12" y="-190"/>
      <point x="-18" y="-180"/>
      <point x="-44" y="-160" type="curve"/>
      <point x="-44" y="-194" type="line"/>
      <point x="-17" y="-212"/>
      <point x="12" y="-220"/>
    </contour>
  </outline>
</glyph>
<glyph name="Oslashacute" format="2">
  <advance width="778"/>
  <unicode hex="01FE"/>
  <anchor x="392" y="650" name="top"/>
  <outline>
    <contour>
      <point x="141" y="-48" type="line" smooth="yes"/>
      <point x="175" y="-48" type="line" smooth="yes"/>
      <point x="638" y="706" type="line"/>
      <point x="604" y="706" type="line"/>
    </contour>
    <component base="O"/>
    <component base="acutecmb.uc" xOffset="392" yOffset="8"/>
  </outline>
</glyph>
<glyph name="oslashacute" format="2">
  <advance width="563"/>
  <unicode hex="01FF"/>
  <anchor x="275" y="444" name="top"/>
  <outline>
    <contour>
      <point x="94" y="-48" type="line"/>
      <point x="126" y="-48" type="line"/>
      <point x="465" y="510" type="line"/>
      <point x="433" y="510" type="line"/>
    </contour>
    <component base="o"/>
    <component base="acutecmb" xOffset="275" yOffset="-2"/>
  </outline>
</glyph>
<glyph name="dotlessj" format="2">
  <advance width="181"/>
  <unicode hex="0237"/>
  <anchor x="95" y="446" name="top"/>
  <outline>
    <contour>
      <point x="-24" y="-212" type="line" smooth="yes"/>
      <point x="56" y="-212"/>
      <point x="109" y="-154"/>
      <point x="109" y="-62" type="curve" smooth="yes"/>
      <point x="109" y="462" type="line"/>
      <point x="78" y="462" type="line"/>
      <point x="78" y="-62" type="line" smooth="yes"/>
      <point x="78" y="-136"/>
      <point x="38" y="-184"/>
      <point x="-24" y="-184" type="curve" smooth="yes"/>
      <point x="-32" y="-184" type="line"/>
      <point x="-32" y="-212" type="line"/>
    </contour>
  </outline>
</glyph>
<glyph name="schwa" format="2">
  <advance width="502"/>
  <unicode hex="0259"/>
  <outline>
    <contour>
      <point x="247" y="-10" type="curve" smooth="yes"/>
      <point x="374" y="-10"/>
      <point x="458" y="81"/>
      <point x="458" y="231" type="curve" smooth="yes"/>
      <point x="458" y="380"/>
      <point x="378" y="472"/>
      <point x="229" y="472" type="curve" smooth="yes"/>
      <point x="168" y="472"/>
      <point x="112" y="451"/>
      <point x="54" y="412" type="curve"/>
      <point x="54" y="377" type="line"/>
      <point x="109" y="421"/>
      <point x="166" y="442"/>
      <point x="229" y="442" type="curve" smooth="yes"/>
      <point x="357" y="442"/>
      <point x="426" y="361"/>
      <point x="426" y="231" type="curve" smooth="yes"/>
      <point x="426" y="220" type="line" smooth="yes"/>
      <point x="426" y="93"/>
      <point x="352" y="19"/>
      <point x="247" y="19" type="curve" smooth="yes"/>
      <point x="139" y="19"/>
      <point x="75" y="86"/>
      <point x="75" y="207" type="curve"/>
      <point x="433" y="207" type="line"/>
      <point x="433" y="236" type="line"/>
      <point x="44" y="236" type="line"/>
      <point x="44" y="208" type="line" smooth="yes"/>
      <point x="44" y="71"/>
      <point x="121" y="-10"/>
    </contour>
  </outline>
</glyph>
<glyph name="gravecmb" format="2">
  <unicode hex="0300"/>
  <anchor x="0.0" y="446" name="_top"/>
  <anchor x="1" y="16" name="_bottom"/>
  <outline>
    <contour>
      <point x="1" y="524" type="line"/>
      <point x="37" y="524" type="line"/>
      <point x="-61" y="649" type="line"/>
      <point x="-100" y="649" type="line"/>
    </contour>
  </outline>
</glyph>
<glyph name="acutecmb" format="2">
  <unicode hex="0301"/>
  <anchor x="0" y="446" name="_top"/>
  <anchor x="0" y="16" name="_bottom"/>
  <outline>
    <contour>
      <point x="0" y="524" type="line"/>
      <point x="101" y="649" type="line"/>
      <point x="62" y="649" type="line"/>
      <point x="-36" y="524" type="line"/>
    </contour>
  </outline>
</glyph>
<glyph name="tildecmb" format="2">
  <unicode hex="0303"/>
  <anchor x="0.0" y="446" name="_top"/>
  <anchor x="-2" y="16" name="_bottom"/>
  <outline>
    <contour>
      <point x="-118" y="524" type="line"/>
      <point x="-114" y="561"/>
      <point x="-95" y="580"/>
      <point x="-68" y="580" type="curve" smooth="yes"/>
      <point x="-50" y="580"/>
      <point x="-34" y="569"/>
      <point x="-14" y="552" type="curve" smooth="yes"/>
      <point x="13" y="529"/>
      <point x="33" y="515"/>
      <point x="61" y="515" type="curve" smooth="yes"/>
      <point x="98" y="515"/>
      <point x="132" y="537"/>
      <point x="140" y="599" type="curve"/>
      <point x="114" y="599" type="line"/>
      <point x="109" y="561"/>
      <point x="90" y="543"/>
      <point x="64" y="543" type="curve" smooth="yes"/>
      <point x="43" y="543"/>
      <point x="28" y="556"/>
      <point x="10" y="571" type="curve" smooth="yes"/>
      <point x="-20" y="596"/>
      <point x="-41" y="608"/>
      <point x="-65" y="608" type="curve" smooth="yes"/>
      <point x="-107" y="608"/>
      <point x="-137" y="583"/>
      <point x="-144" y="524" type="curve"/>
    </contour>
  </outline>
</glyph>
<glyph name="brevecmb" format="2">
  <unicode hex="0306"/>
  <anchor x="0.0" y="446" name="_top"/>
  <anchor x="1" y="16" name="_bottom"/>
  <outline>
    <contour>
      <point x="1" y="516" type="curve" smooth="yes"/>
      <point x="65" y="516"/>
      <point x="106" y="561"/>
      <point x="106" y="637" type="curve"/>
      <point x="78" y="637" type="line"/>
      <point x="78" y="579"/>
      <point x="48" y="543"/>
      <point x="1" y="543" type="curve" smooth="yes"/>
      <point x="-46" y="543"/>
      <point x="-76" y="579"/>
      <point x="-76" y="637" type="curve"/>
      <point x="-104" y="637" type="line"/>
      <point x="-104" y="561"/>
      <point x="-63" y="516"/>
    </contour>
  </outline>
</glyph>
<glyph name="dieresiscmb" format="2">
  <unicode hex="0308"/>
  <anchor x="0.0" y="446" name="_top"/>
  <anchor x="-1" y="16" name="_bottom"/>
  <outline>
    <contour>
      <point x="-88" y="540" type="line"/>
      <point x="-46" y="540" type="line"/>
      <point x="-46" y="582" type="line"/>
      <point x="-88" y="582" type="line"/>
    </contour>
    <contour>
      <point x="44" y="540" type="line"/>
      <point x="86" y="540" type="line"/>
      <point x="86" y="582" type="line"/>
      <point x="44" y="582" type="line"/>
    </contour>
  </outline>
</glyph>
<glyph name="ringcmb" format="2">
  <unicode hex="030A"/>
  <anchor x="0.0" y="446" name="_top"/>
  <anchor x="1" y="16" name="_bottom"/>
  <outline>
    <contour>
      <point x="1" y="494" type="curve" smooth="yes"/>
      <point x="46" y="494"/>
      <point x="74" y="527"/>
      <point x="74" y="568" type="curve" smooth="yes"/>
      <point x="74" y="609"/>
      <point x="46" y="642"/>
      <point x="1" y="642" type="curve" smooth="yes"/>
      <point x="-44" y="642"/>
      <point x="-72" y="609"/>
      <point x="-72" y="568" type="curve" smooth="yes"/>
      <point x="-72" y="527"/>
      <point x="-44" y="494"/>
    </contour>
    <contour>
      <point x="1" y="520" type="curve" smooth="yes"/>
      <point x="-24" y="520"/>
      <point x="-44" y="539"/>
      <point x="-44" y="568" type="curve" smooth="yes"/>
      <point x="-44" y="597"/>
      <point x="-24" y="616"/>
      <point x="1" y="616" type="curve" smooth="yes"/>
      <point x="26" y="616"/>
      <point x="46" y="597"/>
      <point x="46" y="568" type="curve" smooth="yes"/>
      <point x="46" y="539"/>
      <point x="26" y="520"/>
    </contour>
  </outline>
</glyph>
<glyph name="hungarumlautcmb" format="2">
  <unicode hex="030B"/>
  <anchor x="0.0" y="446" name="_top"/>
  <anchor x="1" y="16" name="_bottom"/>
  <outline>
    <contour>
      <point x="-76" y="524" type="line"/>
      <point x="-41" y="524" type="line"/>
      <point x="57" y="641" type="line"/>
      <point x="18" y="641" type="line"/>
    </contour>
    <contour>
      <point x="36" y="524" type="line"/>
      <point x="71" y="524" type="line"/>
      <point x="169" y="641" type="line"/>
      <point x="130" y="641" type="line"/>
    </contour>
  </outline>
</glyph>
<glyph name="caroncmb" format="2">
  <unicode hex="030C"/>
  <anchor x="0" y="446" name="_top"/>
  <anchor x="0" y="16" name="_bottom"/>
  <outline>
    <contour>
      <point x="-11" y="524" type="line"/>
      <point x="11" y="524" type="line"/>
      <point x="116" y="643" type="line"/>
      <point x="79" y="643" type="line"/>
      <point x="-9" y="544" type="line"/>
      <point x="9" y="544" type="line"/>
      <point x="-79" y="643" type="line"/>
      <point x="-116" y="643" type="line"/>
    </contour>
  </outline>
</glyph>
<glyph name="commaturnedabovecmb" format="2">
  <unicode hex="0312"/>
  <anchor x="-34" y="-444" name="_bottom"/>
  <anchor x="0" y="446" name="_top"/>
  <outline>
    <contour>
      <point x="28" y="678" type="line"/>
      <point x="-6" y="636"/>
      <point x="-16" y="593"/>
      <point x="-16" y="553" type="curve" smooth="yes"/>
      <point x="-16" y="516" type="line"/>
      <point x="14" y="516" type="line"/>
      <point x="14" y="553" type="line" smooth="yes"/>
      <point x="14" y="590"/>
      <point x="22" y="625"/>
      <point x="48" y="662" type="curve"/>
    </contour>
  </outline>
</glyph>
<glyph name="commaaccentcmb" format="2">
  <unicode hex="0326"/>
  <anchor x="1" y="446" name="_top"/>
  <anchor x="0" y="16" name="_bottom"/>
  <outline>
    <contour>
      <point x="-30" y="-202" type="line"/>
      <point x="4" y="-160"/>
      <point x="14" y="-117"/>
      <point x="14" y="-77" type="curve" smooth="yes"/>
      <point x="14" y="-40" type="line"/>
      <point x="-16" y="-40" type="line"/>
      <point x="-16" y="-77" type="line" smooth="yes"/>
      <point x="-16" y="-114"/>
      <point x="-24" y="-149"/>
      <point x="-50" y="-186" type="curve"/>
    </contour>
  </outline>
</glyph>
<glyph name="cedillacmb" format="2">
  <unicode hex="0327"/>
  <anchor x="0.0" y="16" name="_bottom"/>
  <outline>
    <contour>
      <point x="9" y="-184" type="curve" smooth="yes"/>
      <point x="50" y="-184"/>
      <point x="76" y="-157"/>
      <point x="76" y="-115" type="curve" smooth="yes"/>
      <point x="76" y="-74"/>
      <point x="46" y="-48"/>
      <point x="-1" y="-48" type="curve" smooth="yes"/>
      <point x="-7" y="-48" type="line"/>
      <point x="-7" y="-75" type="line"/>
      <point x="-1" y="-75" type="line" smooth="yes"/>
      <point x="29" y="-75"/>
      <point x="48" y="-91"/>
      <point x="48" y="-117" type="curve" smooth="yes"/>
      <point x="48" y="-142"/>
      <point x="32" y="-158"/>
      <point x="7" y="-158" type="curve" smooth="yes"/>
      <point x="-12" y="-158"/>
      <point x="-33" y="-151"/>
      <point x="-48" y="-139" type="curve"/>
      <point x="-48" y="-168" type="line"/>
      <point x="-32" y="-178"/>
      <point x="-10" y="-184"/>
    </contour>
  </outline>
</glyph>
<glyph name="Delta" format="2">
  <advance width="557"/>
  <unicode hex="0394"/>
  <unicode hex="2206"/>
  <outline>
    <contour>
      <point x="40" y="0" type="line"/>
      <point x="268" y="682" type="line"/>
      <point x="290" y="682" type="line"/>
      <point x="517" y="0" type="line"/>
    </contour>
    <contour>
      <point x="80" y="30" type="line"/>
      <point x="473" y="30" type="line"/>
      <point x="277" y="622" type="line"/>
    </contour>
  </outline>
</glyph>
<glyph name="mu" format="2">
  <advance width="486"/>
  <unicode hex="03BC"/>
  <unicode hex="00B5"/>
  <anchor x="232" y="457" name="top"/>
  <outline>
    <contour>
      <point x="107" y="-220" type="line"/>
      <point x="101" y="57" type="line"/>
      <point x="126" y="15"/>
      <point x="171" y="-10"/>
      <point x="236" y="-10" type="curve" smooth="yes"/>
      <point x="300" y="-10"/>
      <point x="348" y="16"/>
      <point x="379" y="64" type="curve"/>
      <point x="383" y="0" type="line"/>
      <point x="410" y="0" type="line"/>
      <point x="410" y="462" type="line"/>
      <point x="379" y="462" type="line"/>
      <point x="379" y="109" type="line"/>
      <point x="355" y="56"/>
      <point x="305" y="18"/>
      <point x="236" y="18" type="curve" smooth="yes"/>
      <point x="156" y="18"/>
      <point x="107" y="67"/>
      <point x="107" y="159" type="curve" smooth="yes"/>
      <point x="107" y="462" type="line"/>
      <point x="76" y="462" type="line"/>
      <point x="76" y="-220" type="line"/>
    </contour>
  </outline>
</glyph>
<glyph name="pi" format="2">
  <advance width="501"/>
  <unicode hex="03C0"/>
  <outline>
    <contour>
      <point x="112" y="0" type="line"/>
      <point x="140" y="0" type="line"/>
      <point x="140" y="432" type="line"/>
      <point x="361" y="432" type="line"/>
      <point x="361" y="0" type="line"/>
      <point x="389" y="0" type="line"/>
      <point x="389" y="432" type="line"/>
      <point x="461" y="432" type="line"/>
      <point x="461" y="462" type="line"/>
      <point x="40" y="462" type="line"/>
      <point x="40" y="432" type="line"/>
      <point x="112" y="432" type="line"/>
    </contour>
  </outline>
</glyph>
<glyph name="endash" format="2">
  <advance width="508"/>
  <unicode hex="2013"/>
  <outline>
    <contour>
      <point x="36" y="211" type="line"/>
      <point x="472" y="211" type="line"/>
      <point x="472" y="240" type="line"/>
      <point x="36" y="240" type="line"/>
    </contour>
  </outline>
</glyph>
<glyph name="emdash" format="2">
  <advance width="1008"/>
  <unicode hex="2014"/>
  <outline>
    <contour>
      <point x="36" y="211" type="line"/>
      <point x="972" y="211" type="line"/>
      <point x="972" y="240" type="line"/>
      <point x="36" y="240" type="line"/>
    </contour>
  </outline>
</glyph>
<glyph name="quoteleft" format="2">
  <advance width="163"/>
  <unicode hex="2018"/>
  <outline>
    <contour>
      <point x="52" y="556" type="line"/>
      <point x="85" y="556" type="line"/>
      <point x="85" y="612" type="line" smooth="yes"/>
      <point x="85" y="649"/>
      <point x="93" y="681"/>
      <point x="119" y="718" type="curve"/>
      <point x="96" y="734" type="line"/>
      <point x="62" y="692"/>
      <point x="52" y="652"/>
      <point x="52" y="612" type="curve" smooth="yes"/>
    </contour>
  </outline>
</glyph>
<glyph name="quoteright" format="2">
  <advance width="161"/>
  <unicode hex="2019"/>
  <outline>
    <contour>
      <point x="65" y="545" type="line"/>
      <point x="99" y="587"/>
      <point x="109" y="628"/>
      <point x="109" y="668" type="curve" smooth="yes"/>
      <point x="109" y="724" type="line"/>
      <point x="78" y="724" type="line"/>
      <point x="78" y="668" type="line" smooth="yes"/>
      <point x="78" y="631"/>
      <point x="70" y="599"/>
      <point x="44" y="562" type="curve"/>
    </contour>
  </outline>
</glyph>
<glyph name="quotedblleft" format="2">
  <advance width="264"/>
  <unicode hex="201C"/>
  <outline>
    <contour>
      <point x="44" y="560" type="line"/>
      <point x="77" y="560" type="line"/>
      <point x="77" y="613" type="line" smooth="yes"/>
      <point x="77" y="650"/>
      <point x="85" y="682"/>
      <point x="111" y="719" type="curve"/>
      <point x="88" y="735" type="line"/>
      <point x="54" y="693"/>
      <point x="44" y="653"/>
      <point x="44" y="613" type="curve" smooth="yes"/>
    </contour>
    <contour>
      <point x="145" y="560" type="line"/>
      <point x="178" y="560" type="line"/>
      <point x="178" y="613" type="line" smooth="yes"/>
      <point x="178" y="650"/>
      <point x="186" y="682"/>
      <point x="212" y="719" type="curve"/>
      <point x="189" y="735" type="line"/>
      <point x="155" y="693"/>
      <point x="145" y="653"/>
      <point x="145" y="613" type="curve" smooth="yes"/>
    </contour>
  </outline>
</glyph>
<glyph name="quotedblright" format="2">
  <advance width="260"/>
  <unicode hex="201D"/>
  <outline>
    <contour>
      <point x="65" y="545" type="line"/>
      <point x="99" y="587"/>
      <point x="109" y="628"/>
      <point x="109" y="668" type="curve" smooth="yes"/>
      <point x="109" y="724" type="line"/>
      <point x="78" y="724" type="line"/>
      <point x="78" y="668" type="line" smooth="yes"/>
      <point x="78" y="631"/>
      <point x="70" y="599"/>
      <point x="44" y="562" type="curve"/>
    </contour>
    <contour>
      <point x="164" y="545" type="line"/>
      <point x="198" y="587"/>
      <point x="208" y="628"/>
      <point x="208" y="668" type="curve" smooth="yes"/>
      <point x="208" y="724" type="line"/>
      <point x="177" y="724" type="line"/>
      <point x="177" y="668" type="line" smooth="yes"/>
      <point x="177" y="631"/>
      <point x="169" y="599"/>
      <point x="143" y="562" type="curve"/>
    </contour>
  </outline>
</glyph>
<glyph name="dagger" format="2">
  <advance width="468"/>
  <unicode hex="2020"/>
  <outline>
    <contour>
      <point x="219" y="0" type="line"/>
      <point x="249" y="0" type="line"/>
      <point x="249" y="479" type="line"/>
      <point x="404" y="479" type="line"/>
      <point x="404" y="508" type="line"/>
      <point x="249" y="508" type="line"/>
      <point x="249" y="724" type="line"/>
      <point x="219" y="724" type="line"/>
      <point x="219" y="508" type="line"/>
      <point x="64" y="508" type="line"/>
      <point x="64" y="479" type="line"/>
      <point x="219" y="479" type="line"/>
    </contour>
  </outline>
</glyph>
<glyph name="daggerdbl" format="2">
  <advance width="468"/>
  <unicode hex="2021"/>
  <outline>
    <contour>
      <point x="219" y="0" type="line"/>
      <point x="249" y="0" type="line"/>
      <point x="249" y="224" type="line"/>
      <point x="404" y="224" type="line"/>
      <point x="404" y="253" type="line"/>
      <point x="249" y="253" type="line"/>
      <point x="249" y="479" type="line"/>
      <point x="404" y="479" type="line"/>
      <point x="404" y="508" type="line"/>
      <point x="249" y="508" type="line"/>
      <point x="249" y="724" type="line"/>
      <point x="219" y="724" type="line"/>
      <point x="219" y="508" type="line"/>
      <point x="64" y="508" type="line"/>
      <point x="64" y="479" type="line"/>
      <point x="219" y="479" type="line"/>
      <point x="219" y="253" type="line"/>
      <point x="64" y="253" type="line"/>
      <point x="64" y="224" type="line"/>
      <point x="219" y="224" type="line"/>
    </contour>
  </outline>
</glyph>
<glyph name="bullet" format="2">
  <advance width="236"/>
  <unicode hex="2022"/>
  <outline>
    <contour>
      <point x="60" y="194" type="line"/>
      <point x="176" y="194" type="line"/>
      <point x="176" y="302" type="line"/>
      <point x="60" y="302" type="line"/>
    </contour>
  </outline>
</glyph>
<glyph name="minute" format="2">
  <advance width="151"/>
  <unicode hex="2032"/>
  <outline>
    <contour>
      <point x="60" y="552" type="line"/>
      <point x="91" y="552" type="line"/>
      <point x="91" y="716" type="line"/>
      <point x="60" y="716" type="line"/>
    </contour>
  </outline>
</glyph>
<glyph name="second" format="2">
  <advance width="247"/>
  <unicode hex="2033"/>
  <outline>
    <contour>
      <point x="60" y="552" type="line"/>
      <point x="91" y="552" type="line"/>
      <point x="91" y="716" type="line"/>
      <point x="60" y="716" type="line"/>
    </contour>
    <contour>
      <point x="156" y="552" type="line"/>
      <point x="187" y="552" type="line"/>
      <point x="187" y="716" type="line"/>
      <point x="156" y="716" type="line"/>
    </contour>
  </outline>
</glyph>
<glyph name="guilsinglleft" format="2">
  <advance width="275"/>
  <unicode hex="2039"/>
  <outline>
    <contour>
      <point x="195" y="71" type="line"/>
      <point x="235" y="71" type="line"/>
      <point x="81" y="226" type="line" smooth="yes"/>
      <point x="235" y="382" type="line"/>
      <point x="195" y="382" type="line"/>
      <point x="40" y="226" type="line"/>
    </contour>
  </outline>
</glyph>
<glyph name="guilsinglright" format="2">
  <advance width="275"/>
  <unicode hex="203A"/>
  <outline>
    <contour>
      <point x="40" y="71" type="line"/>
      <point x="80" y="71" type="line"/>
      <point x="235" y="226" type="line"/>
      <point x="80" y="382" type="line"/>
      <point x="40" y="382" type="line"/>
      <point x="194" y="226" type="line" smooth="yes"/>
    </contour>
  </outline>
</glyph>
<glyph name="fraction" format="2">
  <advance width="94"/>
  <unicode hex="2044"/>
  <unicode hex="2215"/>
  <outline>
    <contour>
      <point x="-96" y="0" type="line"/>
      <point x="-66" y="0" type="line"/>
      <point x="190" y="724" type="line"/>
      <point x="160" y="724" type="line"/>
    </contour>
  </outline>
</glyph>
<glyph name="Euro" format="2">
  <advance width="715"/>
  <unicode hex="20AC"/>
  <outline>
    <contour>
      <point x="24" y="364" type="line"/>
      <point x="308" y="364" type="line"/>
      <point x="308" y="393" type="line"/>
      <point x="24" y="393" type="line"/>
    </contour>
    <contour>
      <point x="24" y="272" type="line"/>
      <point x="310" y="272" type="line"/>
      <point x="310" y="301" type="line"/>
      <point x="24" y="301" type="line"/>
    </contour>
    <component base="C" xOffset="43"/>
  </outline>
</glyph>
<glyph name="bitcoin" format="2">
  <advance width="500"/>
  <unicode hex="20BF"/>
  <outline>
    <contour>
      <point x="175" y="642" type="line"/>
      <point x="203" y="642" type="line"/>
      <point x="203" y="786" type="line"/>
      <point x="175" y="786" type="line"/>
    </contour>
    <contour>
      <point x="262" y="642" type="line"/>
      <point x="290" y="642" type="line"/>
      <point x="290" y="786" type="line"/>
      <point x="262" y="786" type="line"/>
    </contour>
    <contour>
      <point x="175" y="-124" type="line"/>
      <point x="203" y="-124" type="line"/>
      <point x="203" y="20" type="line"/>
      <point x="175" y="20" type="line"/>
    </contour>
    <contour>
      <point x="262" y="-124" type="line"/>
      <point x="290" y="-124" type="line"/>
      <point x="290" y="20" type="line"/>
      <point x="262" y="20" type="line"/>
    </contour>
    <component base="B"/>
  </outline>
</glyph>
<glyph name="copyrightsound" format="2">
  <advance width="648"/>
  <unicode hex="2117"/>
  <outline>
    <contour>
      <point x="324" y="132" type="curve" smooth="yes"/>
      <point x="472" y="132"/>
      <point x="596" y="254"/>
      <point x="596" y="403" type="curve" smooth="yes"/>
      <point x="596" y="553"/>
      <point x="472" y="676"/>
      <point x="324" y="676" type="curve" smooth="yes"/>
      <point x="173" y="676"/>
      <point x="52" y="553"/>
      <point x="52" y="402" type="curve" smooth="yes"/>
      <point x="52" y="253"/>
      <point x="173" y="132"/>
    </contour>
    <contour>
      <point x="324" y="160" type="curve" smooth="yes"/>
      <point x="188" y="160"/>
      <point x="81" y="268"/>
      <point x="81" y="403" type="curve" smooth="yes"/>
      <point x="81" y="539"/>
      <point x="188" y="648"/>
      <point x="324" y="648" type="curve" smooth="yes"/>
      <point x="457" y="648"/>
      <point x="567" y="539"/>
      <point x="567" y="402" type="curve" smooth="yes"/>
      <point x="567" y="268"/>
      <point x="457" y="160"/>
    </contour>
    <contour>
      <point x="248" y="231" type="line"/>
      <point x="278" y="231" type="line"/>
      <point x="278" y="368" type="line"/>
      <point x="320" y="368" type="line" smooth="yes"/>
      <point x="397" y="368"/>
      <point x="445" y="410"/>
      <point x="445" y="477" type="curve" smooth="yes"/>
      <point x="445" y="541"/>
      <point x="397" y="581"/>
      <point x="320" y="581" type="curve" smooth="yes"/>
      <point x="248" y="581" type="line"/>
    </contour>
    <contour>
      <point x="278" y="396" type="line"/>
      <point x="278" y="553" type="line"/>
      <point x="320" y="553" type="line" smooth="yes"/>
      <point x="378" y="553"/>
      <point x="415" y="523"/>
      <point x="415" y="476" type="curve" smooth="yes"/>
      <point x="415" y="427"/>
      <point x="378" y="396"/>
      <point x="320" y="396" type="curve" smooth="yes"/>
    </contour>
  </outline>
</glyph>
<glyph name="trademark" format="2">
  <advance width="538"/>
  <unicode hex="2122"/>
  <anchor x="265" y="650" name="top"/>
  <outline>
    <contour>
      <point x="100" y="462" type="line"/>
      <point x="130" y="462" type="line"/>
      <point x="130" y="696" type="line"/>
      <point x="214" y="696" type="line"/>
      <point x="214" y="724" type="line"/>
      <point x="16" y="724" type="line"/>
      <point x="16" y="696" type="line"/>
      <point x="100" y="696" type="line"/>
    </contour>
    <contour>
      <point x="244" y="462" type="line"/>
      <point x="272" y="462" type="line"/>
      <point x="272" y="720" type="line"/>
      <point x="261" y="720" type="line"/>
      <point x="356" y="513" type="line"/>
      <point x="384" y="513" type="line"/>
      <point x="480" y="721" type="line"/>
      <point x="468" y="721" type="line"/>
      <point x="468" y="462" type="line"/>
      <point x="498" y="462" type="line"/>
      <point x="498" y="724" type="line"/>
      <point x="450" y="724" type="line"/>
      <point x="367" y="539" type="line"/>
      <point x="378" y="539" type="line"/>
      <point x="294" y="724" type="line"/>
      <point x="244" y="724" type="line"/>
    </contour>
  </outline>
</glyph>
<glyph name="partialdiff" format="2">
  <advance width="490"/>
  <unicode hex="2202"/>
  <outline>
    <contour>
      <point x="242" y="-10" type="curve" smooth="yes"/>
      <point x="352" y="-10"/>
      <point x="450" y="61"/>
      <point x="450" y="267" type="curve"/>
      <point x="450.0" y="506.0"/>
      <point x="322.0" y="665.0"/>
      <point x="75" y="665" type="curve"/>
      <point x="75" y="637" type="line"/>
      <point x="284.0" y="637.0"/>
      <point x="423.0" y="505.0"/>
      <point x="423" y="248" type="curve"/>
      <point x="433" y="257" type="line"/>
      <point x="422.9995002687833" y="359.00509725841016"/>
      <point x="325.4397905759162" y="419.0"/>
      <point x="241" y="419" type="curve" smooth="yes"/>
      <point x="131" y="419"/>
      <point x="40" y="338"/>
      <point x="40" y="209" type="curve" smooth="yes"/>
      <point x="40" y="75"/>
      <point x="126" y="-10"/>
    </contour>
    <contour>
      <point x="242" y="18" type="curve" smooth="yes"/>
      <point x="132.35502958579883" y="18.0"/>
      <point x="72.0" y="102.99999999999999"/>
      <point x="72" y="208" type="curve" smooth="yes"/>
      <point x="72.0" y="309.0"/>
      <point x="139.39880952380952" y="391.0"/>
      <point x="241" y="391" type="curve" smooth="yes"/>
      <point x="333.52272727272725" y="391.0"/>
      <point x="403.9978441812287" y="325.01293491262794"/>
      <point x="418" y="241" type="curve"/>
      <point x="418.0" y="104.0"/>
      <point x="344.58285714285716" y="18.0"/>
    </contour>
  </outline>
</glyph>
<glyph name="product" format="2">
  <advance width="442"/>
  <unicode hex="220F"/>
  <outline>
    <contour>
      <point x="60" y="0" type="line"/>
      <point x="92" y="0" type="line"/>
      <point x="92" y="630" type="line"/>
      <point x="350" y="630" type="line"/>
      <point x="350" y="0" type="line"/>
      <point x="382" y="0" type="line"/>
      <point x="382" y="658" type="line"/>
      <point x="60" y="658" type="line"/>
    </contour>
  </outline>
</glyph>
<glyph name="summation" format="2">
  <advance width="462"/>
  <unicode hex="2211"/>
  <outline>
    <contour>
      <point x="40" y="0" type="line"/>
      <point x="422" y="0" type="line"/>
      <point x="422" y="32" type="line"/>
      <point x="60" y="32" type="line"/>
      <point x="60" y="4" type="line"/>
      <point x="340" y="334" type="line"/>
      <point x="70" y="649" type="line"/>
      <point x="58" y="630" type="line"/>
      <point x="420" y="630" type="line"/>
      <point x="420" y="658" type="line"/>
      <point x="40" y="658" type="line"/>
      <point x="40" y="635" type="line"/>
      <point x="308" y="323" type="line"/>
      <point x="308" y="339" type="line"/>
      <point x="40" y="23" type="line"/>
    </contour>
  </outline>
</glyph>
<glyph name="radical" format="2">
  <advance width="540"/>
  <unicode hex="221A"/>
  <outline>
    <contour>
      <point x="207" y="-10" type="line"/>
      <point x="232" y="-10" type="line"/>
      <point x="524" y="730" type="line"/>
      <point x="494" y="730" type="line"/>
      <point x="210" y="11" type="line"/>
      <point x="231" y="11" type="line"/>
      <point x="48" y="473" type="line"/>
      <point x="16" y="473" type="line"/>
    </contour>
  </outline>
</glyph>
<glyph name="infinity" format="2">
  <advance width="792"/>
  <unicode hex="221E"/>
  <outline>
    <contour>
      <point x="212" y="57" type="curve" smooth="yes"/>
      <point x="283" y="57"/>
      <point x="339" y="108"/>
      <point x="407" y="216" type="curve"/>
      <point x="381" y="228" type="line"/>
      <point x="316" y="122"/>
      <point x="268" y="85"/>
      <point x="212" y="85" type="curve" smooth="yes"/>
      <point x="134" y="85"/>
      <point x="82" y="139"/>
      <point x="82" y="224" type="curve" smooth="yes"/>
      <point x="82" y="307"/>
      <point x="134" y="360"/>
      <point x="212" y="360" type="curve" smooth="yes"/>
      <point x="267" y="360"/>
      <point x="312" y="327"/>
      <point x="371" y="234" type="curve" smooth="yes"/>
      <point x="390" y="204" type="line" smooth="yes"/>
      <point x="453" y="105"/>
      <point x="507" y="57"/>
      <point x="582" y="57" type="curve" smooth="yes"/>
      <point x="676" y="57"/>
      <point x="740" y="121"/>
      <point x="740" y="223" type="curve" smooth="yes"/>
      <point x="740" y="323"/>
      <point x="677" y="386"/>
      <point x="583" y="386" type="curve" smooth="yes"/>
      <point x="510" y="386"/>
      <point x="453" y="336"/>
      <point x="384" y="233" type="curve"/>
      <point x="410" y="221" type="line"/>
      <point x="479" y="322"/>
      <point x="526" y="358"/>
      <point x="583" y="358" type="curve" smooth="yes"/>
      <point x="658" y="358"/>
      <point x="710" y="305"/>
      <point x="710" y="222" type="curve" smooth="yes"/>
      <point x="710" y="138"/>
      <point x="658" y="85"/>
      <point x="582" y="85" type="curve" smooth="yes"/>
      <point x="526" y="85"/>
      <point x="480" y="120"/>
      <point x="418" y="219" type="curve" smooth="yes"/>
      <point x="399" y="249" type="line" smooth="yes"/>
      <point x="339" y="343"/>
      <point x="286" y="388"/>
      <point x="212" y="388" type="curve" smooth="yes"/>
      <point x="115" y="388"/>
      <point x="52" y="324"/>
      <point x="52" y="222" type="curve" smooth="yes"/>
      <point x="52" y="121"/>
      <point x="115" y="57"/>
    </contour>
  </outline>
</glyph>
<glyph name="integral" format="2">
  <advance width="503"/>
  <unicode hex="222B"/>
  <outline>
    <contour>
      <point x="44" y="-228" type="curve" smooth="yes"/>
      <point x="119" y="-228"/>
      <point x="177" y="-174"/>
      <point x="192" y="-62" type="curve" smooth="yes"/>
      <point x="279" y="568" type="line" smooth="yes"/>
      <point x="291" y="655"/>
      <point x="331" y="707"/>
      <point x="399" y="707" type="curve" smooth="yes"/>
      <point x="434" y="707"/>
      <point x="467" y="698"/>
      <point x="499" y="678" type="curve"/>
      <point x="499" y="712" type="line"/>
      <point x="467" y="729"/>
      <point x="435" y="737"/>
      <point x="401" y="737" type="curve" smooth="yes"/>
      <point x="321" y="737"/>
      <point x="263" y="682"/>
      <point x="247" y="568" type="curve" smooth="yes"/>
      <point x="160" y="-62" type="line" smooth="yes"/>
      <point x="149" y="-145"/>
      <point x="111" y="-198"/>
      <point x="46" y="-198" type="curve" smooth="yes"/>
      <point x="12" y="-198"/>
      <point x="-18" y="-188"/>
      <point x="-44" y="-168" type="curve"/>
      <point x="-44" y="-202" type="line"/>
      <point x="-17" y="-220"/>
      <point x="12" y="-228"/>
    </contour>
  </outline>
</glyph>
<glyph name="approxequal" format="2">
  <advance width="378"/>
  <unicode hex="2248"/>
  <outline>
    <contour>
      <point x="72" y="326" type="line"/>
      <point x="89" y="349"/>
      <point x="107" y="362"/>
      <point x="129" y="362" type="curve" smooth="yes"/>
      <point x="153" y="362"/>
      <point x="166" y="355"/>
      <point x="186" y="339" type="curve" smooth="yes"/>
      <point x="204" y="325"/>
      <point x="226" y="320"/>
      <point x="246" y="320" type="curve" smooth="yes"/>
      <point x="272" y="320"/>
      <point x="301" y="336"/>
      <point x="318" y="365" type="curve"/>
      <point x="306" y="385" type="line"/>
      <point x="291" y="365"/>
      <point x="272" y="349"/>
      <point x="249" y="349" type="curve" smooth="yes"/>
      <point x="227" y="349"/>
      <point x="210" y="357"/>
      <point x="192" y="372" type="curve" smooth="yes"/>
      <point x="173" y="387"/>
      <point x="154" y="391"/>
      <point x="132" y="391" type="curve" smooth="yes"/>
      <point x="107" y="391"/>
      <point x="76" y="375"/>
      <point x="60" y="346" type="curve"/>
    </contour>
    <contour>
      <point x="72" y="181" type="line"/>
      <point x="89" y="204"/>
      <point x="107" y="217"/>
      <point x="129" y="217" type="curve" smooth="yes"/>
      <point x="153" y="217"/>
      <point x="166" y="210"/>
      <point x="186" y="194" type="curve" smooth="yes"/>
      <point x="204" y="180"/>
      <point x="226" y="175"/>
      <point x="246" y="175" type="curve" smooth="yes"/>
      <point x="272" y="175"/>
      <point x="301" y="191"/>
      <point x="318" y="220" type="curve"/>
      <point x="306" y="240" type="line"/>
      <point x="291" y="220"/>
      <point x="272" y="204"/>
      <point x="249" y="204" type="curve" smooth="yes"/>
      <point x="227" y="204"/>
      <point x="210" y="212"/>
      <point x="192" y="227" type="curve" smooth="yes"/>
      <point x="173" y="242"/>
      <point x="154" y="246"/>
      <point x="132" y="246" type="curve" smooth="yes"/>
      <point x="107" y="246"/>
      <point x="76" y="230"/>
      <point x="60" y="201" type="curve"/>
    </contour>
  </outline>
</glyph>
<glyph name="notequal" format="2">
  <advance width="548"/>
  <unicode hex="2260"/>
  <outline>
    <contour>
      <point x="182" y="80" type="line"/>
      <point x="212" y="80" type="line"/>
      <point x="357" y="488" type="line"/>
      <point x="327" y="488" type="line"/>
    </contour>
    <component base="equal"/>
  </outline>
</glyph>
<glyph name="greaterequal" format="2">
  <advance width="412"/>
  <unicode hex="2265"/>
  <outline>
    <contour>
      <point x="67" y="-28" type="line"/>
      <point x="344" y="-28" type="line"/>
      <point x="344" y="0" type="line"/>
      <point x="67" y="0" type="line"/>
    </contour>
    <contour>
      <point x="60" y="79" type="line"/>
      <point x="108" y="79" type="line"/>
      <point x="352" y="277" type="line"/>
      <point x="108" y="475" type="line"/>
      <point x="60" y="475" type="line"/>
      <point x="304" y="277" type="line"/>
    </contour>
  </outline>
</glyph>
<glyph name="lozenge" format="2">
  <advance width="608"/>
  <unicode hex="25CA"/>
  <outline>
    <contour>
      <point x="304" y="-11" type="line"/>
      <point x="564" y="338" type="line"/>
      <point x="304" y="687" type="line"/>
      <point x="44" y="338" type="line"/>
    </contour>
    <contour>
      <point x="304" y="39" type="line"/>
      <point x="81" y="338" type="line"/>
      <point x="304" y="638" type="line"/>
      <point x="527" y="338" type="line"/>
    </contour>
  </outline>
</glyph>
<glyph name="checkmark" format="2">
  <advance width="543"/>
  <unicode hex="2713"/>
  <outline>
    <contour>
      <point x="203" y="-10" type="line"/>
      <point x="228" y="-10" type="line"/>
      <point x="519" y="729" type="line"/>
      <point x="489" y="729" type="line"/>
      <point x="207" y="11" type="line"/>
      <point x="226" y="11" type="line"/>
      <point x="44" y="473" type="line"/>
      <point x="12" y="473" type="line"/>
    </contour>
  </outline>
</glyph>
<glyph name="Omega" format="2">
  <advance width="686"/>
  <unicode hex="A7B6"/>
  <unicode hex="2126"/>
  <outline>
    <contour>
      <point x="63" y="0" type="line"/>
      <point x="302" y="0" type="line"/>
      <point x="302" y="91" type="line"/>
      <point x="161" y="112"/>
      <point x="73" y="229"/>
      <point x="73" y="359" type="curve" smooth="yes"/>
      <point x="73.0" y="522.5800711743773"/>
      <point x="177.0" y="641.0"/>
      <point x="343" y="641" type="curve" smooth="yes"/>
      <point x="510.0" y="641.0"/>
      <point x="613.0" y="521.5780141843971"/>
      <point x="613" y="358" type="curve" smooth="yes"/>
      <point x="613" y="227"/>
      <point x="520" y="111"/>
      <point x="371" y="91" type="curve"/>
      <point x="371" y="0" type="line"/>
      <point x="610" y="0" type="line"/>
      <point x="610" y="32" type="line"/>
      <point x="381" y="32" type="line"/>
      <point x="400" y="24" type="line"/>
      <point x="400" y="73" type="line"/>
      <point x="381" y="64" type="line"/>
      <point x="527" y="81"/>
      <point x="646" y="194"/>
      <point x="646" y="359" type="curve" smooth="yes"/>
      <point x="646.0" y="557.6366559485531"/>
      <point x="511.0" y="671.0"/>
      <point x="343" y="671" type="curve" smooth="yes"/>
      <point x="176.0" y="671.0"/>
      <point x="40.0" y="557.6389776357828"/>
      <point x="40" y="357" type="curve" smooth="yes"/>
      <point x="40" y="194"/>
      <point x="153" y="81"/>
      <point x="292" y="64" type="curve"/>
      <point x="273" y="73" type="line"/>
      <point x="273" y="24" type="line"/>
      <point x="292" y="32" type="line"/>
      <point x="63" y="32" type="line"/>
    </contour>
  </outline>
</glyph>
<glyph name="A.sc" format="2">
  <advance width="489"/>
  <anchor x="245" y="492" name="top"/>
  <anchor x="469" y="16" name="ogonek"/>
  <outline>
    <contour>
      <point x="16.0" y="0.0" type="line"/>
      <point x="47.0" y="0.0" type="line"/>
      <point x="120.0" y="175.0" type="line"/>
      <point x="106.0" y="175.0" type="line"/>
      <point x="381.0" y="175.0" type="line"/>
      <point x="366.0" y="175.0" type="line"/>
      <point x="439.0" y="0.0" type="line"/>
      <point x="473.0" y="0.0" type="line"/>
      <point x="262.0" y="508.0" type="line"/>
      <point x="227.0" y="508.0" type="line"/>
    </contour>
    <contour>
      <point x="132.0" y="204.0" type="line"/>
      <point x="228.0" y="436.0" type="line"/>
      <point x="247.0" y="482.0" type="line"/>
      <point x="239.0" y="482.0" type="line"/>
      <point x="258.0" y="436.0" type="line"/>
      <point x="354.0" y="204.0" type="line"/>
      <point x="372.0" y="204.0" type="line"/>
      <point x="118.0" y="204.0" type="line"/>
    </contour>
  </outline>
</glyph>
<glyph name="AE.sc" format="2">
  <advance width="697"/>
  <anchor x="425" y="492" name="top"/>
  <outline>
    <contour>
      <point x="20.0" y="0.0" type="line"/>
      <point x="54.0" y="0.0" type="line"/>
      <point x="159.0" y="168.0" type="line"/>
      <point x="142.0" y="168.0" type="line"/>
      <point x="346.0" y="168.0" type="line"/>
      <point x="346.0" y="0.0" type="line"/>
      <point x="645.0" y="0.0" type="line"/>
      <point x="645.0" y="29.0" type="line"/>
      <point x="377.0" y="29.0" type="line"/>
      <point x="377.0" y="244.0" type="line"/>
      <point x="626.0" y="244.0" type="line"/>
      <point x="626.0" y="273.0" type="line"/>
      <point x="377.0" y="273.0" type="line"/>
      <point x="377.0" y="479.0" type="line"/>
      <point x="634.0" y="479.0" type="line"/>
      <point x="634.0" y="508.0" type="line"/>
      <point x="337.0" y="508.0" type="line"/>
    </contour>
    <contour>
      <point x="177.0" y="197.0" type="line"/>
      <point x="326.0" y="436.0" type="line"/>
      <point x="360.0" y="491.0" type="line"/>
      <point x="346.0" y="491.0" type="line"/>
      <point x="346.0" y="197.0" type="line"/>
      <point x="164.0" y="197.0" type="line"/>
    </contour>
  </outline>
</glyph>
<glyph name="B.sc" format="2">
  <advance width="415"/>
  <outline>
    <contour>
      <point x="76" y="0" type="line"/>
      <point x="207" y="0" type="line" smooth="yes"/>
      <point x="310" y="0"/>
      <point x="363" y="55"/>
      <point x="363" y="137" type="curve" smooth="yes"/>
      <point x="363" y="205"/>
      <point x="318" y="257"/>
      <point x="238" y="266" type="curve"/>
      <point x="237" y="259" type="line"/>
      <point x="299" y="266"/>
      <point x="345" y="317"/>
      <point x="345" y="381" type="curve" smooth="yes"/>
      <point x="345" y="459"/>
      <point x="298" y="508"/>
      <point x="195" y="508" type="curve" smooth="yes"/>
      <point x="76" y="508" type="line" smooth="yes"/>
    </contour>
    <contour>
      <point x="107" y="275" type="line"/>
      <point x="107" y="479" type="line"/>
      <point x="195" y="479" type="line" smooth="yes"/>
      <point x="268" y="479"/>
      <point x="313" y="448"/>
      <point x="313" y="381" type="curve" smooth="yes"/>
      <point x="313" y="309"/>
      <point x="266" y="275"/>
      <point x="192" y="275" type="curve" smooth="yes"/>
    </contour>
    <contour>
      <point x="107" y="29" type="line"/>
      <point x="107" y="246" type="line"/>
      <point x="198" y="246" type="line" smooth="yes"/>
      <point x="279" y="246"/>
      <point x="331" y="212"/>
      <point x="331" y="137" type="curve" smooth="yes"/>
      <point x="331" y="65"/>
      <point x="281" y="29"/>
      <point x="207" y="29" type="curve" smooth="yes"/>
    </contour>
  </outline>
</glyph>
<glyph name="C.sc" format="2">
  <advance width="516"/>
  <anchor x="316" y="492" name="top"/>
  <anchor x="287" y="16" name="bottom"/>
  <outline>
    <contour>
      <point x="317" y="-10" type="curve" smooth="yes"/>
      <point x="373" y="-10"/>
      <point x="424" y="0"/>
      <point x="472" y="25" type="curve"/>
      <point x="472" y="57" type="line"/>
      <point x="424" y="31"/>
      <point x="373" y="19"/>
      <point x="317" y="19" type="curve" smooth="yes"/>
      <point x="174" y="19"/>
      <point x="84" y="110"/>
      <point x="84" y="255" type="curve" smooth="yes"/>
      <point x="84" y="401"/>
      <point x="174" y="491"/>
      <point x="317" y="491" type="curve" smooth="yes"/>
      <point x="368" y="491"/>
      <point x="416" y="480"/>
      <point x="465" y="457" type="curve"/>
      <point x="465" y="489" type="line"/>
      <point x="416" y="510"/>
      <point x="368" y="520"/>
      <point x="317" y="520" type="curve" smooth="yes"/>
      <point x="154" y="520"/>
      <point x="52" y="418"/>
      <point x="52" y="255" type="curve" smooth="yes"/>
      <point x="52" y="93"/>
      <point x="154" y="-10"/>
    </contour>
  </outline>
</glyph>
<glyph name="D.sc" format="2">
  <advance width="543"/>
  <anchor x="223" y="492" name="top"/>
  <outline>
    <contour>
      <point x="76" y="0" type="line"/>
      <point x="214" y="0" type="line" smooth="yes"/>
      <point x="389" y="0"/>
      <point x="491" y="98"/>
      <point x="491" y="260" type="curve" smooth="yes"/>
      <point x="491" y="415"/>
      <point x="388" y="508"/>
      <point x="213" y="508" type="curve" smooth="yes"/>
      <point x="76" y="508" type="line"/>
    </contour>
    <contour>
      <point x="107" y="29" type="line"/>
      <point x="107" y="479" type="line"/>
      <point x="211" y="479" type="line" smooth="yes"/>
      <point x="368" y="479"/>
      <point x="459" y="397"/>
      <point x="459" y="260" type="curve" smooth="yes"/>
      <point x="459" y="115"/>
      <point x="368" y="29"/>
      <point x="212" y="29" type="curve" smooth="yes"/>
    </contour>
  </outline>
</glyph>
<glyph name="E.sc" format="2">
  <advance width="427"/>
  <anchor x="222" y="492" name="top"/>
  <anchor x="375" y="16" name="ogonek"/>
  <outline>
    <contour>
      <point x="76" y="0" type="line"/>
      <point x="375" y="0" type="line"/>
      <point x="375" y="29" type="line"/>
      <point x="107" y="29" type="line"/>
      <point x="107" y="244" type="line"/>
      <point x="356" y="244" type="line"/>
      <point x="356" y="273" type="line"/>
      <point x="107" y="273" type="line"/>
      <point x="107" y="479" type="line"/>
      <point x="364" y="479" type="line"/>
      <point x="364" y="508" type="line"/>
      <point x="76" y="508" type="line"/>
    </contour>
  </outline>
</glyph>
<glyph name="Eng.sc" format="2">
  <advance width="582"/>
  <anchor x="700" y="492" name="top"/>
  <outline>
    <contour>
      <point x="378" y="-220" type="line" smooth="yes"/>
      <point x="460" y="-220"/>
      <point x="506" y="-169"/>
      <point x="506" y="-87" type="curve" smooth="yes"/>
      <point x="506" y="5" type="line"/>
      <point x="478" y="5" type="line"/>
      <point x="478" y="-87" type="line" smooth="yes"/>
      <point x="478" y="-153"/>
      <point x="442" y="-194"/>
      <point x="378" y="-194" type="curve" smooth="yes"/>
      <point x="370" y="-194" type="line"/>
      <point x="370" y="-220" type="line"/>
    </contour>
    <contour>
      <point x="76" y="0" type="line"/>
      <point x="105" y="0" type="line"/>
      <point x="105" y="430" type="line"/>
      <point x="105" y="496" type="line"/>
      <point x="84" y="496" type="line"/>
      <point x="130" y="430" type="line"/>
      <point x="478" y="0" type="line"/>
      <point x="506" y="0" type="line"/>
      <point x="506" y="508" type="line"/>
      <point x="477" y="508" type="line"/>
      <point x="477" y="77" type="line"/>
      <point x="477" y="12" type="line"/>
      <point x="500" y="12" type="line"/>
      <point x="455" y="77" type="line"/>
      <point x="106" y="508" type="line"/>
      <point x="76" y="508" type="line"/>
    </contour>
  </outline>
</glyph>
<glyph name="Eth.sc" format="2">
  <advance width="555"/>
  <outline>
    <contour>
      <point x="16" y="245" type="line"/>
      <point x="201" y="245" type="line"/>
      <point x="201" y="274" type="line"/>
      <point x="16" y="274" type="line"/>
    </contour>
    <component base="D.sc" xOffset="16"/>
  </outline>
</glyph>
<glyph name="Euro.lc" format="2">
  <advance width="517"/>
  <outline>
    <contour>
      <point x="32" y="177" type="line"/>
      <point x="316" y="177" type="line"/>
      <point x="316" y="205" type="line"/>
      <point x="32" y="205" type="line"/>
    </contour>
    <contour>
      <point x="32" y="266" type="line"/>
      <point x="316" y="266" type="line"/>
      <point x="316" y="294" type="line"/>
      <point x="32" y="294" type="line"/>
    </contour>
    <component base="c" xOffset="31"/>
  </outline>
</glyph>
<glyph name="Euro.sc" format="2">
  <advance width="570"/>
  <outline>
    <contour>
      <point x="32" y="190" type="line"/>
      <point x="291" y="190" type="line"/>
      <point x="291" y="219" type="line"/>
      <point x="32" y="219" type="line"/>
    </contour>
    <contour>
      <point x="32" y="282" type="line"/>
      <point x="291" y="282" type="line"/>
      <point x="291" y="311" type="line"/>
      <point x="32" y="311" type="line"/>
    </contour>
    <component base="C.sc" xOffset="38"/>
  </outline>
</glyph>
<glyph name="Euro.tab" format="2">
  <advance width="650"/>
  <outline>
    <contour>
      <point x="398" y="-12" type="curve" smooth="yes"/>
      <point x="469" y="-12"/>
      <point x="531" y="5"/>
      <point x="591" y="41" type="curve"/>
      <point x="591" y="77" type="line"/>
      <point x="530" y="37"/>
      <point x="467" y="17"/>
      <point x="398" y="17" type="curve" smooth="yes"/>
      <point x="235" y="17"/>
      <point x="132" y="135"/>
      <point x="132" y="326" type="curve" smooth="yes"/>
      <point x="132" y="515"/>
      <point x="235" y="633"/>
      <point x="398" y="633" type="curve" smooth="yes"/>
      <point x="467" y="633"/>
      <point x="527" y="615"/>
      <point x="584" y="577" type="curve"/>
      <point x="584" y="613" type="line"/>
      <point x="526" y="646"/>
      <point x="466" y="662"/>
      <point x="398" y="662" type="curve" smooth="yes"/>
      <point x="216" y="662"/>
      <point x="102" y="532"/>
      <point x="102" y="326" type="curve" smooth="yes"/>
      <point x="102" y="118"/>
      <point x="216" y="-12"/>
    </contour>
    <contour>
      <point x="59" y="272" type="line"/>
      <point x="287" y="272" type="line"/>
      <point x="287" y="301" type="line"/>
      <point x="59" y="301" type="line"/>
    </contour>
    <contour>
      <point x="59" y="365" type="line"/>
      <point x="287" y="365" type="line"/>
      <point x="287" y="394" type="line"/>
      <point x="59" y="394" type="line"/>
    </contour>
  </outline>
</glyph>
<glyph name="F.sc" format="2">
  <advance width="380"/>
  <outline>
    <contour>
      <point x="76" y="0" type="line"/>
      <point x="107" y="0" type="line"/>
      <point x="107" y="240" type="line"/>
      <point x="332" y="240" type="line"/>
      <point x="332" y="269" type="line"/>
      <point x="107" y="269" type="line"/>
      <point x="107" y="479" type="line"/>
      <point x="340" y="479" type="line"/>
      <point x="340" y="508" type="line"/>
      <point x="76" y="508" type="line"/>
    </contour>
  </outline>
</glyph>
<glyph name="G.sc" format="2">
  <advance width="546"/>
  <anchor x="304" y="492" name="top"/>
  <anchor x="303" y="16" name="bottom"/>
  <outline>
    <contour>
      <point x="317" y="-10" type="curve" smooth="yes"/>
      <point x="376" y="-10"/>
      <point x="429" y="4"/>
      <point x="482" y="33" type="curve"/>
      <point x="482" y="241" type="line"/>
      <point x="331" y="241" type="line"/>
      <point x="331" y="212" type="line"/>
      <point x="451" y="212" type="line"/>
      <point x="451" y="54" type="line"/>
      <point x="408" y="30"/>
      <point x="364" y="19"/>
      <point x="317" y="19" type="curve" smooth="yes"/>
      <point x="174" y="19"/>
      <point x="84" y="110"/>
      <point x="84" y="256" type="curve" smooth="yes"/>
      <point x="84" y="402"/>
      <point x="174" y="491"/>
      <point x="317" y="491" type="curve" smooth="yes"/>
      <point x="368" y="491"/>
      <point x="416" y="480"/>
      <point x="465" y="457" type="curve"/>
      <point x="465" y="489" type="line"/>
      <point x="416" y="510"/>
      <point x="368" y="520"/>
      <point x="317" y="520" type="curve" smooth="yes"/>
      <point x="154" y="520"/>
      <point x="52" y="418"/>
      <point x="52" y="256" type="curve" smooth="yes"/>
      <point x="52" y="93"/>
      <point x="154" y="-10"/>
    </contour>
  </outline>
</glyph>
<glyph name="H.sc" format="2">
  <advance width="534"/>
  <anchor x="267" y="492" name="top"/>
  <outline>
    <contour>
      <point x="76" y="0" type="line"/>
      <point x="107" y="0" type="line"/>
      <point x="107" y="248" type="line"/>
      <point x="427" y="248" type="line"/>
      <point x="427" y="0" type="line"/>
      <point x="458" y="0" type="line"/>
      <point x="458" y="508" type="line"/>
      <point x="427" y="508" type="line"/>
      <point x="427" y="277" type="line"/>
      <point x="107" y="277" type="line"/>
      <point x="107" y="508" type="line"/>
      <point x="76" y="508" type="line"/>
    </contour>
  </outline>
</glyph>
<glyph name="Hbar.sc" format="2">
  <advance width="518"/>
  <outline>
    <contour>
      <point x="68" y="0" type="line"/>
      <point x="99" y="0" type="line"/>
      <point x="99" y="248" type="line"/>
      <point x="419" y="248" type="line"/>
      <point x="419" y="0" type="line"/>
      <point x="450" y="0" type="line"/>
      <point x="450" y="508" type="line"/>
      <point x="419" y="508" type="line"/>
      <point x="419" y="277" type="line"/>
      <point x="99" y="277" type="line"/>
      <point x="99" y="508" type="line"/>
      <point x="68" y="508" type="line"/>
    </contour>
    <contour>
      <point x="20" y="380" type="line"/>
      <point x="498" y="380" type="line"/>
      <point x="498" y="407" type="line"/>
      <point x="20" y="407" type="line"/>
    </contour>
  </outline>
</glyph>
<glyph name="I.sc" format="2">
  <advance width="183"/>
  <anchor x="92" y="492" name="top"/>
  <anchor x="105" y="16" name="ogonek"/>
  <outline>
    <contour>
      <point x="76" y="0" type="line"/>
      <point x="107" y="0" type="line"/>
      <point x="107" y="508" type="line"/>
      <point x="76" y="508" type="line"/>
    </contour>
  </outline>
</glyph>
<glyph name="J.base" format="2">
  <advance width="245"/>
  <anchor x="153" y="642" name="top"/>
  <outline>
    <contour>
      <point x="40" y="-16" type="line" smooth="yes"/>
      <point x="120" y="-16"/>
      <point x="169.0" y="36.0"/>
      <point x="169" y="118" type="curve" smooth="yes"/>
      <point x="169" y="658" type="line"/>
      <point x="137" y="658" type="line"/>
      <point x="137" y="118" type="line" smooth="yes"/>
      <point x="137.0" y="52.0"/>
      <point x="100" y="13"/>
      <point x="40" y="13" type="curve" smooth="yes"/>
      <point x="32" y="13" type="line"/>
      <point x="32" y="-16" type="line"/>
    </contour>
  </outline>
</glyph>
<glyph name="J.base_sc" format="2">
  <advance width="245"/>
  <anchor x="153" y="471" name="top"/>
  <outline>
    <contour>
      <point x="40" y="-16" type="line" smooth="yes"/>
      <point x="124" y="-16"/>
      <point x="169.0" y="38.0"/>
      <point x="169" y="120" type="curve" smooth="yes"/>
      <point x="169" y="508" type="line"/>
      <point x="138" y="508" type="line"/>
      <point x="138" y="120" type="line" smooth="yes"/>
      <point x="138.0" y="54.0"/>
      <point x="105" y="13"/>
      <point x="40" y="13" type="curve" smooth="yes"/>
      <point x="32" y="13" type="line"/>
      <point x="32" y="-16" type="line"/>
    </contour>
  </outline>
</glyph>
<glyph name="J.sc" format="2">
  <advance width="181"/>
  <anchor x="90" y="492" name="top"/>
  <outline>
    <contour>
      <point x="-24" y="-220" type="line" smooth="yes"/>
      <point x="60" y="-220"/>
      <point x="105.0" y="-166.0"/>
      <point x="105" y="-84" type="curve" smooth="yes"/>
      <point x="105" y="508" type="line"/>
      <point x="74" y="508" type="line"/>
      <point x="74" y="-84" type="line" smooth="yes"/>
      <point x="74.0" y="-150.0"/>
      <point x="41" y="-192"/>
      <point x="-24" y="-192" type="curve" smooth="yes"/>
      <point x="-32" y="-192" type="line"/>
      <point x="-32" y="-220" type="line"/>
    </contour>
  </outline>
</glyph>
<glyph name="K.sc" format="2">
  <advance width="437"/>
  <anchor x="243" y="16" name="bottom"/>
  <outline>
    <contour>
      <point x="76" y="0" type="line"/>
      <point x="107" y="0" type="line"/>
      <point x="107" y="254" type="line"/>
      <point x="100" y="254" type="line"/>
      <point x="368" y="0" type="line"/>
      <point x="413" y="0" type="line"/>
      <point x="132" y="265" type="line"/>
      <point x="133" y="251" type="line"/>
      <point x="389" y="508" type="line"/>
      <point x="349" y="508" type="line"/>
      <point x="100" y="258" type="line"/>
      <point x="107" y="258" type="line"/>
      <point x="107" y="508" type="line"/>
      <point x="76" y="508" type="line"/>
    </contour>
  </outline>
</glyph>
<glyph name="Lslash.sc" format="2">
  <advance width="367"/>
  <outline>
    <contour>
      <point x="0" y="214" type="line"/>
      <point x="180" y="288" type="line"/>
      <point x="180" y="319" type="line"/>
      <point x="0" y="245" type="line"/>
    </contour>
    <component base="L.sc" xOffset="-1"/>
  </outline>
</glyph>
<glyph name="M.sc" format="2">
  <advance width="652"/>
  <outline>
    <contour>
      <point x="76" y="0" type="line"/>
      <point x="105" y="0" type="line"/>
      <point x="105" y="436" type="line"/>
      <point x="105" y="496" type="line"/>
      <point x="90" y="496" type="line"/>
      <point x="123" y="436" type="line"/>
      <point x="310" y="95" type="line"/>
      <point x="338" y="95" type="line"/>
      <point x="526" y="436" type="line"/>
      <point x="559" y="496" type="line"/>
      <point x="545" y="496" type="line"/>
      <point x="545" y="436" type="line"/>
      <point x="545" y="0" type="line"/>
      <point x="576" y="0" type="line"/>
      <point x="576" y="508" type="line"/>
      <point x="533" y="508" type="line"/>
      <point x="345" y="165" type="line"/>
      <point x="315" y="110" type="line"/>
      <point x="337" y="110" type="line"/>
      <point x="307" y="165" type="line"/>
      <point x="119" y="508" type="line"/>
      <point x="76" y="508" type="line"/>
    </contour>
  </outline>
</glyph>
<glyph name="N.sc" format="2">
  <advance width="582"/>
  <anchor x="299" y="492" name="top"/>
  <anchor x="291" y="16" name="bottom"/>
  <outline>
    <contour>
      <point x="76" y="0" type="line"/>
      <point x="105" y="0" type="line"/>
      <point x="105" y="436" type="line"/>
      <point x="105" y="496" type="line"/>
      <point x="86" y="496" type="line"/>
      <point x="132" y="436" type="line"/>
      <point x="466" y="0" type="line"/>
      <point x="506" y="0" type="line"/>
      <point x="506" y="508" type="line"/>
      <point x="477" y="508" type="line"/>
      <point x="477" y="72" type="line"/>
      <point x="477" y="12" type="line"/>
      <point x="496" y="12" type="line"/>
      <point x="450" y="72" type="line"/>
      <point x="116" y="508" type="line"/>
      <point x="76" y="508" type="line"/>
    </contour>
  </outline>
</glyph>
<glyph name="O.sc" format="2">
  <advance width="604"/>
  <anchor x="303" y="492" name="top"/>
  <outline>
    <contour>
      <point x="302" y="-12" type="curve" smooth="yes"/>
      <point x="452" y="-12"/>
      <point x="552" y="97"/>
      <point x="552" y="259" type="curve" smooth="yes"/>
      <point x="552" y="415"/>
      <point x="452" y="520"/>
      <point x="302" y="520" type="curve" smooth="yes"/>
      <point x="152" y="520"/>
      <point x="52" y="415"/>
      <point x="52" y="259" type="curve" smooth="yes"/>
      <point x="52" y="97"/>
      <point x="152" y="-12"/>
    </contour>
    <contour>
      <point x="302" y="16" type="curve" smooth="yes"/>
      <point x="171" y="16"/>
      <point x="84" y="114"/>
      <point x="84" y="259" type="curve" smooth="yes"/>
      <point x="84" y="398"/>
      <point x="171" y="492"/>
      <point x="302" y="492" type="curve" smooth="yes"/>
      <point x="433" y="492"/>
      <point x="520" y="398"/>
      <point x="520" y="259" type="curve" smooth="yes"/>
      <point x="520" y="114"/>
      <point x="433" y="16"/>
    </contour>
  </outline>
</glyph>
<glyph name="OE.sc" format="2">
  <advance width="724"/>
  <anchor x="840" y="492" name="top"/>
  <outline>
    <contour>
      <point x="325" y="0" type="curve" smooth="yes"/>
      <point x="672" y="0" type="line"/>
      <point x="672" y="29" type="line"/>
      <point x="404" y="29" type="line"/>
      <point x="404" y="244" type="line"/>
      <point x="653" y="244" type="line"/>
      <point x="653" y="273" type="line"/>
      <point x="404" y="273" type="line"/>
      <point x="404" y="479" type="line"/>
      <point x="661" y="479" type="line"/>
      <point x="661" y="508" type="line"/>
      <point x="327" y="508" type="line" smooth="yes"/>
      <point x="158" y="508"/>
      <point x="52" y="410"/>
      <point x="52" y="255" type="curve" smooth="yes"/>
      <point x="52" y="98"/>
      <point x="157" y="0"/>
    </contour>
    <contour>
      <point x="325" y="29" type="line" smooth="yes"/>
      <point x="177" y="29"/>
      <point x="83" y="115"/>
      <point x="83" y="255" type="curve" smooth="yes"/>
      <point x="83" y="393"/>
      <point x="177" y="479"/>
      <point x="327" y="479" type="curve" smooth="yes"/>
      <point x="373" y="479" type="line"/>
      <point x="373" y="29" type="line"/>
    </contour>
  </outline>
</glyph>
<glyph name="Oslash.sc" format="2">
  <advance width="604"/>
  <anchor x="291" y="492" name="top"/>
  <outline>
    <contour>
      <point x="102" y="-48" type="line"/>
      <point x="136" y="-48" type="line"/>
      <point x="506" y="556" type="line"/>
      <point x="472" y="556" type="line"/>
    </contour>
    <component base="O.sc"/>
  </outline>
</glyph>
<glyph name="Oslash.sc_AT_weight800" format="2">
  <advance width="604"/>
  <anchor x="291.0" y="492.0" name="top"/>
  <outline>
    <contour>
      <point x="424.0" y="477.0" type="line"/>
      <point x="448.0" y="462.0" type="line"/>
      <point x="506.0" y="556.0" type="line"/>
      <point x="472.0" y="556.0" type="line"/>
    </contour>
    <contour>
      <point x="102.0" y="-48.0" type="line"/>
      <point x="136.0" y="-48.0" type="line"/>
      <point x="186.0" y="34.0" type="line"/>
      <point x="162.0" y="50.0" type="line"/>
    </contour>
    <component base="O.sc"/>
  </outline>
</glyph>
<glyph name="Oslash_AT_weight800" format="2">
  <advance width="778"/>
  <anchor x="392.0" y="642.0" name="top"/>
  <outline>
    <contour>
      <point x="547" y="613" type="line"/>
      <point x="571" y="597" type="line"/>
      <point x="638" y="706" type="line"/>
      <point x="604" y="706" type="line"/>
    </contour>
    <contour>
      <point x="141" y="-48" type="line"/>
      <point x="175" y="-48" type="line"/>
      <point x="229" y="40" type="line"/>
      <point x="204" y="55" type="line"/>
    </contour>
    <component base="O"/>
  </outline>
</glyph>
<glyph name="Oslashacute.sc" format="2">
  <advance width="604"/>
  <outline>
    <contour>
      <point x="102" y="-48" type="line"/>
      <point x="136" y="-48" type="line"/>
      <point x="506" y="556" type="line"/>
      <point x="472" y="556" type="line"/>
    </contour>
    <component base="O.sc"/>
    <component base="acutecmb.uc" xOffset="291" yOffset="-150"/>
  </outline>
</glyph>
<glyph name="Oslashacute.sc_AT_weight800" format="2">
  <advance width="604"/>
  <outline>
    <contour>
      <point x="424.0" y="477.0" type="line"/>
      <point x="449.0" y="463.0" type="line"/>
      <point x="506.0" y="556.0" type="line"/>
      <point x="472.0" y="556.0" type="line"/>
    </contour>
    <contour>
      <point x="102.0" y="-48.0" type="line"/>
      <point x="136.0" y="-48.0" type="line"/>
      <point x="186.0" y="33.0" type="line"/>
      <point x="162.0" y="49.0" type="line"/>
    </contour>
    <component base="O.sc"/>
    <component base="acutecmb.uc" xOffset="313" yOffset="-158"/>
  </outline>
</glyph>
<glyph name="Oslashacute_AT_weight800" format="2">
  <advance width="778"/>
  <anchor x="389" y="642" name="top"/>
  <outline>
    <contour>
      <point x="548" y="615" type="line"/>
      <point x="573" y="599" type="line"/>
      <point x="638" y="706" type="line"/>
      <point x="604" y="706" type="line"/>
    </contour>
    <contour>
      <point x="141" y="-48" type="line"/>
      <point x="175" y="-48" type="line"/>
      <point x="231" y="43" type="line"/>
      <point x="204" y="55" type="line"/>
    </contour>
    <component base="O"/>
    <component base="acutecmb.uc" xOffset="392" yOffset="8"/>
  </outline>
</glyph>
<glyph name="P.sc" format="2">
  <advance width="384"/>
  <outline>
    <contour>
      <point x="76" y="0" type="line"/>
      <point x="107" y="0" type="line"/>
      <point x="107" y="201" type="line"/>
      <point x="175" y="201" type="line" smooth="yes"/>
      <point x="287" y="201"/>
      <point x="348" y="263"/>
      <point x="348" y="355" type="curve" smooth="yes"/>
      <point x="348" y="446"/>
      <point x="287" y="508"/>
      <point x="175" y="508" type="curve" smooth="yes"/>
      <point x="76" y="508" type="line"/>
    </contour>
    <contour>
      <point x="107" y="230" type="line"/>
      <point x="107" y="479" type="line"/>
      <point x="174" y="479" type="line" smooth="yes"/>
      <point x="257" y="479"/>
      <point x="316" y="436"/>
      <point x="316" y="355" type="curve" smooth="yes"/>
      <point x="316" y="273"/>
      <point x="257" y="230"/>
      <point x="175" y="230" type="curve" smooth="yes"/>
    </contour>
  </outline>
</glyph>
<glyph name="Q.sc" format="2">
  <advance width="604"/>
  <outline>
    <contour>
      <point x="543" y="-140" type="curve"/>
      <point x="543" y="-106" type="line"/>
      <point x="458" y="-77"/>
      <point x="392" y="-45"/>
      <point x="327" y="5" type="curve"/>
      <point x="293" y="-6" type="line"/>
      <point x="364" y="-64"/>
      <point x="454" y="-112"/>
    </contour>
    <component base="O.sc"/>
  </outline>
</glyph>
<glyph name="R.sc" format="2">
  <advance width="432"/>
  <anchor x="209" y="492" name="top"/>
  <anchor x="212" y="16" name="bottom"/>
  <outline>
    <contour>
      <point x="76" y="0" type="line"/>
      <point x="107" y="0" type="line"/>
      <point x="107" y="237" type="line"/>
      <point x="169" y="237" type="line" smooth="yes"/>
      <point x="203" y="237"/>
      <point x="248" y="224"/>
      <point x="274" y="172" type="curve" smooth="yes"/>
      <point x="360" y="0" type="line"/>
      <point x="396" y="0" type="line"/>
      <point x="299" y="190" type="line" smooth="yes"/>
      <point x="277" y="233"/>
      <point x="238" y="250"/>
      <point x="200" y="250" type="curve"/>
      <point x="200" y="239" type="line"/>
      <point x="309" y="240"/>
      <point x="359" y="296"/>
      <point x="359" y="380" type="curve" smooth="yes"/>
      <point x="359" y="462"/>
      <point x="292" y="508"/>
      <point x="206" y="508" type="curve" smooth="yes"/>
      <point x="76" y="508" type="line"/>
    </contour>
    <contour>
      <point x="107" y="266" type="line"/>
      <point x="107" y="479" type="line"/>
      <point x="205" y="479" type="line" smooth="yes"/>
      <point x="282" y="479"/>
      <point x="326" y="438"/>
      <point x="326" y="379" type="curve" smooth="yes"/>
      <point x="326" y="308"/>
      <point x="281" y="266"/>
      <point x="212" y="266" type="curve" smooth="yes"/>
    </contour>
  </outline>
</glyph>
<glyph name="S.sc" format="2">
  <advance width="417"/>
  <anchor x="212" y="492" name="top"/>
  <anchor x="205" y="16" name="bottom"/>
  <outline>
    <contour>
      <point x="208" y="-12" type="curve" smooth="yes"/>
      <point x="302" y="-12"/>
      <point x="365" y="44"/>
      <point x="365" y="127" type="curve" smooth="yes"/>
      <point x="365" y="200"/>
      <point x="321" y="251"/>
      <point x="216" y="279" type="curve" smooth="yes"/>
      <point x="197" y="284" type="line" smooth="yes"/>
      <point x="123" y="304"/>
      <point x="90" y="343"/>
      <point x="90" y="393" type="curve" smooth="yes"/>
      <point x="90" y="452"/>
      <point x="138" y="491"/>
      <point x="210" y="491" type="curve" smooth="yes"/>
      <point x="263" y="491"/>
      <point x="310" y="476"/>
      <point x="354" y="447" type="curve"/>
      <point x="354" y="482" type="line"/>
      <point x="310" y="508"/>
      <point x="263" y="520"/>
      <point x="210" y="520" type="curve" smooth="yes"/>
      <point x="119" y="520"/>
      <point x="58" y="469"/>
      <point x="58" y="392" type="curve" smooth="yes"/>
      <point x="58" y="326"/>
      <point x="97" y="277"/>
      <point x="188" y="253" type="curve" smooth="yes"/>
      <point x="207" y="248" type="line" smooth="yes"/>
      <point x="293" y="225"/>
      <point x="333" y="184"/>
      <point x="333" y="126" type="curve" smooth="yes"/>
      <point x="333" y="60"/>
      <point x="283" y="17"/>
      <point x="208" y="17" type="curve" smooth="yes"/>
      <point x="148" y="17"/>
      <point x="98" y="34"/>
      <point x="52" y="72" type="curve"/>
      <point x="52" y="33" type="line"/>
      <point x="101" y="3"/>
      <point x="151" y="-12"/>
    </contour>
  </outline>
</glyph>
<glyph name="T.sc" format="2">
  <advance width="439"/>
  <anchor x="218" y="492" name="top"/>
  <anchor x="220" y="16" name="bottom"/>
  <outline>
    <contour>
      <point x="204" y="0" type="line"/>
      <point x="235" y="0" type="line"/>
      <point x="235" y="479" type="line"/>
      <point x="419" y="479" type="line"/>
      <point x="419" y="508" type="line"/>
      <point x="20" y="508" type="line"/>
      <point x="20" y="479" type="line"/>
      <point x="204" y="479" type="line"/>
    </contour>
  </outline>
</glyph>
<glyph name="Tbar.sc" format="2">
  <advance width="439"/>
  <outline>
    <contour>
      <point x="114" y="272" type="line"/>
      <point x="324" y="272" type="line"/>
      <point x="324" y="299" type="line"/>
      <point x="114" y="299" type="line"/>
    </contour>
    <component base="T.sc"/>
  </outline>
</glyph>
<glyph name="Thorn.sc" format="2">
  <advance width="452"/>
  <outline>
    <contour>
      <point x="76" y="0" type="line"/>
      <point x="107" y="0" type="line"/>
      <point x="107" y="103" type="line"/>
      <point x="173" y="103" type="line" smooth="yes"/>
      <point x="288" y="103"/>
      <point x="348" y="165"/>
      <point x="348" y="257" type="curve" smooth="yes"/>
      <point x="348" y="349"/>
      <point x="288" y="410"/>
      <point x="173" y="410" type="curve" smooth="yes"/>
      <point x="107" y="410" type="line"/>
      <point x="107" y="508" type="line"/>
      <point x="76" y="508" type="line"/>
    </contour>
    <contour>
      <point x="107" y="132" type="line"/>
      <point x="107" y="381" type="line"/>
      <point x="172" y="381" type="line" smooth="yes"/>
      <point x="258" y="381"/>
      <point x="316" y="339"/>
      <point x="316" y="257" type="curve" smooth="yes"/>
      <point x="316" y="175"/>
      <point x="259" y="132"/>
      <point x="173" y="132" type="curve" smooth="yes"/>
    </contour>
  </outline>
</glyph>
<glyph name="U.sc" format="2">
  <advance width="543"/>
  <anchor x="275" y="492" name="top"/>
  <outline>
    <contour>
      <point x="272" y="-12" type="curve" smooth="yes"/>
      <point x="405" y="-12"/>
      <point x="471" y="80"/>
      <point x="471" y="203" type="curve" smooth="yes"/>
      <point x="471" y="508" type="line"/>
      <point x="442" y="508" type="line"/>
      <point x="442" y="203" type="line" smooth="yes"/>
      <point x="442" y="86"/>
      <point x="375" y="17"/>
      <point x="272" y="17" type="curve" smooth="yes"/>
      <point x="171" y="17"/>
      <point x="103" y="86"/>
      <point x="103" y="203" type="curve" smooth="yes"/>
      <point x="103" y="508" type="line"/>
      <point x="72" y="508" type="line"/>
      <point x="72" y="203" type="line" smooth="yes"/>
      <point x="72" y="80"/>
      <point x="140" y="-12"/>
    </contour>
  </outline>
</glyph>
<glyph name="Uogonek.sc" format="2">
  <advance width="535"/>
  <outline>
    <contour>
      <point x="445" y="-220" type="curve"/>
      <point x="445" y="-192" type="line"/>
      <point x="366" y="-192"/>
      <point x="315" y="-145"/>
      <point x="315" y="-81" type="curve" smooth="yes"/>
      <point x="315" y="-36"/>
      <point x="338" y="-4"/>
      <point x="372" y="14" type="curve" smooth="yes"/>
      <point x="434" y="48"/>
      <point x="463" y="118"/>
      <point x="463" y="203" type="curve" smooth="yes"/>
      <point x="463" y="508" type="line"/>
      <point x="434" y="508" type="line"/>
      <point x="434" y="203" type="line" smooth="yes"/>
      <point x="434" y="86"/>
      <point x="371" y="17"/>
      <point x="268" y="17" type="curve" smooth="yes"/>
      <point x="167" y="17"/>
      <point x="103" y="86"/>
      <point x="103" y="203" type="curve" smooth="yes"/>
      <point x="103" y="508" type="line"/>
      <point x="72" y="508" type="line"/>
      <point x="72" y="203" type="line" smooth="yes"/>
      <point x="72" y="80"/>
      <point x="136" y="-12"/>
      <point x="268" y="-12" type="curve" smooth="yes"/>
      <point x="308" y="-12"/>
      <point x="332" y="-6"/>
      <point x="358" y="7" type="curve"/>
      <point x="362" y="34" type="line"/>
      <point x="320" y="15"/>
      <point x="286" y="-23"/>
      <point x="286" y="-81" type="curve" smooth="yes"/>
      <point x="286" y="-161"/>
      <point x="347" y="-220"/>
    </contour>
  </outline>
</glyph>
<glyph name="V.sc" format="2">
  <advance width="481"/>
  <outline>
    <contour>
      <point x="227" y="0" type="line"/>
      <point x="254" y="0" type="line"/>
      <point x="465" y="508" type="line"/>
      <point x="435" y="508" type="line"/>
      <point x="254" y="71" type="line"/>
      <point x="234" y="21" type="line"/>
      <point x="251" y="21" type="line"/>
      <point x="230" y="71" type="line"/>
      <point x="49" y="508" type="line"/>
      <point x="16" y="508" type="line"/>
    </contour>
  </outline>
</glyph>
<glyph name="W.sc" format="2">
  <advance width="710"/>
  <anchor x="356" y="492" name="top"/>
  <outline>
    <contour>
      <point x="178" y="0" type="line"/>
      <point x="207" y="0" type="line"/>
      <point x="348" y="437" type="line"/>
      <point x="363" y="485" type="line"/>
      <point x="347" y="485" type="line"/>
      <point x="362" y="437" type="line"/>
      <point x="503" y="0" type="line"/>
      <point x="532" y="0" type="line"/>
      <point x="694" y="508" type="line"/>
      <point x="664" y="508" type="line"/>
      <point x="524" y="71" type="line"/>
      <point x="509" y="23" type="line"/>
      <point x="528" y="23" type="line"/>
      <point x="513" y="71" type="line"/>
      <point x="373" y="508" type="line"/>
      <point x="340" y="508" type="line"/>
      <point x="200" y="71" type="line"/>
      <point x="185" y="23" type="line"/>
      <point x="204" y="23" type="line"/>
      <point x="189" y="71" type="line"/>
      <point x="49" y="508" type="line"/>
      <point x="16" y="508" type="line"/>
    </contour>
  </outline>
</glyph>
<glyph name="X.sc" format="2">
  <advance width="452"/>
  <outline>
    <contour>
      <point x="24" y="0" type="line"/>
      <point x="59" y="0" type="line"/>
      <point x="217" y="218" type="line"/>
      <point x="237" y="246" type="line"/>
      <point x="243" y="255" type="line"/>
      <point x="419" y="508" type="line"/>
      <point x="384" y="508" type="line"/>
      <point x="245" y="307" type="line"/>
      <point x="227" y="281" type="line"/>
      <point x="221" y="272" type="line"/>
    </contour>
    <contour>
      <point x="391" y="0" type="line"/>
      <point x="428" y="0" type="line"/>
      <point x="243" y="273" type="line"/>
      <point x="238" y="281" type="line"/>
      <point x="220" y="307" type="line"/>
      <point x="84" y="508" type="line"/>
      <point x="47" y="508" type="line"/>
      <point x="219" y="254" type="line"/>
      <point x="225" y="245" type="line"/>
      <point x="243" y="218" type="line"/>
    </contour>
  </outline>
</glyph>
<glyph name="Y.sc" format="2">
  <advance width="423"/>
  <anchor x="211" y="492" name="top"/>
  <outline>
    <contour>
      <point x="196" y="0" type="line"/>
      <point x="227" y="0" type="line"/>
      <point x="227" y="248" type="line"/>
      <point x="216" y="217" type="line"/>
      <point x="407" y="508" type="line"/>
      <point x="374" y="508" type="line"/>
      <point x="225" y="279" type="line"/>
      <point x="203" y="245" type="line"/>
      <point x="224" y="245" type="line"/>
      <point x="202" y="279" type="line"/>
      <point x="53" y="508" type="line"/>
      <point x="16" y="508" type="line"/>
      <point x="207" y="216" type="line"/>
      <point x="196" y="250" type="line"/>
    </contour>
  </outline>
</glyph>
<glyph name="Z.sc" format="2">
  <advance width="434"/>
  <anchor x="234" y="492" name="top"/>
  <outline>
    <contour>
      <point x="36" y="0" type="line"/>
      <point x="398" y="0" type="line"/>
      <point x="398" y="29" type="line"/>
      <point x="68" y="29" type="line"/>
      <point x="68" y="9" type="line"/>
      <point x="106" y="65" type="line"/>
      <point x="398" y="492" type="line"/>
      <point x="398" y="508" type="line"/>
      <point x="55" y="508" type="line"/>
      <point x="55" y="479" type="line"/>
      <point x="366" y="479" type="line"/>
      <point x="366" y="501" type="line"/>
      <point x="328" y="443" type="line"/>
      <point x="36" y="16" type="line"/>
    </contour>
  </outline>
</glyph>
<glyph name="a.sinf" format="2">
  <advance width="329"/>
  <anchor x="163" y="174" name="top"/>
  <anchor x="330" y="0" name="ogonek"/>
  <outline>
    <contour>
      <point x="150" y="-179" type="curve" smooth="yes"/>
      <point x="197" y="-179"/>
      <point x="234" y="-159"/>
      <point x="258" y="-122" type="curve"/>
      <point x="261" y="-170" type="line"/>
      <point x="289" y="-170" type="line"/>
      <point x="289" y="85" type="line" smooth="yes"/>
      <point x="289" y="161"/>
      <point x="243" y="199"/>
      <point x="169" y="199" type="curve" smooth="yes"/>
      <point x="128" y="199"/>
      <point x="93" y="188"/>
      <point x="56" y="168" type="curve"/>
      <point x="56" y="134" type="line"/>
      <point x="92" y="159"/>
      <point x="125" y="170"/>
      <point x="167" y="170" type="curve" smooth="yes"/>
      <point x="224" y="170"/>
      <point x="258" y="144"/>
      <point x="258" y="85" type="curve" smooth="yes"/>
      <point x="258" y="52" type="line"/>
      <point x="173" y="42" type="line" smooth="yes"/>
      <point x="88" y="30"/>
      <point x="40" y="-15"/>
      <point x="40" y="-77" type="curve" smooth="yes"/>
      <point x="40" y="-139"/>
      <point x="81" y="-179"/>
    </contour>
    <contour>
      <point x="154" y="-152" type="curve" smooth="yes"/>
      <point x="102" y="-152"/>
      <point x="72" y="-121"/>
      <point x="72" y="-76" type="curve" smooth="yes"/>
      <point x="72" y="-27"/>
      <point x="109" y="6"/>
      <point x="177" y="15" type="curve" smooth="yes"/>
      <point x="258" y="25" type="line"/>
      <point x="258" y="-84" type="line"/>
      <point x="240" y="-124"/>
      <point x="203" y="-152"/>
    </contour>
  </outline>
</glyph>
<glyph name="acutecmb.uc" format="2">
  <anchor x="0" y="642" name="_top"/>
  <anchor x="0" y="16" name="_bottom"/>
  <outline>
    <contour>
      <point x="0" y="724" type="line"/>
      <point x="101" y="849" type="line"/>
      <point x="62" y="849" type="line"/>
      <point x="-36" y="724" type="line"/>
    </contour>
  </outline>
</glyph>
<glyph name="ampersand.sc" format="2">
  <advance width="453"/>
  <outline>
    <contour>
      <point x="196" y="-12" type="curve" smooth="yes"/>
      <point x="261" y="-12"/>
      <point x="313" y="18"/>
      <point x="343" y="60" type="curve" smooth="yes"/>
      <point x="348" y="67" type="line" smooth="yes"/>
      <point x="384" y="117"/>
      <point x="398" y="190"/>
      <point x="398" y="272" type="curve"/>
      <point x="370" y="272" type="line"/>
      <point x="370" y="196"/>
      <point x="362" y="132"/>
      <point x="329" y="87" type="curve" smooth="yes"/>
      <point x="323" y="79" type="line" smooth="yes"/>
      <point x="291" y="37"/>
      <point x="252" y="16"/>
      <point x="195" y="16" type="curve" smooth="yes"/>
      <point x="110" y="16"/>
      <point x="56" y="70"/>
      <point x="56" y="147" type="curve" smooth="yes"/>
      <point x="56" y="208"/>
      <point x="91" y="262"/>
      <point x="146" y="286" type="curve"/>
      <point x="136" y="308" type="line"/>
      <point x="67" y="282"/>
      <point x="24" y="218"/>
      <point x="24" y="148" type="curve" smooth="yes"/>
      <point x="24" y="53"/>
      <point x="92" y="-12"/>
    </contour>
    <contour>
      <point x="380" y="0" type="line"/>
      <point x="421" y="0" type="line"/>
      <point x="156" y="300" type="line" smooth="yes"/>
      <point x="125" y="335"/>
      <point x="109" y="371"/>
      <point x="109" y="406" type="curve" smooth="yes"/>
      <point x="109" y="459"/>
      <point x="152" y="493"/>
      <point x="205" y="493" type="curve" smooth="yes"/>
      <point x="254" y="493"/>
      <point x="299" y="471"/>
      <point x="337" y="429" type="curve"/>
      <point x="337" y="466" type="line"/>
      <point x="302" y="502"/>
      <point x="257" y="521"/>
      <point x="205" y="521" type="curve" smooth="yes"/>
      <point x="127" y="521"/>
      <point x="77" y="468"/>
      <point x="77" y="404" type="curve" smooth="yes"/>
      <point x="77" y="365"/>
      <point x="95" y="324"/>
      <point x="131" y="283" type="curve" smooth="yes"/>
    </contour>
  </outline>
</glyph>
<glyph name="aogonekcmb" format="2">
  <anchor x="0" y="446.0" name="_top"/>
  <anchor x="0" y="16.0" name="_ogonek"/>
  <outline>
    <contour>
      <point x="0" y="-220" type="curve"/>
      <point x="0" y="-192" type="line"/>
      <point x="-58" y="-192"/>
      <point x="-85" y="-167"/>
      <point x="-85" y="-129" type="curve" smooth="yes"/>
      <point x="-85" y="-85"/>
      <point x="-59" y="-45"/>
      <point x="0" y="0" type="curve"/>
      <point x="-16" y="23" type="line"/>
      <point x="-84" y="-31"/>
      <point x="-114" y="-80"/>
      <point x="-114" y="-129" type="curve" smooth="yes"/>
      <point x="-114" y="-185"/>
      <point x="-77" y="-220"/>
    </contour>
  </outline>
</glyph>
<glyph name="b.sinf" format="2">
  <advance width="384"/>
  <outline>
    <contour>
      <point x="174" y="-179" type="curve" smooth="yes"/>
      <point x="279" y="-179"/>
      <point x="348" y="-104"/>
      <point x="348" y="14" type="curve" smooth="yes"/>
      <point x="348" y="127"/>
      <point x="285" y="199"/>
      <point x="190" y="199" type="curve" smooth="yes"/>
      <point x="150" y="199"/>
      <point x="109" y="183"/>
      <point x="83" y="155" type="curve"/>
      <point x="83" y="392" type="line"/>
      <point x="52" y="392" type="line"/>
      <point x="52" y="-157" type="line"/>
      <point x="91" y="-172"/>
      <point x="131" y="-179"/>
    </contour>
    <contour>
      <point x="175" y="-152" type="curve" smooth="yes"/>
      <point x="142" y="-152"/>
      <point x="113" y="-147"/>
      <point x="83" y="-137" type="curve"/>
      <point x="83" y="125" type="line"/>
      <point x="113" y="157"/>
      <point x="145" y="171"/>
      <point x="186" y="171" type="curve" smooth="yes"/>
      <point x="264" y="171"/>
      <point x="316" y="110"/>
      <point x="316" y="13" type="curve" smooth="yes"/>
      <point x="316" y="-88"/>
      <point x="259" y="-152"/>
    </contour>
  </outline>
</glyph>
<glyph name="backslash.sc" format="2">
  <advance width="351"/>
  <outline>
    <contour>
      <point x="302" y="0" type="line"/>
      <point x="335" y="0" type="line"/>
      <point x="49" y="508" type="line"/>
      <point x="16" y="508" type="line"/>
    </contour>
  </outline>
</glyph>
<glyph name="backslash.tab" format="2">
  <advance width="325"/>
  <outline>
    <contour>
      <point x="291" y="0" type="line"/>
      <point x="322" y="0" type="line"/>
      <point x="35" y="724" type="line"/>
      <point x="4" y="724" type="line"/>
    </contour>
  </outline>
</glyph>
<glyph name="bitcoin.lc" format="2">
  <advance width="390"/>
  <outline>
    <contour>
      <point x="76" y="0" type="line"/>
      <point x="76" y="462" type="line" smooth="yes"/>
      <point x="140" y="462" type="line"/>
      <point x="140" y="575" type="line"/>
      <point x="167" y="575" type="line"/>
      <point x="167" y="462" type="line"/>
      <point x="188" y="462" type="line" smooth="yes"/>
      <point x="198" y="462"/>
      <point x="207" y="462"/>
      <point x="216" y="461" type="curve"/>
      <point x="216" y="576" type="line"/>
      <point x="243" y="576" type="line"/>
      <point x="243" y="455" type="line"/>
      <point x="299" y="440"/>
      <point x="328" y="401"/>
      <point x="328" y="347" type="curve" smooth="yes"/>
      <point x="328" y="294"/>
      <point x="291" y="252"/>
      <point x="244" y="239" type="curve"/>
      <point x="306" y="226"/>
      <point x="342" y="181"/>
      <point x="342" y="125" type="curve" smooth="yes"/>
      <point x="342" y="63"/>
      <point x="307" y="18"/>
      <point x="243" y="5" type="curve"/>
      <point x="243" y="-114" type="line"/>
      <point x="216" y="-114" type="line"/>
      <point x="216" y="1" type="line"/>
      <point x="211" y="0"/>
      <point x="205" y="0"/>
      <point x="199" y="0" type="curve" smooth="yes"/>
      <point x="167" y="0" type="line"/>
      <point x="167" y="-114" type="line"/>
      <point x="140" y="-114" type="line"/>
      <point x="140" y="0" type="line"/>
    </contour>
    <contour>
      <point x="108" y="252" type="line"/>
      <point x="185" y="252" type="line" smooth="yes"/>
      <point x="252" y="252"/>
      <point x="295" y="281"/>
      <point x="295" y="347" type="curve" smooth="yes"/>
      <point x="295" y="407"/>
      <point x="254" y="433"/>
      <point x="188" y="433" type="curve" smooth="yes"/>
      <point x="108" y="433" type="line"/>
    </contour>
    <contour>
      <point x="108" y="29" type="line"/>
      <point x="199" y="29" type="line" smooth="yes"/>
      <point x="266" y="29"/>
      <point x="309" y="59"/>
      <point x="309" y="125" type="curve" smooth="yes"/>
      <point x="309" y="193"/>
      <point x="264" y="223"/>
      <point x="191" y="223" type="curve" smooth="yes"/>
      <point x="108" y="223" type="line"/>
    </contour>
  </outline>
</glyph>
<glyph name="bitcoin.sc" format="2">
  <advance width="411"/>
  <outline>
    <contour>
      <point x="150" y="492" type="line"/>
      <point x="178" y="492" type="line"/>
      <point x="178" y="626" type="line"/>
      <point x="150" y="626" type="line"/>
    </contour>
    <contour>
      <point x="224" y="492" type="line"/>
      <point x="252" y="492" type="line"/>
      <point x="252" y="626" type="line"/>
      <point x="224" y="626" type="line"/>
    </contour>
    <contour>
      <point x="150" y="-114" type="line"/>
      <point x="178" y="-114" type="line"/>
      <point x="178" y="20" type="line"/>
      <point x="150" y="20" type="line"/>
    </contour>
    <contour>
      <point x="224" y="-114" type="line"/>
      <point x="252" y="-114" type="line"/>
      <point x="252" y="20" type="line"/>
      <point x="224" y="20" type="line"/>
    </contour>
    <component base="B.sc"/>
  </outline>
</glyph>
<glyph name="braceleft.sc" format="2">
  <advance width="347"/>
  <outline>
    <contour>
      <point x="260" y="-70" type="curve" smooth="yes"/>
      <point x="307" y="-70" type="line"/>
      <point x="307" y="-42" type="line"/>
      <point x="259" y="-42" type="line" smooth="yes"/>
      <point x="203" y="-42"/>
      <point x="181" y="-2"/>
      <point x="192" y="57" type="curve" smooth="yes"/>
      <point x="204" y="121" type="line" smooth="yes"/>
      <point x="216" y="184"/>
      <point x="172" y="254"/>
      <point x="107" y="262" type="curve"/>
      <point x="107" y="263" type="line"/>
      <point x="172" y="270"/>
      <point x="216" y="341"/>
      <point x="204" y="404" type="curve" smooth="yes"/>
      <point x="192" y="468" type="line" smooth="yes"/>
      <point x="182" y="522"/>
      <point x="204" y="558"/>
      <point x="259" y="558" type="curve" smooth="yes"/>
      <point x="307" y="558" type="line"/>
      <point x="307" y="586" type="line"/>
      <point x="260" y="586" type="line" smooth="yes"/>
      <point x="187" y="586"/>
      <point x="145" y="546"/>
      <point x="160" y="468" type="curve" smooth="yes"/>
      <point x="172" y="404" type="line" smooth="yes"/>
      <point x="184" y="341"/>
      <point x="146" y="291"/>
      <point x="60" y="279" type="curve"/>
      <point x="60" y="245" type="line"/>
      <point x="146" y="232"/>
      <point x="184" y="183"/>
      <point x="172" y="121" type="curve" smooth="yes"/>
      <point x="160" y="57" type="line" smooth="yes"/>
      <point x="144" y="-26"/>
      <point x="186" y="-70"/>
    </contour>
  </outline>
</glyph>
<glyph name="braceleft.tab" format="2">
  <advance width="325"/>
  <outline>
    <contour>
      <point x="289" y="-64" type="curve" smooth="yes"/>
      <point x="320" y="-64" type="line"/>
      <point x="320" y="-36" type="line"/>
      <point x="288" y="-36" type="line" smooth="yes"/>
      <point x="205" y="-36"/>
      <point x="148" y="14"/>
      <point x="157" y="105" type="curve" smooth="yes"/>
      <point x="165" y="183" type="line" smooth="yes"/>
      <point x="171" y="241"/>
      <point x="130" y="304"/>
      <point x="52" y="329" type="curve"/>
      <point x="52" y="330" type="line"/>
      <point x="130" y="350"/>
      <point x="171" y="414"/>
      <point x="165" y="476" type="curve" smooth="yes"/>
      <point x="157" y="554" type="line" smooth="yes"/>
      <point x="149" y="636"/>
      <point x="207" y="696"/>
      <point x="288" y="696" type="curve" smooth="yes"/>
      <point x="320" y="696" type="line"/>
      <point x="320" y="724" type="line"/>
      <point x="289" y="724" type="line" smooth="yes"/>
      <point x="175" y="724"/>
      <point x="116" y="643"/>
      <point x="125" y="554" type="curve" smooth="yes"/>
      <point x="133" y="476" type="line" smooth="yes"/>
      <point x="140" y="410"/>
      <point x="83" y="359"/>
      <point x="5" y="347" type="curve"/>
      <point x="5" y="312" type="line"/>
      <point x="83" y="300"/>
      <point x="140" y="249"/>
      <point x="133" y="183" type="curve" smooth="yes"/>
      <point x="125" y="105" type="line" smooth="yes"/>
      <point x="115" y="7"/>
      <point x="174" y="-64"/>
    </contour>
  </outline>
</glyph>
<glyph name="braceleft.uc" format="2">
  <advance width="415"/>
  <outline>
    <contour>
      <point x="344" y="-64" type="curve" smooth="yes"/>
      <point x="375" y="-64" type="line"/>
      <point x="375" y="-36" type="line"/>
      <point x="343" y="-36" type="line" smooth="yes"/>
      <point x="260" y="-36"/>
      <point x="203" y="14"/>
      <point x="212" y="105" type="curve" smooth="yes"/>
      <point x="220" y="183" type="line" smooth="yes"/>
      <point x="226" y="241"/>
      <point x="185" y="304"/>
      <point x="107" y="329" type="curve"/>
      <point x="107" y="330" type="line"/>
      <point x="185" y="350"/>
      <point x="226" y="414"/>
      <point x="220" y="476" type="curve" smooth="yes"/>
      <point x="212" y="554" type="line" smooth="yes"/>
      <point x="204" y="636"/>
      <point x="262" y="696"/>
      <point x="343" y="696" type="curve" smooth="yes"/>
      <point x="375" y="696" type="line"/>
      <point x="375" y="724" type="line"/>
      <point x="344" y="724" type="line" smooth="yes"/>
      <point x="230" y="724"/>
      <point x="171" y="643"/>
      <point x="180" y="554" type="curve" smooth="yes"/>
      <point x="188" y="476" type="line" smooth="yes"/>
      <point x="195" y="410"/>
      <point x="138" y="359"/>
      <point x="60" y="347" type="curve"/>
      <point x="60" y="312" type="line"/>
      <point x="138" y="300"/>
      <point x="195" y="249"/>
      <point x="188" y="183" type="curve" smooth="yes"/>
      <point x="180" y="105" type="line" smooth="yes"/>
      <point x="170" y="7"/>
      <point x="229" y="-64"/>
    </contour>
  </outline>
</glyph>
<glyph name="braceright.sc" format="2">
  <advance width="347"/>
  <outline>
    <contour>
      <point x="40" y="-70" type="line"/>
      <point x="87" y="-70" type="line" smooth="yes"/>
      <point x="160" y="-70"/>
      <point x="202" y="-30"/>
      <point x="187" y="48" type="curve" smooth="yes"/>
      <point x="175" y="112" type="line" smooth="yes"/>
      <point x="163" y="175"/>
      <point x="201" y="225"/>
      <point x="287" y="237" type="curve"/>
      <point x="287" y="271" type="line"/>
      <point x="201" y="284"/>
      <point x="163" y="333"/>
      <point x="175" y="395" type="curve" smooth="yes"/>
      <point x="187" y="459" type="line" smooth="yes"/>
      <point x="203" y="542"/>
      <point x="161" y="586"/>
      <point x="87" y="586" type="curve" smooth="yes"/>
      <point x="40" y="586" type="line"/>
      <point x="40" y="558" type="line"/>
      <point x="88" y="558" type="line" smooth="yes"/>
      <point x="144" y="558"/>
      <point x="166" y="518"/>
      <point x="155" y="459" type="curve" smooth="yes"/>
      <point x="143" y="395" type="line" smooth="yes"/>
      <point x="131" y="332"/>
      <point x="175" y="262"/>
      <point x="240" y="254" type="curve"/>
      <point x="240" y="253" type="line"/>
      <point x="175" y="246"/>
      <point x="131" y="175"/>
      <point x="143" y="112" type="curve" smooth="yes"/>
      <point x="155" y="48" type="line" smooth="yes"/>
      <point x="165" y="-6"/>
      <point x="143" y="-42"/>
      <point x="88" y="-42" type="curve" smooth="yes"/>
      <point x="40" y="-42" type="line"/>
    </contour>
  </outline>
</glyph>
<glyph name="braceright.tab" format="2">
  <advance width="325"/>
  <outline>
    <contour>
      <point x="5" y="-64" type="line"/>
      <point x="36" y="-64" type="line" smooth="yes"/>
      <point x="150" y="-64"/>
      <point x="209" y="17"/>
      <point x="200" y="106" type="curve" smooth="yes"/>
      <point x="192" y="184" type="line" smooth="yes"/>
      <point x="185" y="250"/>
      <point x="242" y="301"/>
      <point x="320" y="313" type="curve"/>
      <point x="320" y="348" type="line"/>
      <point x="242" y="360"/>
      <point x="185" y="411"/>
      <point x="192" y="477" type="curve" smooth="yes"/>
      <point x="200" y="555" type="line" smooth="yes"/>
      <point x="210" y="653"/>
      <point x="151" y="724"/>
      <point x="36" y="724" type="curve" smooth="yes"/>
      <point x="5" y="724" type="line"/>
      <point x="5" y="696" type="line"/>
      <point x="37" y="696" type="line" smooth="yes"/>
      <point x="120" y="696"/>
      <point x="177" y="646"/>
      <point x="168" y="555" type="curve" smooth="yes"/>
      <point x="160" y="477" type="line" smooth="yes"/>
      <point x="154" y="419"/>
      <point x="195" y="356"/>
      <point x="273" y="331" type="curve"/>
      <point x="273" y="330" type="line"/>
      <point x="195" y="310"/>
      <point x="154" y="246"/>
      <point x="160" y="184" type="curve" smooth="yes"/>
      <point x="168" y="106" type="line" smooth="yes"/>
      <point x="176" y="24"/>
      <point x="118" y="-36"/>
      <point x="37" y="-36" type="curve" smooth="yes"/>
      <point x="5" y="-36" type="line"/>
    </contour>
  </outline>
</glyph>
<glyph name="braceright.uc" format="2">
  <advance width="415"/>
  <outline>
    <contour>
      <point x="40" y="-64" type="line"/>
      <point x="71" y="-64" type="line" smooth="yes"/>
      <point x="185" y="-64"/>
      <point x="244" y="17"/>
      <point x="235" y="106" type="curve" smooth="yes"/>
      <point x="227" y="184" type="line" smooth="yes"/>
      <point x="220" y="250"/>
      <point x="277" y="301"/>
      <point x="355" y="313" type="curve"/>
      <point x="355" y="348" type="line"/>
      <point x="277" y="360"/>
      <point x="220" y="411"/>
      <point x="227" y="477" type="curve" smooth="yes"/>
      <point x="235" y="555" type="line" smooth="yes"/>
      <point x="245" y="653"/>
      <point x="186" y="724"/>
      <point x="71" y="724" type="curve" smooth="yes"/>
      <point x="40" y="724" type="line"/>
      <point x="40" y="696" type="line"/>
      <point x="72" y="696" type="line" smooth="yes"/>
      <point x="155" y="696"/>
      <point x="212" y="646"/>
      <point x="203" y="555" type="curve" smooth="yes"/>
      <point x="195" y="477" type="line" smooth="yes"/>
      <point x="189" y="419"/>
      <point x="230" y="356"/>
      <point x="308" y="331" type="curve"/>
      <point x="308" y="330" type="line"/>
      <point x="230" y="310"/>
      <point x="189" y="246"/>
      <point x="195" y="184" type="curve" smooth="yes"/>
      <point x="203" y="106" type="line" smooth="yes"/>
      <point x="211" y="24"/>
      <point x="153" y="-36"/>
      <point x="72" y="-36" type="curve" smooth="yes"/>
      <point x="40" y="-36" type="line"/>
    </contour>
  </outline>
</glyph>
<glyph name="bracketleft.sc" format="2">
  <advance width="309"/>
  <outline>
    <contour>
      <point x="100" y="-70" type="line"/>
      <point x="269" y="-70" type="line"/>
      <point x="269" y="-42" type="line"/>
      <point x="131" y="-42" type="line"/>
      <point x="131" y="558" type="line"/>
      <point x="269" y="558" type="line"/>
      <point x="269" y="586" type="line"/>
      <point x="100" y="586" type="line"/>
    </contour>
  </outline>
</glyph>
<glyph name="bracketleft.tab" format="2">
  <advance width="325"/>
  <outline>
    <contour>
      <point x="74" y="-64" type="line"/>
      <point x="251" y="-64" type="line"/>
      <point x="251" y="-36" type="line"/>
      <point x="106" y="-36" type="line"/>
      <point x="106" y="696" type="line"/>
      <point x="251" y="696" type="line"/>
      <point x="251" y="724" type="line"/>
      <point x="74" y="724" type="line"/>
    </contour>
  </outline>
</glyph>
<glyph name="bracketleft.uc" format="2">
  <advance width="317"/>
  <outline>
    <contour>
      <point x="100" y="-64" type="line"/>
      <point x="277" y="-64" type="line"/>
      <point x="277" y="-36" type="line"/>
      <point x="132" y="-36" type="line"/>
      <point x="132" y="696" type="line"/>
      <point x="277" y="696" type="line"/>
      <point x="277" y="724" type="line"/>
      <point x="100" y="724" type="line"/>
    </contour>
  </outline>
</glyph>
<glyph name="bracketright.sc" format="2">
  <advance width="309"/>
  <outline>
    <contour>
      <point x="40" y="-70" type="line"/>
      <point x="209" y="-70" type="line"/>
      <point x="209" y="586" type="line"/>
      <point x="40" y="586" type="line"/>
      <point x="40" y="558" type="line"/>
      <point x="178" y="558" type="line"/>
      <point x="178" y="-42" type="line"/>
      <point x="40" y="-42" type="line"/>
    </contour>
  </outline>
</glyph>
<glyph name="bracketright.uc" format="2">
  <advance width="317"/>
  <outline>
    <contour>
      <point x="40" y="-64" type="line"/>
      <point x="217" y="-64" type="line"/>
      <point x="217" y="724" type="line"/>
      <point x="40" y="724" type="line"/>
      <point x="40" y="696" type="line"/>
      <point x="185" y="696" type="line"/>
      <point x="185" y="-36" type="line"/>
      <point x="40" y="-36" type="line"/>
    </contour>
  </outline>
</glyph>
<glyph name="brevecmb.uc" format="2">
  <anchor x="0.0" y="642" name="_top"/>
  <anchor x="1" y="16" name="_bottom"/>
  <outline>
    <contour>
      <point x="1" y="714" type="curve" smooth="yes"/>
      <point x="65" y="714"/>
      <point x="106" y="759"/>
      <point x="106" y="835" type="curve"/>
      <point x="78" y="835" type="line"/>
      <point x="78" y="777"/>
      <point x="48" y="741"/>
      <point x="1" y="741" type="curve" smooth="yes"/>
      <point x="-46" y="741"/>
      <point x="-76" y="777"/>
      <point x="-76" y="835" type="curve"/>
      <point x="-104" y="835" type="line"/>
      <point x="-104" y="759"/>
      <point x="-63" y="714"/>
    </contour>
  </outline>
</glyph>
<glyph name="c.sinf" format="2">
  <advance width="364"/>
  <anchor x="212" y="174" name="top"/>
  <anchor x="180" y="0" name="bottom"/>
  <outline>
    <contour>
      <point x="217" y="-179" type="curve" smooth="yes"/>
      <point x="257" y="-179"/>
      <point x="293" y="-168"/>
      <point x="326" y="-146" type="curve"/>
      <point x="326" y="-112" type="line"/>
      <point x="295" y="-137"/>
      <point x="259" y="-150"/>
      <point x="217" y="-150" type="curve" smooth="yes"/>
      <point x="127" y="-150"/>
      <point x="68" y="-88"/>
      <point x="68" y="9" type="curve" smooth="yes"/>
      <point x="68" y="111"/>
      <point x="123" y="170"/>
      <point x="213" y="170" type="curve" smooth="yes"/>
      <point x="256" y="170"/>
      <point x="290" y="159"/>
      <point x="328" y="134" type="curve"/>
      <point x="328" y="168" type="line"/>
      <point x="291" y="189"/>
      <point x="253" y="199"/>
      <point x="213" y="199" type="curve" smooth="yes"/>
      <point x="105" y="199"/>
      <point x="36" y="127"/>
      <point x="36" y="8" type="curve" smooth="yes"/>
      <point x="36" y="-106"/>
      <point x="108" y="-179"/>
    </contour>
  </outline>
</glyph>
<glyph name="caroncmb.uc" format="2">
  <anchor x="0" y="642" name="_top"/>
  <anchor x="0" y="16" name="_bottom"/>
  <outline>
    <contour>
      <point x="-11" y="714" type="line"/>
      <point x="11" y="714" type="line"/>
      <point x="116" y="833" type="line"/>
      <point x="79" y="833" type="line"/>
      <point x="-9" y="734" type="line"/>
      <point x="9" y="734" type="line"/>
      <point x="-79" y="833" type="line"/>
      <point x="-116" y="833" type="line"/>
    </contour>
  </outline>
</glyph>
<glyph name="caroncmb.vert" format="2">
  <anchor x="1.0" y="16.0" name="_bottom"/>
  <anchor x="1.0" y="446.0" name="_caron.vert"/>
  <outline>
    <contour>
      <point x="-28" y="300" type="line"/>
      <point x="6" y="342"/>
      <point x="16" y="385"/>
      <point x="16" y="425" type="curve" smooth="yes"/>
      <point x="16" y="462" type="line"/>
      <point x="-14" y="462" type="line"/>
      <point x="-14" y="425" type="line" smooth="yes"/>
      <point x="-14" y="388"/>
      <point x="-22" y="353"/>
      <point x="-48" y="316" type="curve"/>
    </contour>
  </outline>
</glyph>
<glyph name="caroncmb.vert.uc" format="2">
  <anchor x="1.0" y="16.0" name="_bottom"/>
  <anchor x="1" y="642" name="_caron.vert"/>
  <outline>
    <contour>
      <point x="-28" y="496" type="line"/>
      <point x="6" y="538"/>
      <point x="16" y="581"/>
      <point x="16" y="621" type="curve" smooth="yes"/>
      <point x="16" y="658" type="line"/>
      <point x="-14" y="658" type="line"/>
      <point x="-14" y="621" type="line" smooth="yes"/>
      <point x="-14" y="584"/>
      <point x="-22" y="549"/>
      <point x="-48" y="512" type="curve"/>
    </contour>
  </outline>
</glyph>
<glyph name="cent.sc" format="2">
  <advance width="436"/>
  <outline>
    <contour>
      <point x="392" y="92" type="curve"/>
      <point x="392" y="128" type="line"/>
      <point x="352" y="96"/>
      <point x="306" y="80"/>
      <point x="253" y="80" type="curve" smooth="yes"/>
      <point x="151" y="80"/>
      <point x="84" y="148"/>
      <point x="84" y="255" type="curve" smooth="yes"/>
      <point x="84" y="368"/>
      <point x="146" y="432"/>
      <point x="248" y="432" type="curve" smooth="yes"/>
      <point x="301" y="432"/>
      <point x="343" y="419"/>
      <point x="392" y="387" type="curve"/>
      <point x="392" y="423" type="line"/>
      <point x="345" y="449"/>
      <point x="298" y="461"/>
      <point x="248" y="461" type="curve" smooth="yes"/>
      <point x="128" y="461"/>
      <point x="52" y="384"/>
      <point x="52" y="254" type="curve" smooth="yes"/>
      <point x="52" y="131"/>
      <point x="133" y="51"/>
      <point x="253" y="51" type="curve" smooth="yes"/>
      <point x="304" y="51"/>
      <point x="350" y="64"/>
    </contour>
    <contour>
      <point x="228" y="0" type="line"/>
      <point x="256" y="0" type="line"/>
      <point x="256" y="508" type="line"/>
      <point x="228" y="508" type="line"/>
    </contour>
  </outline>
</glyph>
<glyph name="cent.sc_AT_weight800" format="2">
  <advance width="436"/>
  <outline>
    <contour>
      <point x="228" y="0" type="line"/>
      <point x="228" y="52" type="line"/>
      <point x="122" y="63"/>
      <point x="52" y="140"/>
      <point x="52" y="254" type="curve" smooth="yes"/>
      <point x="52" y="377"/>
      <point x="120" y="452"/>
      <point x="228" y="460" type="curve"/>
      <point x="228" y="508" type="line"/>
      <point x="256" y="508" type="line"/>
      <point x="256" y="461" type="line"/>
      <point x="303" y="460"/>
      <point x="348" y="448"/>
      <point x="392" y="423" type="curve"/>
      <point x="392" y="387" type="line"/>
      <point x="343" y="419"/>
      <point x="301" y="432"/>
      <point x="248" y="432" type="curve" smooth="yes"/>
      <point x="146" y="432"/>
      <point x="84" y="368"/>
      <point x="84" y="255" type="curve" smooth="yes"/>
      <point x="84" y="148"/>
      <point x="151" y="80"/>
      <point x="253" y="80" type="curve" smooth="yes"/>
      <point x="306" y="80"/>
      <point x="352" y="96"/>
      <point x="392" y="128" type="curve"/>
      <point x="392" y="92" type="line"/>
      <point x="350" y="64"/>
      <point x="304" y="51"/>
      <point x="256" y="51" type="curve"/>
      <point x="256" y="0" type="line"/>
    </contour>
  </outline>
</glyph>
<glyph name="cent_AT_weight800" format="2">
  <advance width="470"/>
  <outline>
    <contour>
      <point x="248" y="462" type="line"/>
      <point x="276" y="462" type="line"/>
      <point x="276" y="562" type="line"/>
      <point x="248" y="562" type="line"/>
    </contour>
    <contour>
      <point x="248" y="-98" type="line"/>
      <point x="276" y="-98" type="line"/>
      <point x="276" y="2" type="line"/>
      <point x="248" y="2" type="line"/>
    </contour>
    <component base="c"/>
  </outline>
</glyph>
<glyph name="circumflexcmb.uc" format="2">
  <anchor x="0" y="642" name="_top"/>
  <anchor x="0" y="16" name="_bottom"/>
  <outline>
    <contour>
      <point x="-79" y="724" type="line"/>
      <point x="9" y="821" type="line"/>
      <point x="-9" y="821" type="line"/>
      <point x="79" y="724" type="line"/>
      <point x="116" y="724" type="line"/>
      <point x="11" y="843" type="line"/>
      <point x="-11" y="843" type="line"/>
      <point x="-116" y="724" type="line"/>
    </contour>
  </outline>
</glyph>
<glyph name="commaaccentcmb.uc" format="2">
  <outline>
    <contour>
      <point x="-28" y="-210" type="line"/>
      <point x="6" y="-168"/>
      <point x="16" y="-125"/>
      <point x="16" y="-85" type="curve" smooth="yes"/>
      <point x="16" y="-48" type="line"/>
      <point x="-14" y="-48" type="line"/>
      <point x="-14" y="-85" type="line" smooth="yes"/>
      <point x="-14" y="-122"/>
      <point x="-22" y="-157"/>
      <point x="-48" y="-194" type="curve"/>
    </contour>
  </outline>
</glyph>
<glyph name="d.sinf" format="2">
  <advance width="390"/>
  <anchor x="386" y="462" name="caron.vert"/>
  <outline>
    <contour>
      <point x="196" y="-179" type="curve" smooth="yes"/>
      <point x="241" y="-179"/>
      <point x="282" y="-160"/>
      <point x="307" y="-122" type="curve"/>
      <point x="311" y="-170" type="line"/>
      <point x="338" y="-170" type="line"/>
      <point x="338" y="392" type="line"/>
      <point x="307" y="392" type="line"/>
      <point x="307" y="163" type="line"/>
      <point x="275" y="186"/>
      <point x="239" y="199"/>
      <point x="200" y="199" type="curve" smooth="yes"/>
      <point x="106" y="199"/>
      <point x="36" y="133"/>
      <point x="36" y="9" type="curve" smooth="yes"/>
      <point x="36" y="-116"/>
      <point x="103" y="-179"/>
    </contour>
    <contour>
      <point x="199" y="-151" type="curve" smooth="yes"/>
      <point x="116" y="-151"/>
      <point x="68" y="-88"/>
      <point x="68" y="10" type="curve" smooth="yes"/>
      <point x="68" y="106"/>
      <point x="118" y="171"/>
      <point x="201" y="171" type="curve" smooth="yes"/>
      <point x="241" y="171"/>
      <point x="276" y="157"/>
      <point x="307" y="130" type="curve"/>
      <point x="307" y="-84" type="line"/>
      <point x="287" y="-125"/>
      <point x="248" y="-151"/>
    </contour>
  </outline>
</glyph>
